<?xml version="1.0" encoding="UTF-8" standalone="no"?>
<svg width="60px" height="64px" viewBox="0 0 60 64" version="1.1" xmlns="http://www.w3.org/2000/svg" xmlns:xlink="http://www.w3.org/1999/xlink" xmlns:sketch="http://www.bohemiancoding.com/sketch/ns">
    <!-- Generator: Sketch 3.3.2 (12043) - http://www.bohemiancoding.com/sketch -->
    <title>details</title>
    <desc>Created with Sketch.</desc>
    <defs></defs>
    <g id="Page-1" stroke="none" stroke-width="1" fill="none" fill-rule="evenodd" sketch:type="MSPage">
        <g id="details" sketch:type="MSLayerGroup">
            <g id="Group" sketch:type="MSShapeGroup">
                <path d="M23.8,10.3 L59.3,10.3" id="Shape" stroke="#020202" stroke-width="3"></path>
                <path d="M23.8,33.3 L59.3,33.3" id="Shape" stroke="#020202" stroke-width="3"></path>
                <path d="M23.8,55.4 L59.3,55.4" id="Shape" stroke="#020202" stroke-width="3"></path>
                <path d="M10.2,0.4 L13.2,6.5 L19.9,7.5 L15.1,12.2 L16.2,18.9 L10.2,15.8 L4.2,18.9 L5.4,12.2 L0.5,7.5 L7.2,6.5 L10.2,0.4 Z" id="Shape" fill="#000000"></path>
                <path d="M10.2,22.6 L13.2,28.7 L19.9,29.6 L15.1,34.4 L16.2,41.1 L10.2,37.9 L4.2,41.1 L5.4,34.4 L0.5,29.6 L7.2,28.7 L10.2,22.6 Z" id="Shape" fill="#000000"></path>
                <path d="M10.2,44.7 L13.2,50.8 L19.9,51.8 L15.1,56.5 L16.2,63.2 L10.2,60 L4.2,63.2 L5.4,56.5 L0.5,51.8 L7.2,50.8 L10.2,44.7 Z" id="Shape" fill="#000000"></path>
            </g>
        </g>
    </g>
</svg>