<?xml version="1.0" encoding="UTF-8" standalone="no"?>
<svg width="64px" height="63px" viewBox="0 0 64 63" version="1.1" xmlns="http://www.w3.org/2000/svg" xmlns:xlink="http://www.w3.org/1999/xlink" xmlns:sketch="http://www.bohemiancoding.com/sketch/ns">
    <!-- Generator: Sketch 3.3.2 (12043) - http://www.bohemiancoding.com/sketch -->
    <title>call</title>
    <desc>Created with Sketch.</desc>
    <defs></defs>
    <g id="Page-1" stroke="none" stroke-width="1" fill="none" fill-rule="evenodd" sketch:type="MSPage">
        <g id="call" sketch:type="MSLayerGroup" transform="translate(1.000000, 0.000000)" stroke-width="2" stroke="#020202">
            <g id="_x32_4x24_62_" sketch:type="MSShapeGroup">
                <path d="M49.8,42.5 C47.5,42.3 42.1,47.8 42.1,47.8 C42.1,47.8 37.7,48.7 25.6,36.6 C13.5,24.5 14.4,20 14.4,20 C14.4,20 19.9,14.8 19.8,12.5 C19.4,8.5 12.3,0.9 8.2,1 C5.5,1.2 1.6,6.3 0.6,8.8 C0.2,9.9 0.6,13.4 0.6,13.4 C0.6,13.4 1.6,26.3 18.9,43.6 C36.2,60.8 49,61.7 49,61.7 C49,61.7 52.5,62.1 53.5,61.7 C56,60.7 61.1,56.7 61.2,54 C61.4,50 53.9,42.9 49.8,42.5 L49.8,42.5 Z" id="Shape"></path>
            </g>
        </g>
    </g>
</svg>