<?xml version="1.0" encoding="UTF-8" standalone="no"?>
<svg width="75px" height="66px" viewBox="0 0 75 66" version="1.1" xmlns="http://www.w3.org/2000/svg" xmlns:xlink="http://www.w3.org/1999/xlink" xmlns:sketch="http://www.bohemiancoding.com/sketch/ns">
    <!-- Generator: Sketch 3.3.2 (12043) - http://www.bohemiancoding.com/sketch -->
    <title>Slice 1</title>
    <desc>Created with Sketch.</desc>
    <defs></defs>
    <g id="Page-1" stroke="none" stroke-width="1" fill="none" fill-rule="evenodd" sketch:type="MSPage">
        <g id="Oval-1-+-Imported-Layers" sketch:type="MSLayerGroup" transform="translate(5.000000, 1.000000)">
            <circle id="Oval-1" stroke="#000000" stroke-width="2.5" sketch:type="MSShapeGroup" cx="32" cy="32" r="32"></circle>
            <path d="M14.4132726,56.5153885 C14.4132726,57.5146915 13.5698788,56.5153871 12.5720606,56.5153871 C11.5861212,56.5153871 10.7575758,55.6972356 10.7575758,54.6860538 C10.7575758,51.3674174 12.117697,48.8773265 13.999,47.049478 C16.6182727,44.5460235 20.2754545,43.4442659 22.4522424,43.2497507 C22.8932424,43.1992659 23.2822727,43.0299932 23.5554848,42.7701447 C23.7232727,42.6023568 23.8272121,42.3811144 23.877697,42.1747204 C22.1656667,40.7611447 21.3623636,38.8159932 20.7164545,37.170781 C20.3764242,36.3659932 20.0928182,35.6903871 19.9354242,35.4973568 C19.1068788,34.7579022 18.0303636,33.4349022 17.4735455,31.9307507 C16.9018788,30.438478 16.7608182,28.7932659 17.6160909,27.2891144 C17.1632121,25.9156295 16.9286061,24.4099932 16.9286061,22.8553568 C16.9018788,20.8715992 17.2122121,18.8596295 17.8358485,17.0199022 L17.9145455,16.8639932 C18.7965455,14.2833265 20.2977273,12.3916295 22.2176364,11.1072356 C24.2652424,9.70553861 26.8087879,9.07299316 29.6626667,9.00765983 C30.7243333,8.99429619 32.1765152,8.96756892 33.5886061,9.23929619 C35.2100606,9.52587195 36.7424242,10.1465386 37.6763939,11.4576598 C39.5918485,11.2883871 41.2667576,12.3515386 42.5763939,13.9091447 C44.183,15.7741144 45.3382121,18.4973265 45.584697,20.1054174 C45.7896061,21.2977507 45.7896061,22.5435386 45.6099394,23.8665386 C45.4792727,24.8895992 45.2476364,25.9913568 44.9343333,27.0827204 C45.9202727,28.6373568 45.7896061,30.3746295 45.2209091,31.9055083 C44.6507273,33.408175 43.5860909,34.7579022 42.8095152,35.4453871 C42.5630303,35.6903871 42.2779394,36.3778719 41.9527576,37.170781 C41.3187273,38.8026295 40.5525455,40.7076901 38.8791212,42.0960235 C38.9192121,42.3425083 39.0469091,42.5756295 39.2295455,42.7701447 C39.4879091,43.0299932 39.9021818,43.1992659 40.3327879,43.2497507 C42.497697,43.4442659 46.1548788,44.5460235 48.7741515,47.049478 C50.6391212,48.8654477 52.0140909,51.3674174 52.0140909,54.6979326 C52.0140909,55.6972356 51.1840606,56.5153871 50.2010909,56.5153871 C49.1884242,56.5153871 48.7741506,58.2291994 48.7741506,57.2180176 C48.7741506,55.0397449 47.4778788,50.8878113 46.2454545,49.6939932 C44.3136667,47.8409022 41.6171818,47.0093871 40.0076061,46.8935689 C38.7113333,46.7643871 37.519,46.2194477 36.637,45.3389326 C35.6510606,44.3782356 34.2508485,40.7611447 36.0801818,39.6074174 C37.3630909,38.8427204 38.038697,37.1945386 38.5687879,35.8076901 C39.0766061,34.5767507 39.4879091,33.5135992 40.3209091,32.760781 C40.7871515,32.3583871 41.4597879,31.5417204 41.7968485,30.6329932 C42.0581818,29.9603568 42.1101515,29.2862356 41.6691515,28.8199932 C41.2014242,28.2869326 41.0306667,27.3277204 41.2548788,26.665478 C41.6171818,25.5132356 41.8755455,24.4367204 41.9913636,23.3988113 C42.1101515,22.4262356 42.1353939,21.5189932 41.9794848,20.6236295 C41.8235758,19.5367204 40.9935455,17.6420538 39.8130909,16.2670841 C39.1924242,15.5276295 38.5168182,14.9975386 37.9481212,15.101478 C37.3096364,15.1920538 36.6889697,15.101478 36.1187879,14.8431144 C35.6258182,14.5951447 35.1848182,14.2313568 34.8477576,13.7517507 L34.7319394,13.6225689 C34.4587273,13.2082962 33.7578788,12.9484477 32.942697,12.8044174 C31.8661818,12.6099022 30.6456364,12.6366295 29.7383939,12.6633568 C27.5749697,12.6885992 25.6951515,13.1295992 24.2281212,14.140781 C22.9570909,14.984175 21.9711515,16.2670841 21.3371212,18.0696901 L21.2836667,18.2137204 C20.8055455,19.6525386 20.5338182,21.2472659 20.5590606,22.8033871 C20.5857879,24.1902356 20.8055455,25.5251144 21.2584242,26.6417204 C21.466303,26.9906598 21.545,27.4316598 21.4529394,27.8325689 C21.2584242,29.0263871 20.2977273,29.0783568 20.8693939,30.6329932 C21.2064545,31.4897507 21.8553333,32.3064174 22.3111818,32.7340538 C23.1783333,33.5507204 23.6044848,34.6019932 24.0855758,35.8076901 C24.6572424,37.1945386 25.3298788,38.8679629 26.6009091,39.6579022 C27.1710909,39.944478 27.5601212,40.5399022 27.5601212,41.2659932 C27.5601212,42.8221144 27.3017576,44.1703568 26.1331818,45.3389326 C25.2779091,46.2194477 24.0603333,46.7643871 22.7373333,46.8935689 C21.1426061,47.0093871 18.4594848,47.8409022 16.5395758,49.6939932 C15.2952727,50.8878113 14.4132727,52.507781 14.4132727,54.6979326" id="Imported-Layers" fill="#000000" sketch:type="MSShapeGroup"></path>
        </g>
    </g>
</svg>