<?xml version="1.0" encoding="UTF-8" standalone="no"?>
<svg width="75px" height="66px" viewBox="0 0 75 66" version="1.1" xmlns="http://www.w3.org/2000/svg" xmlns:xlink="http://www.w3.org/1999/xlink" xmlns:sketch="http://www.bohemiancoding.com/sketch/ns">
    <!-- Generator: Sketch 3.3.2 (12043) - http://www.bohemiancoding.com/sketch -->
    <title>Slice 1</title>
    <desc>Created with Sketch.</desc>
    <defs></defs>
    <g id="Page-1" stroke="none" stroke-width="1" fill="none" fill-rule="evenodd" sketch:type="MSPage">
        <g id="Imported-Layers" sketch:type="MSLayerGroup" transform="translate(37.500000, 33.466667) scale(-1, 1) translate(-37.500000, -33.466667) translate(1.000000, 14.000000)" fill="#000000">
            <path d="M41.6449761,27.4266933 C43.9420815,27.4263984 46.239332,27.4293467 48.5364374,27.4253665 C49.8060278,27.4230079 50.128505,27.193188 50.4994553,25.9566717 C51.4596302,22.7555567 53.5021789,20.5605486 56.5879165,19.4773437 C61.985998,17.5821775 67.5728926,20.7028039 69.0555328,26.352923 C70.4875229,31.8091914 66.6754135,37.5231411 61.1619543,38.3461586 C56.3766083,39.0605314 51.7301511,36.077443 50.3863996,31.1328518 C50.1890239,30.4063911 49.8221372,30.0397702 49.0799463,30.040065 C47.1745447,30.0409495 45.2692883,30.0242916 43.3638867,30.0248812 C40.2659583,30.0256183 37.1678847,30.0363796 34.0699563,30.0381486 C33.6162823,30.0384434 33.1570934,29.9616402 32.7102406,30.0110242 C32.0426461,30.0847317 31.6036302,29.7680845 31.2457416,29.2704117 C28.0659602,24.8487012 24.8900974,20.4237475 21.712493,16.000268 C21.118334,15.1731229 20.774668,15.1639832 20.1722366,16.0049853 C19.0532903,17.5669938 17.9440676,19.1365204 16.8489225,20.7157765 C16.4737634,21.2567892 16.5146899,21.7972123 16.9458688,22.3243681 C18.4234294,24.1304957 19.2505209,26.2171539 19.2651789,28.5623778 C19.2973976,33.7715789 15.4212863,37.7023977 10.9514513,38.3522027 C5.75611531,39.1075567 0.824333996,35.2604695 0.144403579,30.1694953 C-0.382270378,26.2259988 1.04260835,23.1375088 4.07726044,20.742606 C4.23138767,20.6209887 4.48536382,20.1426273 4.75632008,20.6858512 C4.76328628,20.6998557 5.04570775,20.6189249 5.04556262,20.5828082 C5.04251491,19.7891263 5.72113917,19.7966444 6.18584294,19.6111965 C8.51240954,18.6826299 10.8533439,18.715356 13.1813618,19.6131129 C13.958674,19.9129548 14.4479046,19.5910006 14.8866302,18.966551 C18.2984732,14.1096717 21.72033,9.26001561 25.1420417,4.41035958 C26.0736262,3.08996414 26.9904076,1.75733326 27.9727873,0.476887266 C28.1736461,0.215225783 28.6357376,0.0414235925 28.9818708,0.0334631868 C30.8895944,-0.0104664593 32.7987694,-0.00014741492 34.7073638,0.0122354384 C35.540841,0.0178372053 36.1302107,0.597914915 36.1309364,1.35430087 C36.131662,2.09019615 35.530827,2.63179857 34.6741292,2.63813741 C33.3926382,2.64771938 32.111002,2.64668747 30.8295109,2.63681067 C30.0279622,2.63061925 29.3737197,2.92898705 28.9087256,3.58911106 C27.0176918,6.27383158 25.1331889,8.96326938 23.2544911,11.6568348 C22.7180934,12.425751 22.7587296,13.0018485 23.3272008,13.7909606 C26.2564891,17.8572537 29.1912922,21.9195667 32.1009881,26.0004539 C32.7717753,26.9411085 33.5786938,27.4589771 34.7584493,27.4386339 C37.0533777,27.3989793 39.3494672,27.4269881 41.6449761,27.4266933 L41.6449761,27.4266933 Z M57.5478012,27.4240398 L57.5478012,27.4277252 C58.296668,27.4277252 59.0594672,27.34134 59.7890318,27.461778 C60.1953936,27.5287044 60.7108926,27.8552285 60.8904175,28.2131519 C61.3438012,29.117395 60.5988529,30.01412 59.515173,30.0102872 C58.0381928,30.0048328 56.5606322,29.9981991 55.0842326,30.0344632 C54.3616342,30.0523004 54.1437952,30.4355792 54.4453738,31.0948187 C55.322825,33.0132765 56.8183817,34.220015 58.8565765,34.4778437 C63.1018966,35.0151711 66.2137575,31.4735277 65.3156978,27.2490583 C64.8467853,25.0435837 62.7197714,23.1211457 60.4466123,22.8479859 C58.0026362,22.5544828 55.4493777,23.9673074 54.4976203,26.1400559 C54.1400219,26.9568819 54.3976262,27.3865964 55.3019264,27.4185855 C56.0497773,27.4451201 56.7990795,27.4240398 57.5478012,27.4240398 L57.5478012,27.4240398 Z M9.67663618,34.6870255 C10.5114195,34.4468866 11.4043996,34.3270383 12.1709722,33.945381 C15.2507594,32.4125607 16.1734911,28.8949459 14.7972306,26.0396663 C14.3042266,25.0169016 13.8418449,24.9965583 13.1900696,25.9044868 C12.3827157,27.0291152 11.6043877,28.1752662 10.7992107,29.3015162 C10.2475746,30.0730859 9.53876342,30.2218276 8.87436183,29.7362428 C8.27860636,29.3009266 8.18630417,28.5373173 8.68612922,27.8061393 C9.49507952,26.623282 10.3327654,25.4606205 11.1526004,24.2852813 C11.6891431,23.5160703 11.5858111,23.1123008 10.689493,22.9765317 C9.95064016,22.8646438 9.15533201,22.8528506 8.42692843,23.0040983 C5.32580716,23.6484489 3.48527833,26.3128261 3.93590457,29.6955563 C4.30192048,32.4439601 6.89958847,34.6629969 9.67663618,34.6870255 L9.67663618,34.6870255 Z" id="Fill-1" sketch:type="MSShapeGroup"></path>
            <path d="M31.6927396,6.96874551 C37.5368032,7.07385235 42.6007972,9.10685151 46.6201511,13.4527908 C47.8061471,14.7353006 49.1271133,14.8573601 50.6367475,14.8380488 C53.8094175,14.7973623 56.9841193,14.7205591 60.1549026,14.7930872 C64.3881769,14.8899388 67.8965308,16.6208848 70.445,20.0883786 C72.0607237,22.2866298 72.9500755,24.8046241 72.9904215,27.5861962 C73.0039185,28.5193327 72.5020616,29.1582289 71.7542107,29.1781299 C70.9528072,29.1996525 70.4069761,28.5768245 70.3950755,27.627325 C70.3345567,22.8056778 66.8774334,18.4889267 62.1777137,17.7263493 C59.9129722,17.3588439 57.5708767,17.4091124 55.2631769,17.3999727 C47.0465408,17.367394 38.8296143,17.3690155 30.6129781,17.4067538 C28.3713121,17.4170728 26.1290656,15.6144832 25.696,13.2605617 C25.1051789,10.0498648 27.3635348,6.95857388 30.9787038,6.96874551 C31.2167157,6.96933517 31.4547276,6.96874551 31.6927396,6.96874551 L31.6927396,6.96874551 Z M43.821334,14.7459144 C43.8557296,14.6834105 43.8901252,14.6209066 43.9245209,14.5585501 C43.7182922,14.3197379 43.5392028,14.0477574 43.3016262,13.8471257 C39.6912465,10.7978481 35.4912068,9.46418528 30.8443141,9.59376299 C29.0332465,9.64432631 28.1871431,10.8395665 28.1762584,12.3361227 C28.1671153,13.579715 29.3623996,14.8389333 30.9489523,14.8019321 C34.8149046,14.7118616 38.6839046,14.7557912 42.5515984,14.7460619 C42.9749404,14.7448825 43.3981372,14.7459144 43.821334,14.7459144 L43.821334,14.7459144 Z" id="Fill-2" sketch:type="MSShapeGroup"></path>
            <path d="M41.7468569,21.8122486 C38.8007336,21.8122486 35.8546103,21.814165 32.9086322,21.8110693 C32.0221829,21.8101848 31.3792604,21.2740368 31.3593777,20.5359303 C31.3376083,19.7279491 31.9615189,19.1732267 32.8986183,19.1727845 C38.7666282,19.1707207 44.6347833,19.1690991 50.5029384,19.1685095 C51.4715308,19.1685095 52.0778807,19.6779754 52.0864433,20.4918532 C52.0948608,21.2789015 51.4620974,21.8070891 50.5122266,21.8070891 C47.5904851,21.8067943 44.6685984,21.8069417 41.7468569,21.8069417 L41.7468569,21.8122486" id="Fill-3" sketch:type="MSShapeGroup"></path>
            <path d="M13.8253002,3.98845808 C16.529493,4.02988167 18.8167296,6.67819071 18.6139841,9.39976496 C18.4055785,12.1953415 16.5052565,14.0613196 13.8392326,14.3912341 C12.8745586,14.5106402 12.1979662,13.9184745 12.1959344,12.9284359 C12.1911451,10.4966794 12.2004334,8.06477544 12.1994175,5.63301892 C12.1989821,4.36200748 12.5825586,3.96929414 13.8253002,3.98845808 L13.8253002,3.98845808 Z M14.8005686,9.1541717 L14.7981014,9.1541717 C14.7981014,9.57165076 14.7769125,9.99060396 14.8085507,10.405577 C14.8213221,10.5742196 14.9153658,10.8279207 15.0340815,10.8719978 C15.1617952,10.9194654 15.4070636,10.8121473 15.5225865,10.6934783 C16.1888748,10.0090308 16.1807475,8.25051824 15.5072028,7.57845362 C15.3915348,7.46302774 15.1651332,7.39359531 15.0067972,7.41762394 C14.9198648,7.43089129 14.8187097,7.68061216 14.8098569,7.82891157 C14.7838787,8.26923994 14.8005686,8.71222177 14.8005686,9.1541717 L14.8005686,9.1541717 Z" id="Fill-4" sketch:type="MSShapeGroup"></path>
            <path d="M41.8143419,23.2934738 C43.506839,23.2934738 45.199336,23.2911151 46.891833,23.2946531 C47.6807555,23.2962746 48.1441531,23.7215667 48.17434,24.4559878 C48.2078648,25.2679492 47.7279225,25.8820797 46.9556899,25.8837013 C43.9880875,25.8904824 41.0206302,25.8617365 38.0530278,25.8509752 C37.6009503,25.8493536 37.1487276,25.8724978 36.696505,25.8851755 C35.868833,25.908467 35.2727873,25.3696655 35.2695944,24.5939682 C35.2659662,23.7715403 35.7313956,23.3030557 36.5917217,23.2990755 C38.3325467,23.2909677 40.0735169,23.2967169 41.8143419,23.2967169 L41.8143419,23.2934738" id="Fill-5" sketch:type="MSShapeGroup"></path>
        </g>
    </g>
</svg>