<?xml version="1.0" encoding="UTF-8" standalone="no"?>
<svg width="64px" height="50px" viewBox="0 0 64 50" version="1.1" xmlns="http://www.w3.org/2000/svg" xmlns:xlink="http://www.w3.org/1999/xlink" xmlns:sketch="http://www.bohemiancoding.com/sketch/ns">
    <!-- Generator: Sketch 3.3.2 (12043) - http://www.bohemiancoding.com/sketch -->
    <title>chat</title>
    <desc>Created with Sketch.</desc>
    <defs></defs>
    <g id="Page-1" stroke="none" stroke-width="1" fill="none" fill-rule="evenodd" sketch:type="MSPage">
        <g id="chat" sketch:type="MSLayerGroup" fill="#000000">
            <path d="M54.3,22 C53.9,21.9 53.5,22.1 53.3,22.5 C53.2,22.9 53.4,23.3 53.8,23.5 C59.8,25.4 62.4,28.2 62.4,32.7 C62.4,36.7 58.8,39.7 56.6,41.2 C56.4,41.3 56.3,41.6 56.3,41.8 L56.3,47.6 C55.2,47.2 53.2,46.2 51.5,44.3 C51.3,44.1 51.1,44 50.8,44.1 C50.4,44.2 49.9,44.3 49.5,44.4 C48.7,44.6 47.9,44.8 47.2,44.8 C43.3,44.8 40.5,44 37.7,41.9 C37.4,41.7 36.9,41.7 36.6,42.1 C36.4,42.4 36.4,42.9 36.8,43.2 C39.9,45.5 42.9,46.4 47.2,46.4 C48.2,46.4 49.1,46.2 49.9,45.9 C50.2,45.8 50.4,45.8 50.7,45.7 C53.5,48.7 56.8,49.4 56.9,49.4 L57.1,49.4 C57.3,49.4 57.4,49.3 57.6,49.2 C57.8,49.1 57.9,48.8 57.9,48.6 L57.9,42.1 C61.8,39.3 64,35.9 64,32.6 C64,27.5 60.9,24.1 54.3,22 L54.3,22 Z" id="Shape" sketch:type="MSShapeGroup"></path>
            <path d="M50.3,21.2 C50.3,9.5 39.6,0.6 25.4,0.6 C11.2,0.6 0,9.7 0,21.2 C0,28.1 4.9,33.1 9.1,36.1 L9.1,46.2 C9.1,46.5 9.2,46.7 9.4,46.8 C9.5,46.9 9.7,46.9 9.8,46.9 C9.9,46.9 10,46.9 10.1,46.8 C10.3,46.7 15.5,44.3 20,39.5 C21.9,39.9 24.1,40.2 26.1,40.2 C40.6,40.2 50.3,32.6 50.3,21.2 L50.3,21.2 Z M26.2,38.7 C24.2,38.7 21.9,38.3 20,37.9 C19.7,37.9 19.5,37.9 19.3,38.1 C16.2,41.6 12.5,43.9 10.7,44.8 L10.7,35.5 C10.7,35.2 10.6,35 10.4,34.9 C6.4,32.1 1.6,27.5 1.6,21.1 C1.5,10.5 12,2.1 25.4,2.1 C38.7,2.1 48.7,10.3 48.7,21.1 C48.8,31.7 39.7,38.7 26.2,38.7 L26.2,38.7 Z" id="Shape" sketch:type="MSShapeGroup"></path>
        </g>
    </g>
</svg>