<?xml version="1.0" encoding="UTF-8" standalone="no"?>
<svg width="75px" height="66px" viewBox="0 0 75 66" version="1.1" xmlns="http://www.w3.org/2000/svg" xmlns:xlink="http://www.w3.org/1999/xlink" xmlns:sketch="http://www.bohemiancoding.com/sketch/ns">
    <!-- Generator: Sketch 3.3.2 (12043) - http://www.bohemiancoding.com/sketch -->
    <title>Slice 1</title>
    <desc>Created with Sketch.</desc>
    <defs></defs>
    <g id="Page-1" stroke="none" stroke-width="1" fill="none" fill-rule="evenodd" sketch:type="MSPage">
        <g id="basic-quikr-truck" sketch:type="MSLayerGroup" transform="translate(1.000000, 10.984127)" fill="#000000">
            <path d="M26.208,25.8112515 C20.6569382,25.8110986 15.1058763,25.8256258 9.5548145,25.8005473 C8.22657569,25.7945835 7.284742,26.3148089 6.74389765,27.5080241 C6.43056716,28.1993642 5.92365032,28.5070342 5.18016205,28.5048934 C4.00344563,28.5015292 2.82657569,28.5287485 1.65016631,28.5157505 C0.227360341,28.5 -0.339428571,27.6344869 0.226439232,26.3455453 C3.30217484,19.3381006 6.38957783,12.336008 9.45441365,5.32397586 C9.79645203,4.54119115 10.304597,4.21991147 11.1649126,4.22220523 C18.4298507,4.24086117 25.6947889,4.2218994 32.9597271,4.23780282 C34.1866439,4.24055533 35.250371,3.91713481 36.228742,3.16646278 C40.2077783,0.113923541 40.1179701,0.0964909457 45.4152665,0.138696177 C47.333629,0.153987928 49.2522985,0.136861167 51.1708145,0.14282495 C52.3943539,0.146647887 52.8954371,0.646841046 52.9012708,1.85672435 C52.906951,3.0032998 52.9144733,4.15002817 52.9038806,5.29660362 C52.8937484,6.38675252 52.4027974,6.85942052 51.3057569,6.8880161 C50.2342004,6.916 49.1495949,6.86156137 48.0946183,7.01050302 C46.152307,7.28483702 44.779855,8.93665191 44.7737143,10.901336 C44.7600512,15.2585674 44.7694158,19.6157988 44.7678806,23.9728773 C44.76742,25.356169 44.3153092,25.8106398 42.937791,25.8109457 C37.3612452,25.8120161 31.7845458,25.8114044 26.208,25.8112515 L26.208,25.8112515 Z M50.1287335,2.86827364 C48.460145,2.86827364 46.8291684,2.85971026 45.1983454,2.86980282 C40.5461322,2.89870423 41.6689638,2.45921932 37.8721535,5.29522736 C36.4240171,6.37696579 34.8636588,6.91232998 33.0400171,6.90239034 C26.2089211,6.86523139 19.3775181,6.8941328 12.5462687,6.87547686 C11.9622857,6.87379477 11.6506439,7.00851509 11.3990277,7.5877666 C8.86659275,13.4200402 6.29562473,19.2357988 3.73632409,25.0566036 C3.63837953,25.2794044 3.54872495,25.5057223 3.45523241,25.7303581 C3.50082729,25.7968773 3.54642217,25.8632435 3.59217058,25.9296097 C3.98717271,25.7875493 4.54689979,25.764 4.75046482,25.4837022 C6.02451173,23.7289738 7.75496802,23.0781569 9.85970149,23.0813682 C20.2473518,23.0969658 30.6350021,23.0882495 41.0226525,23.0882495 L42.0292708,23.0882495 C42.0292708,22.6917344 42.0291173,22.4143421 42.0292708,22.1369497 C42.0297313,18.3906237 42.0126908,14.6442978 42.0360256,10.8981247 C42.0556759,7.77019718 44.2377825,5.06600402 47.299855,4.41212877 C48.2089893,4.21792354 49.1623369,4.2280161 50.1287335,4.14161771 L50.1287335,2.86827364 L50.1287335,2.86827364 Z" id="Fill-1" sketch:type="MSShapeGroup"></path>
            <path d="M38.0356503,33.9131268 L38.0356503,31.1872193 L42.7455864,31.1872193 L47.45629,31.1872193 L47.45629,30.25167 C47.45629,24.0615694 47.4559829,17.8714688 47.456597,11.6815211 C47.4567505,9.96318712 47.8112239,9.60750101 49.5017655,9.60811268 C53.2099957,9.60948893 56.9183795,9.62263984 60.6264563,9.59618511 C61.3948145,9.59068008 61.9110959,9.86669618 62.3751812,10.465674 C65.3417655,14.2947284 68.3439659,18.0964105 71.305177,21.9294406 C71.597322,22.3074527 71.8478635,22.8342535 71.8541578,23.2956056 C71.9011343,26.6830342 71.8813305,30.0713803 71.8794883,33.4594205 C71.8794883,33.5829779 71.8481706,33.7063823 71.8259104,33.8695453 L69.1864733,33.8695453 L69.1864733,33.0734567 C69.1864733,30.1184789 69.1996759,27.1633481 69.1698934,24.2086761 C69.166209,23.8375453 69.0237441,23.4015775 68.7977655,23.1088934 C66.1336119,19.6583099 63.4453561,16.2260765 60.7468145,12.8019477 C60.5788657,12.5887807 60.2745928,12.3500765 60.0315736,12.3477827 C56.7855864,12.3176579 53.5392921,12.3275976 50.1641962,12.3275976 L50.1641962,13.2414326 C50.1649638,19.5335292 50.1663454,25.8256258 50.1658849,32.1178753 C50.1657313,33.4681368 49.7269765,33.9117505 48.3906013,33.9125151 C44.966533,33.9143501 41.5424648,33.9131268 38.0356503,33.9131268" id="Fill-2" sketch:type="MSShapeGroup"></path>
            <path d="M58.9947122,28.5269135 C63.1438465,28.5295131 66.4389595,31.806994 66.4397271,35.9322495 C66.4403412,40.0383903 63.1096119,43.3672515 58.9968614,43.3707686 C54.9026866,43.3744386 51.5409467,40.0220282 51.539258,35.9340845 C51.5374158,31.8247324 54.8592409,28.5244668 58.9947122,28.5269135 L58.9947122,28.5269135 Z M54.2677356,35.9151227 C54.2615949,38.5387284 56.3337825,40.637674 58.9423625,40.6500604 C61.606823,40.6627525 63.724145,38.5852153 63.7361194,35.946165 C63.7480938,33.3303581 61.5868657,31.1707042 58.9741407,31.1876781 C56.376,31.204499 54.2737228,33.3161368 54.2677356,35.9151227 L54.2677356,35.9151227 Z" id="Fill-3" sketch:type="MSShapeGroup"></path>
            <path d="M29.1325203,28.527831 C33.2552495,28.5165151 36.6146866,31.8280966 36.6268145,35.9151227 C36.6387889,39.9727887 33.2518721,43.3579235 29.1675224,43.3709215 C25.0676674,43.3839195 21.7109936,40.0449658 21.7050064,35.948 C21.6991727,31.8160161 24.9792409,28.5391469 29.1325203,28.527831 L29.1325203,28.527831 Z M29.1292964,40.6500604 C31.7480085,40.6554125 33.8736205,38.5725231 33.8888188,35.9860765 C33.9043241,33.3549779 31.7823966,31.1992998 29.1653731,31.1873722 C26.5675394,31.1754447 24.3686994,33.3655292 24.3834371,35.9501408 C24.3981748,38.5243541 26.5394456,40.6448612 29.1292964,40.6500604 L29.1292964,40.6500604 Z" id="Fill-4" sketch:type="MSShapeGroup"></path>
            <path d="M5.41918977,35.8333119 C5.50362473,31.6829779 8.84771002,28.4477022 12.9661407,28.5318068 C17.1249467,28.6166761 20.4192921,31.9638873 20.3446823,36.0287404 C20.2697655,40.1087324 16.8238977,43.4492153 12.7716333,43.3706157 C8.64859701,43.2906398 5.33659701,39.8952596 5.41918977,35.8333119 L5.41918977,35.8333119 Z M12.8833945,40.6500604 C15.4867548,40.647002 17.6043838,38.5433159 17.6132878,35.9512113 C17.6221919,33.3354044 15.4600426,31.1731509 12.850081,31.1876781 C10.2674456,31.2020523 8.11113006,33.3465674 8.10360768,35.9077827 C8.09593177,38.5148732 10.2510192,40.6531187 12.8833945,40.6500604 L12.8833945,40.6500604 Z" id="Fill-5" sketch:type="MSShapeGroup"></path>
        </g>
    </g>
</svg>