<?xml version="1.0" encoding="UTF-8" standalone="no"?>
<svg width="87px" height="57px" viewBox="0 0 87 57" version="1.1" xmlns="http://www.w3.org/2000/svg" xmlns:xlink="http://www.w3.org/1999/xlink" xmlns:sketch="http://www.bohemiancoding.com/sketch/ns">
    <!-- Generator: Sketch 3.3.2 (12043) - http://www.bohemiancoding.com/sketch -->
    <title>Layer_2 Copy</title>
    <desc>Created with Sketch.</desc>
    <defs></defs>
    <g id="Page-1" stroke="none" stroke-width="1" fill="none" fill-rule="evenodd" sketch:type="MSPage">
        <g id="Layer_2-Copy" sketch:type="MSLayerGroup" fill="#000000">
            <g id="Group" sketch:type="MSShapeGroup">
                <path d="M0.676923077,0.95 C0.270769231,0.95 0,1.22142857 0,1.62857143 L0,40.4428571 C0,40.85 0.270769231,41.1214286 0.676923077,41.1214286 L38.0430769,41.1214286 C38.4492308,41.1214286 38.72,40.85 38.72,40.4428571 L38.72,39.3571429 C38.72,38.95 38.4492308,38.6785714 38.0430769,38.6785714 L2.97846154,38.6785714 C2.57230769,38.6785714 2.30153846,38.4071429 2.30153846,38 L2.30153846,4.88571429 C2.30153846,4.47857143 2.57230769,4.34285714 2.84307692,4.47857143 L31.1384615,20.7642857 C31.4092308,20.9 31.9507692,20.9 32.3569231,20.7642857 L60.6523077,4.34285714 C60.9230769,4.20714286 61.1938462,4.34285714 61.1938462,4.61428571 L61.1938462,23.2071429 C61.1938462,23.6142857 61.4646154,23.8857143 61.8707692,23.8857143 L62.8184615,23.8857143 C63.2246154,23.8857143 63.4953846,23.6142857 63.4953846,23.2071429 L63.4953846,1.62857143 C63.4953846,1.22142857 63.2246154,0.95 62.8184615,0.95 L0.676923077,0.95 L0.676923077,0.95 Z M32.3569231,18.1857143 C32.0861538,18.3214286 31.5446154,18.3214286 31.1384615,18.1857143 L6.09230769,3.52857143 C5.82153846,3.39285714 5.82153846,3.25714286 6.22769231,3.25714286 L57.4030769,3.25714286 C57.8092308,3.25714286 57.8092308,3.39285714 57.5384615,3.66428571 L32.3569231,18.1857143 L32.3569231,18.1857143 Z" id="Shape"></path>
                <path d="M81.3661538,43.8357143 C76.2215385,35.9642857 68.9107692,31.7571429 60.2461538,31.4857143 L60.2461538,22.9357143 C60.2461538,22.5285714 59.9753846,22.2571429 59.7046154,21.9857143 C59.4338462,21.7142857 58.8923077,21.85 58.6215385,22.1214286 L40.8861538,38 C40.6153846,38.1357143 40.6153846,38.4071429 40.6153846,38.6785714 C40.6153846,38.95 40.7507692,39.2214286 40.8861538,39.3571429 L58.6215385,55.7785714 C58.8923077,56.05 59.2984615,56.05 59.7046154,55.9142857 C60.1107692,55.7785714 60.2461538,55.3714286 60.2461538,54.9642857 L60.2461538,45.1928571 C70.9415385,45.1928571 79.0646154,46.2785714 84.8861538,56.4571429 C85.0215385,56.7285714 85.4276923,57 85.6984615,57 L86.1046154,57 C86.5107692,56.8642857 86.7815385,56.3214286 86.7815385,55.9142857 C86.5107692,55.9142857 85.2923077,49.8071429 81.3661538,43.8357143 L81.3661538,43.8357143 Z M59.2984615,43.4285714 C58.7569231,43.4285714 58.3507692,43.8357143 58.3507692,44.3785714 L58.3507692,52.9285714 L43.0523077,38.8142857 L58.2153846,25.1071429 L58.2153846,32.4357143 C58.2153846,32.9785714 58.6215385,33.3857143 59.1630769,33.3857143 C67.6923077,33.3857143 74.5969231,37.1857143 79.6061538,44.7857143 C80.96,46.8214286 81.9076923,48.8571429 82.72,50.6214286 C76.6276923,44.1071429 68.64,43.4285714 59.2984615,43.4285714 L59.2984615,43.4285714 Z" id="Shape"></path>
            </g>
        </g>
    </g>
</svg>