<?xml version="1.0" encoding="UTF-8" standalone="no"?>
<svg width="75px" height="66px" viewBox="0 0 75 66" version="1.1" xmlns="http://www.w3.org/2000/svg" xmlns:xlink="http://www.w3.org/1999/xlink" xmlns:sketch="http://www.bohemiancoding.com/sketch/ns">
    <!-- Generator: Sketch 3.3.2 (12043) - http://www.bohemiancoding.com/sketch -->
    <title>Slice 1</title>
    <desc>Created with Sketch.</desc>
    <defs></defs>
    <g id="Page-1" stroke="none" stroke-width="1" fill="none" fill-rule="evenodd" sketch:type="MSPage">
        <g id="Imported-Layers-Copy" sketch:type="MSLayerGroup" transform="translate(37.500000, 33.500000) scale(-1, 1) translate(-37.500000, -33.500000) translate(0.000000, 17.000000)" fill="#000000">
            <path d="M49.244086,2.59076877 C42.0767722,2.46738774 35.0936458,3.25739123 28.3925136,5.92319687 C25.0878801,7.23774077 21.9882294,8.91148084 19.1193843,11.0208175 C18.6561734,11.3613127 18.0368831,11.5608661 17.4605547,11.6662303 C13.957794,12.3061696 10.5647231,13.2583245 7.49455151,15.1170221 C3.9691673,17.2514455 2.01371824,20.1922927 2.74087015,24.4994538 C3.00389713,26.0587072 3.48927446,26.5875808 5.07886236,26.7946602 C5.45409286,26.8436933 5.87525596,26.8338867 6.18284442,27.0108621 C6.41616375,27.14519 6.62206063,27.5365428 6.61474797,27.8072513 C6.60926348,27.9999629 6.25597094,28.2921091 6.01168264,28.3523172 C3.91180868,28.8704719 1.63528846,27.3290073 1.23971964,25.1585502 C0.438527122,20.7613051 1.81741922,17.2165521 5.45706363,14.601376 C8.93263039,12.1043356 12.9285381,10.929365 17.0745837,10.1496243 C17.5412224,10.0618208 18.0368831,9.8866699 18.4155414,9.61048796 C24.9459689,4.84652064 32.3034117,2.22632721 40.2975123,1.49493541 C47.5210422,0.834014483 54.7464002,1.19777186 61.9415935,2.12712065 C63.7517036,2.36088323 65.2704502,2.99534908 66.3902001,4.5381821 C67.6831685,6.3200231 69.099538,8.01246417 70.4532928,9.75074551 C71.7001001,11.351506 72.4352503,13.1356277 72.5140898,15.1938787 C72.5305433,15.6253702 72.8321902,16.106807 73.1301808,16.4564246 C74.8817897,18.5103425 75.2833,22.1294433 73.97205,24.5008221 C73.8440785,24.732076 73.7222772,25.0486248 73.5163803,25.1373405 C73.1530328,25.2937904 72.7270708,25.3049654 72.3273886,25.3770327 C72.3070503,25.0034687 72.1301755,24.5332068 72.292425,24.2729891 C73.1729141,22.8606071 73.3925222,21.3282648 72.9873556,19.7858879 C72.7483232,18.8770646 72.1114369,18.0717811 71.6495971,17.2220256 C71.423819,16.8062703 70.9738623,16.3845854 70.9937436,15.9838821 C71.1283421,13.2555878 69.6756379,11.2151255 68.1568913,9.20750408 C67.217444,7.96571165 66.1356284,6.82973955 65.2149197,5.57540376 C64.3616245,4.41252046 63.2564999,3.82070203 61.8586406,3.69709294 C57.6540938,3.32558148 53.4488614,2.95908737 49.244086,2.59076877" id="Fill-1" sketch:type="MSShapeGroup"></path>
            <path d="M46.7340179,4.46155358 C49.9413017,4.92657007 52.8058049,5.28371368 55.6472276,5.77381688 C57.6216439,6.11431203 59.2681333,7.20375968 60.6008643,8.6476142 C61.0704737,9.15619035 61.4957502,10.1667289 61.2930526,10.7047249 C61.084642,11.2575449 60.1113736,11.7843659 59.4260409,11.8525562 C56.1326049,12.1802799 52.8213443,12.3230461 49.5201386,12.5791587 C41.9691391,13.1650475 34.4201962,13.7771634 26.8710248,14.3838058 C26.0771449,14.4476629 25.2857787,14.6212173 24.4944126,14.6148316 C23.2060146,14.6043408 22.549704,13.611363 23.2421208,12.5362832 C23.8630107,11.5727253 24.700081,10.6568321 25.6402139,10.0059458 C29.1799949,7.55542982 33.2462869,6.34807461 37.420212,5.60277109 C40.5897899,5.03672356 43.8196973,4.80683802 46.7340179,4.46155358 L46.7340179,4.46155358 Z M24.8390214,12.6437 C24.9057493,12.7791682 24.9724773,12.9148646 25.0394337,13.0503328 C26.0426383,12.9160049 27.041958,12.7342402 28.0495045,12.655103 C33.3575763,12.2382074 38.6667908,11.8347674 43.9778334,11.4614315 C44.7104698,11.4098897 44.9776101,11.1211644 44.9828661,10.4210169 C44.9910928,9.3584805 45.0109741,8.2927512 45.1046675,7.2352321 C45.1821359,6.36016184 44.7721703,6.18843187 44.0253656,6.27395477 C42.8171783,6.41238783 41.5973364,6.46575411 40.3962331,6.64637847 C35.8610173,7.3289652 31.4318349,8.3864843 27.4208448,10.7158999 C26.4978509,11.2518434 25.6962014,11.9955505 24.8390214,12.6437 L24.8390214,12.6437 Z M46.6638622,11.1977929 C51.0208321,10.8903666 55.3581493,10.5840806 59.9952853,10.256813 C58.5220142,8.67840244 57.1191275,7.60948029 55.3512937,7.31824633 C52.7347351,6.88698288 50.0873263,6.63702796 47.4474586,6.36426694 C47.2072837,6.33963635 46.7081951,6.69883251 46.6988258,6.89724562 C46.6327834,8.28613743 46.6638622,9.67981852 46.6638622,11.1977929 L46.6638622,11.1977929 Z" id="Fill-2" sketch:type="MSShapeGroup"></path>
            <path d="M14.9276346,32.6720216 C11.5133113,32.6749864 8.78203545,30.01397 8.75849785,26.6619287 C8.73381764,23.1475079 11.4342432,20.3927584 14.9086674,20.3877411 C18.3360163,20.3829518 21.071634,23.1060007 21.077347,26.5280568 C21.0830601,29.9699542 18.3812634,32.6692849 14.9276346,32.6720216 L14.9276346,32.6720216 Z M14.9737957,31.1193819 C17.5023739,31.1013651 19.5279787,29.0597626 19.5208946,26.5364951 C19.513582,23.966247 17.4223918,21.9018384 14.8586214,21.9337669 C12.3519811,21.9647832 10.2971257,24.0431036 10.3046669,26.5390038 C10.3128936,29.117462 12.372548,31.1380829 14.9737957,31.1193819 L14.9737957,31.1193819 Z" id="Fill-3" sketch:type="MSShapeGroup"></path>
            <path d="M63.733879,32.6695129 C60.2871058,32.6558293 57.6102178,29.9389379 57.6367262,26.4810763 C57.6632346,23.0469329 60.3890259,20.3751977 63.8490533,20.3918462 C67.2553784,20.4084946 69.9983087,23.189243 69.968144,26.5953348 C69.9379793,30.0157945 67.2003049,32.6831966 63.733879,32.6695129 L63.733879,32.6695129 Z M63.7960365,31.1248554 C66.3922568,31.1031896 68.449626,29.0317111 68.4112345,26.4778834 C68.3735287,23.9682996 66.3138743,21.945398 63.7878098,21.9367317 C61.2292954,21.9280654 59.1678129,24.0175608 59.1881512,26.5987558 C59.2080325,29.1113044 61.2793414,31.145837 63.7960365,31.1248554 L63.7960365,31.1248554 Z" id="Fill-4" sketch:type="MSShapeGroup"></path>
            <path d="M39.4405608,28.1748857 C34.5346849,28.1748857 29.6285804,28.1748857 24.7227045,28.1744296 C24.4185438,28.1744296 24.0764488,28.2565316 23.8191348,28.1454658 C23.4555589,27.9883318 23.1545975,27.686835 22.8268992,27.4469148 C23.1689943,27.1718732 23.4841239,26.7141547 23.8584403,26.6591919 C24.6749437,26.5396879 25.5218403,26.6249828 26.3561683,26.6263511 C34.5710196,26.6418593 42.785871,26.6601042 51.0007223,26.6701389 C52.2927766,26.6717353 53.5889444,26.5741252 54.8750572,26.6525782 C55.2905073,26.6778929 55.9758399,27.0731228 56.0247433,27.380321 C56.1545429,28.1976918 55.4120801,28.1707806 54.8419217,28.1714648 C49.7082109,28.1776224 44.5742716,28.1751138 39.4405608,28.1748857" id="Fill-5" sketch:type="MSShapeGroup"></path>
        </g>
    </g>
</svg>