<?xml version="1.0" encoding="UTF-8" standalone="no"?>
<svg width="75px" height="96px" viewBox="0 0 75 96" version="1.1" xmlns="http://www.w3.org/2000/svg" xmlns:xlink="http://www.w3.org/1999/xlink" xmlns:sketch="http://www.bohemiancoding.com/sketch/ns">
    <!-- Generator: Sketch 3.3.2 (12043) - http://www.bohemiancoding.com/sketch -->
    <title>Slice 1 Copy</title>
    <desc>Created with Sketch.</desc>
    <defs></defs>
    <g id="Page-1" stroke="none" stroke-width="1" fill="none" fill-rule="evenodd" sketch:type="MSPage">
        <path d="M73.4089906,71.712 C71.1329906,64.931 61.7969906,60.832 56.7819906,58.629 C56.3159906,58.425 55.6859906,58.192 54.9699906,57.927 C52.4939906,57.012 48.3509906,55.481 47.8549906,53.601 C47.1039906,50.742 48.9649906,48.324 50.9339906,45.765 C51.7279906,44.733 52.5489906,43.667 53.1569906,42.587 C55.5119906,38.395 57.1879906,33.187 57.5269906,28.997 C58.1329906,21.506 56.3289906,15.243 52.3079906,10.884 C48.7589906,7.035 43.7669906,5 37.8729906,5 C36.8719906,5 35.8389906,5.061 34.8009906,5.18 C24.9259906,6.317 18.3549906,13.502 17.6549906,23.932 C17.1149906,31.99 19.3699906,39.368 24.5489906,46.485 C24.8779906,46.937 25.2089906,47.357 25.5279906,47.761 C26.7929906,49.364 27.7069906,50.523 27.5259906,52.392 C27.3009906,54.725 24.9669906,55.612 22.7089906,56.469 C22.3939906,56.588 22.0859906,56.705 21.7909906,56.824 C19.0259906,57.933 16.0539906,59.581 14.4579906,60.466 L14.0679906,60.683 C8.71399057,63.642 2.88899057,67.217 1.53499057,72.209 C0.592990574,75.686 0.895990574,78.691 2.43599057,81.139 C5.32599057,85.732 12.0169906,87.439 16.7989906,88.324 C23.5899906,89.579 31.0929906,89.684 37.5929906,89.684 C52.5509906,89.684 70.1379906,88.601 73.3969906,80.155 C74.3769906,77.612 74.0259906,73.548 73.4089906,71.712 L73.4089906,71.712 Z M71.7669906,79.525 C68.5219906,87.938 46.0509906,87.938 37.5919906,87.938 C31.1699906,87.938 23.7609906,87.835 17.1159906,86.607 C12.6569906,85.782 6.43799057,84.222 3.91299057,80.209 C2.62599057,78.162 2.39899057,75.695 3.21999057,72.667 C4.39499057,68.333 9.87199057,64.998 14.9119906,62.21 L15.3049906,61.993 C16.8679906,61.127 19.7769906,59.514 22.4419906,58.444 C22.7269906,58.33 23.0249906,58.216 23.3299906,58.101 C25.6959906,57.203 28.9359906,55.973 29.2659906,52.559 C29.5129906,49.992 28.2439906,48.382 26.8999906,46.679 C26.5939906,46.292 26.2759906,45.89 25.9619906,45.458 C21.0339906,38.685 18.8869906,31.682 19.3979906,24.049 C20.0379906,14.515 26.0169906,7.95 34.9999906,6.916 C35.9719906,6.804 36.9389906,6.747 37.8729906,6.747 C43.2659906,6.747 47.8149906,8.587 51.0249906,12.069 C54.7059906,16.059 56.3519906,21.865 55.7859906,28.856 C55.4709906,32.752 53.8409906,37.806 51.6339906,41.732 C51.0889906,42.702 50.3409906,43.672 49.5499906,44.7 C47.5089906,47.351 45.1969906,50.356 46.1659906,54.045 C46.8929906,56.805 51.2109906,58.4 54.3649906,59.565 C55.0429906,59.815 55.6389906,60.035 56.0799906,60.229 C60.8479906,62.321 69.7229906,66.219 71.7529906,72.268 C72.2109906,73.629 72.6189906,77.319 71.7669906,79.525 L71.7669906,79.525 Z" id="Imported-Layers" fill="#000000" sketch:type="MSShapeGroup"></path>
    </g>
</svg>