<?xml version="1.0" encoding="UTF-8" standalone="no"?>
<svg width="75px" height="66px" viewBox="0 0 75 66" version="1.1" xmlns="http://www.w3.org/2000/svg" xmlns:xlink="http://www.w3.org/1999/xlink" xmlns:sketch="http://www.bohemiancoding.com/sketch/ns">
    <!-- Generator: Sketch 3.3.2 (12043) - http://www.bohemiancoding.com/sketch -->
    <title>Slice 1</title>
    <desc>Created with Sketch.</desc>
    <defs></defs>
    <g id="Page-1" stroke="none" stroke-width="1" fill="none" fill-rule="evenodd" sketch:type="MSPage">
        <path d="M60.3707945,50.3840706 L39.0496712,61.2683529 C37.6885753,61.9394118 36.1011233,61.9394118 34.8154795,61.2683529 L13.4950959,50.3840706 C11.9069041,49.5634824 11,47.9981647 11,46.2833176 L11,6.62155294 C11,4.08684706 13.1170959,2 15.6876438,2 L58.2536986,2 C60.8242466,2 62.9413425,4.08684706 62.9413425,6.62155294 L62.9413425,46.2833176 C62.8658904,48.0725647 61.8827945,49.6378824 60.3707945,50.3840706 L60.3707945,50.3840706 Z M54.1711507,14.2264 C53.4906027,13.5553412 52.4320548,13.5553412 51.7515068,14.2264 L29.5234795,36.0700941 L22.1136438,28.7635765 C21.4338356,28.0925176 20.3752877,28.0925176 19.6947397,28.7635765 C19.0141918,29.4346353 19.0141918,30.4784235 19.6947397,31.1494824 L28.2378356,39.5734588 C28.2378356,39.5734588 28.2378356,39.5734588 28.3140274,39.6485882 C28.6158356,39.9461882 29.0700274,40.1701176 29.5234795,40.1701176 C29.9769315,40.1701176 30.4303836,40.0213176 30.7329315,39.6485882 C30.7329315,39.6485882 30.7329315,39.6485882 30.8083836,39.5734588 L54.1711507,16.5371765 C54.8516986,15.9405176 54.8516986,14.8967294 54.1711507,14.2264 L54.1711507,14.2264 Z" id="Imported-Layers" stroke="#000000" stroke-width="2" sketch:type="MSShapeGroup"></path>
    </g>
</svg>