<?xml version="1.0" encoding="UTF-8" standalone="no"?>
<svg width="75px" height="96px" viewBox="0 0 75 96" version="1.1" xmlns="http://www.w3.org/2000/svg" xmlns:xlink="http://www.w3.org/1999/xlink" xmlns:sketch="http://www.bohemiancoding.com/sketch/ns">
    <!-- Generator: Sketch 3.3.2 (12043) - http://www.bohemiancoding.com/sketch -->
    <title>Slice 1 Copy</title>
    <desc>Created with Sketch.</desc>
    <defs></defs>
    <g id="Page-1" stroke="none" stroke-width="1" fill="none" fill-rule="evenodd" sketch:type="MSPage">
        <path d="M37.159,15.0344172 C27.305,15.0344172 19.291,23.0504172 19.291,32.9024172 C19.291,42.7544172 27.305,50.7694172 37.159,50.7694172 C47.012,50.7694172 55.028,42.7544172 55.028,32.9024172 C55.028,23.0504172 47.013,15.0344172 37.159,15.0344172 L37.159,15.0344172 Z M34.688,42.3474172 L26.312,33.9724172 L29.807,30.4814172 L34.688,35.3634172 L46.593,23.4604172 L50.083,26.9524172 L34.688,42.3474172 L34.688,42.3474172 Z M61.946,29.5334172 C61.406,24.1094172 63.899,22.5774172 61.856,18.5034172 C59.814,14.4304172 56.226,15.9384172 52.305,12.9924172 C48.382,10.0494172 49.671,6.45041717 44.442,5.25741717 C39.211,4.06541717 39.086,7.35741717 33.79,8.11641717 C28.495,8.87541717 27.018,5.47141717 22.762,8.20541717 C18.506,10.9394172 21.341,12.2904172 17.25,17.7584172 C13.159,23.2264172 10.925,20.2634172 9.513,25.6184172 C8.103,30.9754172 11.96,31.0664172 12.371,36.2704172 C12.786,41.4764172 9.564,42.2614172 12.461,47.3004172 C15.357,52.3384172 17.756,49.0404172 22.014,52.8114172 C26.272,56.5844172 23.009,58.5544172 29.875,60.5484172 C36.74,62.5424172 34.797,58.7024172 40.529,57.6914172 C46.26,56.6774172 46.472,60.6714172 51.558,57.6024172 C56.641,54.5314172 54.079,52.1424172 57.069,48.0474172 C60.058,43.9534172 63.3,45.8874172 64.804,40.1874172 C66.307,34.4834172 62.486,34.9564172 61.946,29.5334172 L61.946,29.5334172 Z M16.311,61.1264172 L7,81.8274172 L20.704,75.3554172 L25.078,90.0384172 L34.589,68.2644172 C27.615,67.3624172 22.494,65.8774172 16.311,61.1264172 L16.311,61.1264172 Z M60.32,60.1674172 C54.256,64.7324172 49.333,66.8044172 41.874,67.7694172 L51.55,90.0384172 L55.928,75.3554172 L69.632,81.8274172 L60.32,60.1674172 L60.32,60.1674172 Z" id="Imported-Layers" stroke="#000000" stroke-width="2" sketch:type="MSShapeGroup"></path>
    </g>
</svg>