<?xml version="1.0" encoding="UTF-8" standalone="no"?>
<svg width="75px" height="96px" viewBox="0 0 75 96" version="1.1" xmlns="http://www.w3.org/2000/svg" xmlns:xlink="http://www.w3.org/1999/xlink" xmlns:sketch="http://www.bohemiancoding.com/sketch/ns">
    <!-- Generator: Sketch 3.3.2 (12043) - http://www.bohemiancoding.com/sketch -->
    <title>Slice 1 Copy</title>
    <desc>Created with Sketch.</desc>
    <defs></defs>
    <g id="Page-1" stroke="none" stroke-width="1" fill="none" fill-rule="evenodd" sketch:type="MSPage">
        <path d="M61,37 C61,49.7024818 50.7029762,60 38,60 C25.2981052,60 15,49.7018948 15,37 C15,24.2981052 25.2981052,14 38,14 C50.7029762,14 61,24.2975182 61,37 L61,37 Z M63,37 C63,23.1929702 51.8075672,12 38,12 C24.1935357,12 13,23.1935357 13,37 C13,50.8064643 24.1935357,62 38,62 C51.8075672,62 63,50.8070298 63,37 L63,37 Z M51,37 C51,44.1795721 45.1800453,50 38,50 C30.8210153,50 25,44.1789847 25,37 C25,29.8210153 30.8210153,24 38,24 C45.1800453,24 51,29.8204279 51,37 L51,37 Z M53,37 C53,28.7158948 46.2846512,22 38,22 C29.7164458,22 23,28.7164458 23,37 C23,45.2835542 29.7164458,52 38,52 C46.2846512,52 53,45.2841052 53,37 L53,37 Z M19.1055728,52.5527864 L8.10557281,74.5527864 L7.38196601,76 L9,76 L20,76 L19.1258427,75.4856429 L24.1258427,84.4856429 L25.0080371,86.0735927 L25.8778956,84.4788521 L37.8778956,62.4788521 L38.3627456,61.5899604 L37.4678877,61.1162121 L20.4678877,52.1162121 L19.5633076,51.6373167 L19.1055728,52.5527864 L19.1055728,52.5527864 Z M20.8944272,53.4472136 L19.5321123,53.8837879 L36.5321123,62.8837879 L36.1221044,61.5211479 L24.1221044,83.5211479 L25.8741573,83.5143571 L20.8741573,74.5143571 L20.5884033,74 L20,74 L9,74 L9.89442719,75.4472136 L20.8944272,53.4472136 L20.8944272,53.4472136 Z M40.1055728,61.4472136 L51.1055728,83.4472136 L51.85642,84.948908 L52.8192319,83.5734623 L59.8192319,73.5734623 L58.9004963,73.9950372 L68.9004963,74.9950372 L70.7846048,75.183448 L69.8778956,73.5211479 L57.8778956,51.5211479 L57.3927568,50.6317268 L56.5097388,51.1284245 L40.5097388,60.1284245 L39.6796427,60.5953535 L40.1055728,61.4472136 L40.1055728,61.4472136 Z M41.8944272,60.5527864 L41.4902612,61.8715755 L57.4902612,52.8715755 L56.1221044,52.4788521 L68.1221044,74.4788521 L69.0995037,73.0049628 L59.0995037,72.0049628 L58.5166689,71.9466793 L58.1807681,72.4265377 L51.1807681,82.4265377 L52.8944272,82.5527864 L41.8944272,60.5527864 L41.8944272,60.5527864 Z" id="Shape" fill="#000000" sketch:type="MSShapeGroup"></path>
    </g>
</svg>