<?xml version="1.0" encoding="UTF-8" standalone="no"?>
<svg width="75px" height="66px" viewBox="0 0 75 66" version="1.1" xmlns="http://www.w3.org/2000/svg" xmlns:xlink="http://www.w3.org/1999/xlink" xmlns:sketch="http://www.bohemiancoding.com/sketch/ns">
    <!-- Generator: Sketch 3.3.2 (12043) - http://www.bohemiancoding.com/sketch -->
    <title>Slice 1</title>
    <desc>Created with Sketch.</desc>
    <defs></defs>
    <g id="Page-1" stroke="none" stroke-width="1" fill="none" fill-rule="evenodd" sketch:type="MSPage">
        <g id="Indian_Rupee_symbol" sketch:type="MSLayerGroup" transform="translate(17.000000, 1.000000)" fill="#010101">
            <path d="M28.5437018,6.05377291 L38.8614386,6.05377291 L42.8129123,0.125498008 L4.07720468,0.125498008 L0.125730994,6.05377291 L6.8495731,6.05377291 C13.6606725,6.05377291 19.9467193,6.57885657 22.4605848,12.2641673 L4.07720468,12.2641673 L0.125730994,18.1926932 L23.2021462,18.1926932 C23.2016433,18.205996 23.2016433,18.2182948 23.2016433,18.2315976 C23.2016433,22.492004 19.6545205,29.0269363 7.94167251,29.0269363 L2.27447368,29.0204104 L2.28076023,34.5593904 L24.9774678,62.874502 L35.0849825,62.874502 L11.5934035,33.581008 C21.2636257,33.0604422 30.3331053,27.6667888 31.6404561,18.1926932 L38.8614386,18.1926932 L42.8129123,12.2641673 L31.5373567,12.2641673 C31.0822105,9.97985259 30.093462,7.77033466 28.5437018,6.05377291 L28.5437018,6.05377291 Z" id="Shape" sketch:type="MSShapeGroup"></path>
        </g>
    </g>
</svg>