<?xml version="1.0" standalone="no"?>
<!DOCTYPE svg PUBLIC "-//W3C//DTD SVG 1.1//EN" "http://www.w3.org/Graphics/SVG/1.1/DTD/svg11.dtd" >
<!--
2015-12-28: Created with FontForge (http://fontforge.org)
-->
<svg xmlns="http://www.w3.org/2000/svg" xmlns:xlink="http://www.w3.org/1999/xlink" version="1.1">
<metadata>
Created by FontForge 20150828 at Mon Dec 28 12:40:26 2015
 By Quikr
Copyright (c) 2015, Quikr
</metadata>
<defs>
<font id="quikr-icons" horiz-adv-x="512" >
  <font-face 
    font-family="quikr-icons"
    font-weight="400"
    font-stretch="normal"
    units-per-em="512"
    panose-1="2 0 5 3 0 0 0 0 0 0"
    ascent="448"
    descent="-64"
    bbox="-7.31152 -69.7676 634.88 464.352"
    underline-thickness="25.6"
    underline-position="-51.2"
    unicode-range="U+0020-F152"
  />
    <missing-glyph />
    <glyph glyph-name="space" unicode=" " horiz-adv-x="200" 
 />
    <glyph glyph-name="uniF132" unicode="&#xf132;" 
d="M268.729 224.951c-4.83203 5.31348 -6.02637 7.95605 -7.34766 16.8672c6.55762 15.582 9.68359 16.4551 18.7607 20.4883c6.4668 2.91113 12.9502 1.30469 19.5674 -6.54785c13.1934 -16.7529 26.5791 -33.2266 39.2842 -50.001
c39.0244 -50.3223 78.2588 -99.7441 114.514 -151.827c4.40234 -6.21484 11.9492 -17.959 13.7822 -20.877c-10.4453 8.63672 -17.8389 14.916 -26.3359 22.7324c-30.1357 28.6094 -60.2881 57.2236 -89.4639 86.3994c-28.0928 27.5791 -55.082 55.082 -82.7607 82.7656z
M248.921 251.81l-0.113281 -0.269531l-0.0927734 -0.27832c-1.25391 -3.75586 -1.8291 -7.22168 -2.21387 -8.75098l-0.28418 -1.13281l0.0654297 -1.16602c0.625 -11.1846 5.38477 -19.3271 11.2061 -25.7295l0.12207 -0.133789l0.128906 -0.128906
c27.6113 -27.6162 54.7637 -55.2842 82.9902 -82.9951c29.1943 -29.1943 59.4629 -57.9199 89.7363 -86.6611c13.1338 -12.082 26.9873 -23.3574 40.8428 -34.6475c-3.80176 3.42969 -4.19727 4.13281 -0.572266 0.516602c3.78223 -3.77344 7.6709 -4.86523 9.1543 -5.75391
l29.0771 -17.4355l-15.1816 30.5127c-0.816406 1.64062 -1.8418 4.20508 -3.08008 6.67578l-0.162109 0.322266l-0.191406 0.305664c-7.62891 12.21 -15.3838 25.1465 -24.3105 37.749c-36.4453 52.3574 -76.0605 102.266 -114.856 152.293
c-12.8945 17.0264 -26.1396 33.3125 -39.5654 50.3604c-9.77246 11.5967 -23.7695 17.1602 -37.7832 10.8516c-10.5029 -4.66797 -19.9395 -12.6797 -24.916 -24.5039zM122.747 380.741c-8.78906 -3.84668 -16.4492 -8.47559 -24.2949 -12.4033l-30.0781 -15.0576h33.001
c6.64941 0 11.877 0.46875 16.8311 0.0205078c15.4316 -0.935547 24.8506 -5.49414 30.3008 -19.7363c5.95801 -14.6318 13.2666 -27.665 22.4365 -40.6182c6.55469 -8.7373 14.6914 -17.792 27.2236 -22.1797c13.5977 -4.89258 28.9814 -6.91699 43.9111 -0.34375
c9.7002 3.87695 16.9922 12.543 16.9922 24.4873c-0.320312 -5.11035 -0.698242 -6.03711 -0.0605469 -0.957031c0.683594 5.44043 0.0292969 10.7305 -1.20996 15.7041c-6.08301 22.1074 -17.5459 39.998 -33.1885 56.1777
c-16.2734 16.2734 -35.6348 24.2148 -57.8828 25.3281c-16.0596 0.571289 -30.7686 -4.07812 -43.9814 -10.4219zM130.019 367.203c14.623 6.68164 23.5205 9.05957 36.0527 8.61328c18.7119 -0.936523 34.1709 -7.33496 47.5869 -20.751
c14.0586 -14.541 24.0947 -30.4502 29.2822 -49.3027c0.800781 -3.21582 1.17578 -7.13574 0.829102 -9.89551l-0.0595703 -0.476562v-0.480469c0 -5.45605 -1.91797 -8.06055 -7.57812 -10.3232c-10.6699 -4.69629 -20.8867 -3.6416 -32.8887 0.676758
c-7.94727 2.78223 -14.1514 9.08789 -19.8867 16.7305c-8.23047 11.627 -15.2607 24.1934 -20.5625 37.2119c-6.59375 17.2314 -22.3008 25.7314 -32.7754 27.9971zM188.812 126.182c1.85156 -1.32227 3.5791 -3.84668 5.42773 -7.54785
c7.36035 -17.3174 2.62207 -41.3965 -3.43457 -61.0801c-4.27246 -13.8877 -7.54688 -33.9395 5.0332 -49.1689c7.33691 -8.67383 17.7568 -12.666 27.002 -14.3984l0.188477 -0.0351562l0.189453 -0.0253906c25.0469 -3.41309 51.4404 5.39355 73.042 12.0781
c28.9434 9.82324 53.6494 18.9492 82.2842 41.748l-9.56738 12.0166c-26.666 -21.2314 -49.0596 -29.5156 -77.4561 -39.1523c-21.4082 -6.625 -46.2148 -14.1982 -66.2285 -11.4717c5.05469 -0.817383 5.41016 -1.00391 0.37793 -0.0605469
c-7.13477 1.33691 -14.125 4.51562 -18.0479 9.15137c-6.87988 8.33105 -6.05371 22.0693 -2.13672 34.8008c6.2334 20.2568 12.8467 48.1807 2.79785 71.8232l-0.0917969 0.216797l-0.105469 0.209961c-2.24219 4.48926 -5.2793 9.77637 -10.5977 13.5742l-0.25 0.178711
l-0.263672 0.157227c-7.26855 4.3584 -16.0352 4.86914 -23.2998 2.88965c-7.34961 -1.83594 -13.6279 -5.65332 -18.6035 -9.52734c-24.1943 -18.2812 -41.3994 -43.0908 -62.8193 -59.2764c-10.5215 -7.3623 -21.1152 -14.7617 -29.9102 -14.4121
c-5.69141 0.354492 -12.1416 3.58105 -17.0947 8.11914c-9.44336 9.44336 -13.4238 24.6523 -12.4922 39.541c2.39844 42.2168 30.2734 85.9141 60.6953 115.834c23.5635 23.0537 33.21 32.0107 63.1035 44.4668l-5.90723 14.1777
c-31.5469 -13.1436 -44.4297 -24.666 -67.9668 -47.6934c-32.0479 -31.5195 -62.5332 -77.9326 -65.2549 -125.826c-1.11816 -17.8809 3.0918 -37.4912 17.1982 -51.5986c7.33691 -6.72168 16.2471 -11.6953 26.9355 -12.3613
c16.8047 -0.668945 29.7715 10.3604 39.7295 17.3291c24.6602 18.6338 41.2451 42.9746 63.1309 59.5127c4.23438 3.2959 8.19629 5.61816 13.1357 6.85254c4.00586 1.09082 8.28516 0.739258 11.2568 -1.04199zM431.364 143.804l14.8418 -3.95703
c8.2959 31.1182 14.6582 68.3828 -9.70801 106.036c-25.418 38.6836 -74.916 58.0391 -117.535 63.3008c-11.4492 1.63477 -28.085 2.11133 -29.1729 2.11133v-15.3604s17.0537 -0.536133 27.1465 -1.97754c40.3311 -4.97949 85.0439 -23.5137 106.725 -56.5098
c20.6943 -31.9775 15.7871 -63.3213 7.70312 -93.6436z" />
    <glyph glyph-name="uniF13E" unicode="&#xf13e;" 
d="M15.0049 -63.1875c-9.08887 2.44824 -15.0049 11.4727 -15.0049 25.4365v460.925c0 12.9326 5.00879 21.6553 12.9492 24.8262v0l226.509 -256.867l-224.453 -254.32v0zM46.1855 -53.4033v0l206.238 229.833l66.4062 -75.3076zM320.707 283.193v0l-67.8906 -76.9238
l-200.954 229.332zM338.948 272.854l105.318 -59.7051c19.9414 -11.3047 20.123 -29.5273 0 -40.9326l-107.982 -61.2012l-70.4326 80.3789l73.0967 81.46v0z" />
    <glyph glyph-name="uniF120" unicode="&#xf120;" 
d="M-3.31152 176l259.312 259.312l259.312 -259.312h-99.3115v-240h-112v128h-112v-128h-112v240h-83.3115zM400 192h76.6885l-220.688 220.688l-220.688 -220.688h60.6885v-240h80v128h144v-128h80v240z" />
    <glyph glyph-name="uniF106" unicode="&#xf106;" 
d="M0 352h16v80h80v16h-96v-96zM96 -64v16h-80v80h-16v-96h96zM512 32h-16v-80h-80v-16h96v96zM416 448v-16h80v-80h16v96h-96zM21.6572 437.657l-11.3145 -11.3145l160 -160l11.3145 11.3145zM341.657 117.657l-11.3145 -11.3145l160 -160l11.3145 11.3145z
M10.3428 -42.3428l11.3145 -11.3145l160 160l-11.3145 11.3145zM330.343 277.657l11.3145 -11.3145l160 160l-11.3145 11.3145z" />
    <glyph glyph-name="uniF108" unicode="&#xf108;" 
d="M301.657 322.343l-11.3145 11.3145l-141.656 -141.657l141.656 -141.657l11.3145 11.3145l-130.344 130.343z" />
    <glyph glyph-name="uniF13D" unicode="&#xf13d;" 
d="M361.256 37.1631c-22.4727 21.3535 -52.1162 26.7363 -69.1582 28.334c-26.1709 2.80566 -32.1797 15.4277 -32.1797 15.4277l-0.130859 0.206055l-0.143555 0.196289c-11.8467 16.2344 -9.81543 38.8604 -9.81543 38.8604l0.0273438 0.320312v0.322266
c0 3.32324 3.5332 8.54297 7.5293 10.541l0.458984 0.229492l0.424805 0.289062c15.7793 10.7305 21.0107 29.7822 26.3672 42.9229c5.3252 13.3145 8.71973 22.9805 15.3564 28.8398l0.297852 0.262695l0.268555 0.291992c33.3281 36.1816 23.0088 58.2031 11.6035 67.2734
c3.75 13.043 6.22363 22.2363 7.29395 33.459c1.0918 11.5156 0.93457 29.127 -0.114258 32.2773c-2.81445 25.7207 -12.459 35.9248 -24.1484 50.6611c-6.53418 7.54102 -15.2822 17.54 -26.6406 15.4717c-4.47266 -0.688477 -9.99512 0.407227 -15.1162 2.54297
c-4.0625 1.8457 -8.63477 5.59863 -11.2832 10.1377l-0.222656 0.381836l-0.265625 0.354492c-5.22754 6.97363 -14.1768 9.97266 -23.9043 11.6875c-12.3945 1.68945 -25.0264 1.62598 -35.0605 1.62598c-24.1318 -0.53418 -44.9277 -5.28516 -62.4971 -16.6172
c-15.4961 -10.3291 -26.7197 -25.7764 -33.7939 -47.0039c-5.38281 -16.1494 -8.58398 -33.5742 -8.58398 -51.1963c0.533203 -16.0615 3.26367 -31.6035 8.60352 -44.501c-14.8916 -11.6729 -21.2695 -34.2803 13.4814 -70.75l0.391602 -0.410156l0.429688 -0.40332
c6.89648 -6.46777 10.3906 -13.6025 14.9229 -26.1855l0.0605469 -0.168945l0.0693359 -0.166016c5.93262 -14.332 12.3037 -33.5381 29.3359 -43.6318c3.66602 -2.1377 4.89453 -4.81543 4.89453 -8.72559v-0.235352l0.0146484 -0.234375
s1.59375 -22.1973 -12.3926 -37.9297c-7.06055 -7.8916 -17.7061 -12.457 -30.2637 -13.8516c-18.7842 -1.13965 -48.1006 -10.8184 -70.1416 -31.7568c-28.7959 -27.1025 -28.5205 -65.5234 -28.5254 -65.8975l15.3584 -0.220703s0.12793 32.752 23.6943 54.9336
c18.918 17.9717 45.7314 26.7109 60.7363 27.6211l0.191406 0.0117188l0.191406 0.0214844c15.0928 1.67578 29.8555 7.32812 40.2061 18.8975c19.4268 21.8516 16.4697 45.959 16.0947 52.084c-0.324219 2.17871 -3.75781 13.5557 -12.3184 18.5498
c-10.6084 6.28613 -16.5264 20.8809 -22.8848 36.2393c1.84766 -4.77539 1.86523 -5.15234 0.129883 -0.334961c-4.68848 13.0166 -9.38379 23.292 -18.8672 32.1846c-3.64258 3.59766 3.32324 -3.50098 -0.208008 0.206055
c-38.6084 40.5156 -15.2412 48.3184 -12.2578 49.5986l6.01953 2.58105l-1.59961 6.35254c-0.795898 3.16113 -1.81445 5.20703 -2.04883 6.14062l-0.171875 0.685547l-0.294922 0.642578c-4.95215 10.8057 -7.00684 24.3164 -7.49219 38.9082
c0 15.1484 2.93945 31.5137 7.7959 46.084c6.23633 18.7119 15.4922 30.915 27.6465 39.0156c14.1807 9.14746 32.2949 13.6172 54.2432 14.1025c9.41602 0 22.3828 -0.0625 32.5195 -1.44434c10.1152 -1.7832 11.4805 -2.38086 11.4805 -2.38086
c9.17676 -12.9883 11.7227 -15.1299 20.4326 -19.0869c7.16016 -2.98438 14.957 -4.96875 23.7949 -3.60742c0 0 5.46777 -2.28027 12.2686 -10.1289c11.6973 -14.7461 19.4053 -24.0625 20.7822 -43.7568l0.907227 -12.9678s-0.09375 -6.55371 -0.891602 -14.9561
c-0.93457 -9.80859 -3.84766 -20.6621 -7.40723 -32.8828c-1.43262 -4.91602 0.739258 2.53906 -0.692383 -2.37695l-2.07715 -7.12988l6.19434 -3.0957c3.91504 -1.95605 22.459 -10.0537 -10.9209 -46.292c3.65918 3.58203 4.40527 3.94238 0.566406 0.554688
c-10.7627 -9.50098 -14.5381 -22.3643 -19.4531 -34.6504c-6.1377 -15.0605 -9.76855 -28.3594 -21.876 -36.5938c-4.21094 -2.86035 -13.9766 -12.2617 -13.9766 -22.4512c0 0 0.188477 -29.2432 6.74414 -39.8574c11.5264 -18.1016 15.2588 -27.752 49.2969 -31.4023
c15.7178 -1.47266 42.0098 -6.9834 60.4971 -24.5508l0.384766 -0.365234l0.431641 -0.308594c22.5547 -16.1689 18.3945 -52.9277 18.3564 -53.2344l15.2451 -1.87793s7.59277 44.4805 -24.2217 67.2871zM403.377 318.906
c-5.26562 -0.476562 -8.84277 -0.303711 -11.3379 0.803711c-4.32812 2.40332 -7.14551 4.66113 -8.49609 7.0918l-0.210938 0.378906l-0.251953 0.352539c-4.94043 6.91797 -13.5752 8.7334 -20.9453 9.78711c-9.92773 1.65332 -21.1631 1.625 -28.8252 1.625h-16.8945
v-15.3604h16.8945c7.69922 0 17.9736 -0.0292969 26.4756 -1.44531c8.12988 -1.16211 7.95996 0.4375 13.8359 -7.79199c0 0 5.49414 -5.03027 11.2607 -8.23145l0.298828 -0.166016l0.3125 -0.139648c6.71582 -2.98145 13.6855 -2.70703 19.6797 -2.16406
l0.410156 0.0371094l0.404297 0.0810547c0.84375 0.168945 4.1875 -0.365234 9.14941 -5.77539c7.80176 -8.97168 12.7637 -24.1426 17.5908 -33.3154c0.111328 -2.45312 0.112305 -18.0439 -0.544922 -23.6494c-0.974609 -8.7627 -3.48926 -21.8027 -6.3877 -31.4561
c-1.47266 -4.90332 0.805664 2.68457 -0.666992 -2.21875l-2 -6.65918l5.87012 -3.16211c2.7334 -1.47266 17.5312 -6.64746 -9.22266 -36.2158c3.59668 3.64453 4.21973 3.95898 0.467773 0.474609c-9.08691 -8.44043 -11.793 -18.5107 -16.2158 -28.8252
c-5.14648 -13.166 -7.98828 -23.1416 -18.0557 -30.1914c-2.65039 -1.9248 -11.6797 -10.0273 -11.6797 -19.2402c-0.03125 -0.416992 -2.52539 -19.0947 8.3584 -37.4932c4.61426 -6.93164 11.6855 -18.9668 38.9199 -21.9268
c13.333 -1.48047 34.498 -5.53516 49.332 -19.4678l0.393555 -0.370117l0.441406 -0.311523c17.9541 -12.6465 14.7568 -41.127 14.7197 -41.4238l15.2461 -1.87402s6.51367 36.3906 -20.6787 55.5449c-18.957 17.8066 -43.4775 21.582 -57.7949 23.1719
c-21.1973 2.30469 -25.666 11.9805 -25.666 11.9805l-0.0966797 0.145508l-0.103516 0.140625c-9.25195 12.6143 -7.75586 30.7129 -7.75586 30.7129l0.0224609 0.291992v0.293945c0 2.31348 2.36914 5.9082 5.48438 7.46582l0.506836 0.25293l0.463867 0.325195
c13.0322 9.125 17.8486 25.126 22.1572 36.1484c4.79785 11.1865 7.21191 18.5254 12.4541 23.3955l0.245117 0.226562l0.223633 0.24707c26.4736 29.2588 20.0166 47.665 10.0938 56.7432c2.97168 10.6631 5.18164 22.5176 6.17871 31.4854
c1.17871 10.0488 0.393555 29.0752 0.393555 29.0752c-8.96973 19.417 -9.26074 26.1387 -21.2373 39.9102c-6.30859 6.87988 -13.8203 12.5674 -23.2168 10.6855z" />
    <glyph glyph-name="uniF144" unicode="&#xf144;" 
d="M115.109 -19.5146v0c-6.52441 0 -12.9756 0.977539 -19.1836 2.90625l-9.72363 3.02441l24.5762 24.5596c8.46484 8.46094 8.46484 22.1738 0.0429688 30.6006c-4.08398 4.08301 -9.51074 6.32715 -15.2832 6.32715c-5.76855 0 -11.1914 -2.24414 -15.2754 -6.32715
l-24.3154 -24.3203l-2.8584 10.0947c-6.34082 22.4688 -0.0517578 46.665 16.4346 63.1426c12.1689 12.1729 28.3525 18.876 45.5684 18.876c6.0498 0 12.0146 -0.836914 17.792 -2.49219l212.915 212.915c-6.37402 22.332 -0.157227 46.8271 16.376 63.3604
c12.168 12.1641 28.3428 18.8672 45.5596 18.8672c6.51465 0 12.9658 -0.976562 19.1738 -2.90527l9.72363 -3.02148l-24.5752 -24.5625c-4.11816 -4.12207 -6.36621 -9.54883 -6.36621 -15.3223c0 -5.77246 2.24805 -11.1953 6.33203 -15.2783
c4.07422 -4.08301 9.50977 -6.32812 15.2744 -6.32812c5.77734 0 11.2002 2.24512 15.2832 6.32812l24.3154 24.3154l2.85059 -10.0908c6.34863 -22.4678 0.0507812 -46.6641 -16.4355 -63.1465c-12.1689 -12.1641 -28.3438 -18.8633 -45.5508 -18.8633
c-5.61523 0 -11.166 0.725586 -16.5674 2.15039l-213.815 -213.828c5.91797 -22.2207 -0.316406 -45.7168 -16.7168 -62.1221c-12.1689 -12.1602 -28.3438 -18.8594 -45.5508 -18.8594v0zM110.202 -6.9873c1.62598 -0.149414 3.26855 -0.226562 4.90723 -0.226562
c13.9258 0 27.0078 5.41895 36.8506 15.2578c14.0078 14.0078 18.8506 34.4111 12.6338 53.252l-1.19043 3.59766l2.68359 2.67871l221.692 221.688l3.5918 -1.18164c5.29102 -1.74902 10.8076 -2.63281 16.4014 -2.63281c13.9268 0 27.0078 5.42285 36.8516 15.2627
c10.6582 10.6533 16.0508 25.2969 15.168 40.0293l-8.5 -8.50781c-6.4082 -6.4043 -14.9248 -9.93262 -23.9824 -9.93262c-9.05859 0 -17.5742 3.52832 -23.9746 9.93262c-6.4082 6.40918 -9.93262 14.9209 -9.93262 23.9785
c-0.00878906 9.05859 3.52441 17.5752 9.92383 23.9795c0.124023 0.123047 0.251953 0.243164 0.375977 0.358398l8.94238 8.93848c-1.625 0.15332 -3.25977 0.230469 -4.89746 0.230469c-13.9268 0 -27.0166 -5.42285 -36.8604 -15.2578
c-14.1348 -14.1357 -18.9482 -35.4561 -12.2832 -54.3105l1.30078 -3.65625l-2.75195 -2.74805l-220.971 -220.962l-3.65625 1.29297c-5.60645 1.9834 -11.4727 2.99023 -17.4424 2.99023c-13.9258 0 -27.0166 -5.42285 -36.8682 -15.2705
c-10.6582 -10.6533 -16.0508 -25.2969 -15.168 -40.0293l8.50781 8.50293c6.4082 6.40918 14.9248 9.9375 23.9746 9.9375c9.05762 0 17.5742 -3.52832 23.9824 -9.93262c13.2188 -13.2266 13.2188 -34.7393 0 -47.958
c-0.114258 -0.114258 -0.243164 -0.234375 -0.358398 -0.34082l-8.95117 -8.95996v0zM197.644 193.034c-1.56641 0 -3.14062 0.605469 -4.34375 1.80469l-135.407 135.381c-16.5078 16.5078 -16.5078 43.3623 0 59.8662c7.99219 8 18.624 12.4033 29.9307 12.4033v0
c11.3066 0 21.9355 -4.40332 29.9355 -12.3994c0.131836 -0.131836 0.259766 -0.268555 0.383789 -0.401367l0.0595703 -0.0673828l134.95 -134.93c2.40723 -2.40234 2.40723 -6.29785 0 -8.69531c-2.40137 -2.40234 -6.29297 -2.40234 -8.69922 -0.00390625
l-135.096 135.074l-0.31543 0.34082c-5.6582 5.65723 -13.2012 8.78516 -21.2188 8.78516c-8.02539 0 -15.5557 -3.12305 -21.2344 -8.80176c-11.708 -11.708 -11.708 -30.7588 0 -42.4668l135.398 -135.381c2.40625 -2.40234 2.40625 -6.30176 0 -8.7002
c-1.19531 -1.20312 -2.76953 -1.80859 -4.34375 -1.80859v0zM447.333 -24.0664l-52.6426 35.0928l9.05859 9.0625l-120.099 120.106c-2.40137 2.40234 -2.40137 6.30176 0 8.7002c2.40234 2.40234 6.30273 2.40234 8.7002 0l128.802 -128.807l-7.15039 -7.15137
l31.7656 -21.1748l10.4482 10.4531l-21.1748 31.7607l-7.15137 -7.15527l-128.807 128.815c-2.40137 2.40234 -2.40137 6.29785 0 8.69531c2.40234 2.40234 6.30176 2.40234 8.7002 0l120.106 -120.103l9.05859 9.0625l35.1016 -52.6416l-24.7168 -24.7168v0z" />
    <glyph glyph-name="uniF13A" unicode="&#xf13a;" 
d="M128.089 390.164c0 8.69434 5.18652 16.5957 13.2246 20.1172c2.89746 1.2627 5.95703 1.87891 8.99512 1.87891c5.42285 0 10.7725 -1.9668 14.9434 -5.70117l250.568 -225.143c5.57227 -4.99609 8.20215 -12.4512 7.00879 -19.8027
c-1.2002 -7.35156 -6.06738 -13.6172 -12.9434 -16.6328l-74.5186 -32.6641l41.9863 -93.9277c4.97168 -11.123 -0.0957031 -24.1172 -11.3203 -29.0479l-30.4805 -13.3604l-30.4727 -13.3682c-2.94141 -1.27637 -5.99414 -1.89258 -8.9873 -1.89258
c-8.53516 0 -16.6699 4.88672 -20.3447 13.1113l-42.001 93.9209l-74.5186 -32.6719c-2.88184 -1.26172 -5.94922 -1.89355 -9.00195 -1.89355c-4.24512 0 -8.46777 1.2041 -12.1279 3.55859c-6.29785 4.06543 -10.0986 11.0059 -10.0986 18.4678zM138.32 371.977
l-0.0800781 -300.132c0 -6.68359 -1.69141 -18.0215 3.99023 -21.6621c3.30176 -2.11035 1.99219 -3.1875 5.82129 -3.1875c2.75391 0 15.7617 5.68457 18.3613 6.81543l72.3486 34.3867l37.8916 -84.1328c3.31543 -7.36719 10.6543 -27.1045 18.3545 -27.1045
c2.7002 0 5.4541 0.551758 8.10742 1.69531l27.4922 11.9756l27.498 11.9678c10.126 4.41699 4.45801 21.1758 -0.0273438 31.1396l-37.8779 84.1387l72.3477 34.3799c6.20312 2.70117 10.5947 8.31445 11.6768 14.8994c1.07617 6.58594 -6.41602 13.2637 -11.4424 17.7393
l-220.935 201.678c-3.76367 3.3457 -13.709 10.2266 -18.6016 10.2266c-2.74121 0 -5.50098 -0.551758 -8.11523 -1.68262c-7.25195 -3.1543 -6.81055 -15.3525 -6.81055 -23.1406z" />
    <glyph glyph-name="uniF142" unicode="&#xf142;" 
d="M310.912 399.847v0c10.5791 -11.7188 17.3291 -26.8027 20.4365 -42.3965h76.9746l-26.9756 -40.4727h-49.2959c-8.9248 -64.6758 -70.8389 -101.497 -136.854 -105.051l160.369 -199.977h-69l-154.943 193.298l-0.0429688 37.8125l38.6885 -0.0439453
c79.96 0 104.175 44.6113 104.175 73.6953c0 0.0908203 0 0.174805 0.00292969 0.265625h-157.534l26.9746 40.4727h125.497c-17.1611 38.8115 -60.0732 42.3965 -106.57 42.3965h-45.9014l26.9746 40.4697h264.437l-26.9756 -40.4697h-70.4355z" />
    <glyph glyph-name="uniF139" unicode="&#xf139;" 
d="M256 -46.999c-131.805 0 -238.999 107.194 -238.999 238.999s107.194 238.999 238.999 238.999s238.999 -107.194 238.999 -238.999s-107.194 -238.999 -238.999 -238.999v0zM256 414.592c-122.508 0 -222.592 -100.084 -222.592 -222.592
s100.084 -222.592 222.592 -222.592s222.592 100.084 222.592 222.592s-100.084 222.592 -222.592 222.592v0zM407.494 183.796c-4.37598 0 -8.2041 3.8291 -8.2041 8.2041c0 79.3018 -64.5352 143.29 -143.29 143.29s-143.29 -63.9883 -143.29 -143.29
c0 -4.375 -3.82812 -8.2041 -8.2041 -8.2041c-4.375 0 -8.20312 3.8291 -8.20312 8.2041c0 88.0527 71.6445 159.697 159.697 159.697s159.697 -71.6445 159.697 -159.697c0 -4.375 -3.82812 -8.2041 -8.20312 -8.2041v0zM258.734 149.888
c-2.1875 0 -3.82812 0.546875 -5.46875 2.1875l-71.6455 67.8174c-3.28125 3.28125 -3.28125 8.20312 -0.546875 11.4854c3.28125 3.28125 8.2041 3.28125 11.4854 0.546875l71.6455 -67.2705c3.28125 -3.28125 3.28125 -8.20312 0.546875 -11.4844
c-1.6416 -2.18848 -3.8291 -3.28223 -6.0166 -3.28223v0zM258.734 135.121c-12.5791 0 -22.9697 10.3916 -22.9697 22.9707s10.3906 22.9697 22.9697 22.9697s22.9707 -10.3906 22.9707 -22.9697s-9.84473 -22.9707 -22.9707 -22.9707v0zM258.734 164.654
c-3.82812 0 -6.5625 -2.73438 -6.5625 -6.5625s2.73438 -6.56348 6.5625 -6.56348s6.56348 2.73535 6.56348 6.56348s-2.73535 6.5625 -6.56348 6.5625v0z" />
    <glyph glyph-name="uniF136" unicode="&#xf136;" 
d="M364.424 -35.6895v119.266h119.266v-119.266h-119.266v0zM364.424 251.633h119.266v-119.266h-119.266v119.266v0zM364.424 419.689h119.266v-119.266h-119.266v119.266v0zM196.367 83.5762h119.266v-119.266h-119.266v119.266v0zM196.367 251.633h119.266v-119.266
h-119.266v119.266v0zM196.367 419.689h119.266v-119.266h-119.266v119.266v0zM28.3105 83.5762h119.266v-119.266h-119.266v119.266v0zM28.3105 251.633h119.266v-119.266h-119.266v119.266v0zM28.3105 419.689h119.266v-119.266h-119.266v119.266v0z" />
    <glyph glyph-name="uniF14B" unicode="&#xf14b;" 
d="M423.936 232.96c2.56055 -10.2402 4.09668 -25.5996 4.09668 -40.4482c0 -116.224 -77.8242 -197.632 -195.072 -197.632c-112.128 0 -203.264 91.6484 -203.264 203.776s90.624 203.775 202.752 203.775c54.7842 0 101.376 -19.9678 136.704 -52.7354l-56.832 -57.3447
v0c-25.6006 20.4805 -49.1523 30.7207 -79.3604 30.7207c-67.0723 0 -121.856 -56.832 -121.856 -123.904s54.2725 -124.928 121.345 -124.928c60.9277 0 102.399 35.8398 110.592 81.9199h-112.64v76.7998h193.535zM573.44 227.84h61.4395v-51.2002h-61.4395v-66.5596
h-56.3203v66.5596h-56.3203v51.2002h56.3203v61.4404h56.3203v-61.4404z" />
    <glyph glyph-name="uniF116" unicode="&#xf116;" 
d="M136 88c0 25.1836 41.1279 55.0322 109.44 100c-68.3125 44.9678 -109.44 74.8164 -109.44 100v112h-32v48h304v-48h-24v-112c0 -25.1836 -41.1279 -55.0322 -109.44 -100c68.3125 -44.9678 109.44 -74.8164 109.44 -100v-104h24v-48h-304v48h32v104zM392 -48v16h-272
v-16h272zM120 432v-16h272v16h-272zM152 288c0 -19.1123 58.7441 -58.1523 108 -90.4316c49.2559 32.2793 108 71.3193 108 90.4316v112h-216v-112zM260 178.432c-49.2559 -32.2793 -108 -71.3193 -108 -90.4316v-104h216v104c0 19.1123 -58.7441 58.1523 -108 90.4316z" />
    <glyph glyph-name="uniF14C" unicode="&#xf14c;" 
d="M88.5762 -46.0801v471.04h39.9355v-471.04h-39.9355zM160.768 -46.0801v204.8h39.9365v-204.8h-39.9365zM233.472 -46.0801v271.36h39.9365v-271.36h-39.9365zM305.664 -46.0801v133.12h39.9355v-133.12h-39.9355zM377.856 -46.0801v204.8h39.9355v-204.8h-39.9355z" />
    <glyph glyph-name="uniF140" unicode="&#xf140;" 
d="M483.868 193.52c0 -126.088 -101.781 -227.868 -227.868 -227.868s-227.868 101.78 -227.868 227.868c0 126.087 101.781 227.868 227.868 227.868s227.868 -102.288 227.868 -227.868v0zM376.011 283.653c-8.6084 9.11523 -23.293 9.11523 -31.9014 0l-129.632 -131.657
l-53.1689 54.6885c-9.11523 8.6084 -23.2939 8.6084 -32.4082 -0.505859c-8.6084 -9.11523 -8.6084 -23.7998 0 -32.9141l68.3604 -68.8672l1.0127 -1.0127c9.11426 -9.11523 23.293 -9.11523 32.4082 0l145.329 147.861c9.11426 8.6084 9.11426 23.293 0 32.4072v0v0z" />
    <glyph glyph-name="uniF131" unicode="&#xf131;" 
d="M427.312 -56.1611h-399.348c-4.58398 0 -8.59375 4.01074 -8.59375 8.59375v458.362c0 3.4375 2.29102 6.875 5.72949 8.02148c3.4375 1.14551 6.875 0.572266 9.74023 -2.29199l398.774 -458.362c2.29199 -2.29199 2.86523 -6.30273 1.14551 -9.16699
c-1.71875 -2.86523 -4.01074 -5.15625 -7.44824 -5.15625v0zM36.5596 -38.9727h371.846l-371.846 426.85v-426.85v0zM241.676 32.0732h-124.33c-4.58398 0 -8.59473 4.01074 -8.59473 8.59375v143.238c0 3.4375 2.29199 6.87598 5.72949 8.02148
c3.43848 1.14648 6.87598 0.573242 9.74023 -2.29199l124.904 -143.238c2.29102 -2.29102 2.86426 -6.30176 1.14551 -9.16699c-1.71875 -2.86426 -5.15625 -5.15625 -8.59473 -5.15625v0zM125.939 49.2617h97.4023l-97.4023 111.726v-111.726v0zM470.284 103.692h-1.71875
l-15.4697 1.14551c-0.573242 0 -1.14551 0 -2.29199 0.573242h-3.4375c-4.58398 0 -9.16699 0.573242 -13.751 1.14551c-8.59473 1.14648 -16.043 5.72949 -21.7725 13.1777c-4.01074 4.58398 -7.44824 9.16797 -11.459 13.1787l-4.01074 4.58301
c-6.875 8.02148 -30.3662 33.8047 -52.7109 58.4414c-22.3457 24.6367 -45.8369 50.4199 -52.7119 59.0137l-55.5762 64.1709c-7.44824 9.16699 -6.87598 20.627 1.71875 28.6475l39.5332 34.3779c9.16797 8.02051 21.1992 7.44824 29.2207 -2.29199
c18.9072 -20.627 53.8574 -60.1602 87.6621 -97.9746c34.377 -38.9609 70.4727 -79.0684 89.9531 -101.413c6.87598 -7.44824 9.74023 -17.1885 9.16699 -27.502c-0.572266 -7.44824 -1.14551 -14.8965 -1.71875 -21.7715l-0.572266 -8.59473
c-1.14648 -10.8857 -9.16797 -18.9072 -20.0537 -18.9072v0zM455.96 122.026l13.1787 -1.14551c2.29102 0 3.4375 0.573242 3.4375 2.86426l0.573242 8.59473c0.572266 7.44824 1.14551 14.3242 1.71875 21.7725c0.572266 5.72949 -1.14648 10.8857 -5.15723 14.8965
c-19.4805 22.3447 -55.0029 62.4521 -89.9531 101.412c-33.8047 37.8154 -68.7539 77.3486 -87.6621 99.1211c-1.71875 2.29199 -2.86426 2.29199 -5.15625 0.573242l-38.9609 -33.8047c-1.71875 -1.71875 -2.29199 -2.86426 -0.573242 -4.58301l55.5771 -64.1709
c6.875 -8.02148 30.3662 -33.8047 52.7109 -58.4414c22.3457 -24.6367 45.8369 -50.4199 52.7119 -59.0137l4.01074 -4.58398c4.01074 -4.58301 8.02148 -9.16699 11.459 -13.751c3.4375 -4.01074 6.875 -6.30176 11.459 -6.875
c3.4375 -0.573242 7.44824 -0.573242 12.0322 -1.14648c1.71875 0 4.01074 0 5.72949 -0.572266c1.71875 -0.573242 2.29199 -1.14648 2.86426 -1.14648v0zM236.52 328.862h-1.71875c-5.72949 0.573242 -10.3135 2.86523 -13.751 6.87598l-28.6475 33.2305
c-7.44824 8.59473 -6.875 20.627 1.71875 28.0752c4.58398 4.01074 9.74023 8.59375 14.3242 12.6045l25.7822 22.3457c4.58398 4.01074 9.74023 5.72949 14.8975 5.72949c5.15625 -0.573242 10.3125 -2.86523 13.75 -7.44824
c9.16797 -10.8867 18.9082 -21.7725 28.0752 -32.6582c7.44824 -9.16797 6.875 -20.627 -1.71875 -28.6484c-6.30273 -5.72949 -13.1777 -11.459 -19.4805 -17.1885l-20.626 -17.7607c-3.43848 -3.43848 -8.02148 -5.15723 -12.6055 -5.15723v0zM247.979 420.535
c-0.573242 0 -1.14551 -0.573242 -2.29199 -1.14648l-25.7822 -22.3447c-4.58398 -4.01074 -9.74023 -8.02148 -14.3242 -12.6055c-1.71875 -1.71875 -1.71875 -2.29102 0 -4.01074l28.6475 -33.2305c0.573242 -0.573242 0.573242 -0.573242 1.71875 -1.14648
l-0.572266 -8.59375l1.14551 8.59375s0.573242 0 1.71875 1.14648l20.627 17.7607c6.30176 5.73047 13.1777 11.46 19.4795 17.1895c1.71973 1.14551 1.71973 2.29102 0 4.58301c-9.16699 10.8867 -18.334 21.7725 -28.0742 32.6582
c-1.14551 0.573242 -1.71875 1.14648 -2.29199 1.14648v0v0z" />
    <glyph glyph-name="uniF124" unicode="&#xf124;" 
d="M4.6084 215.248l496.008 231.992l4.38379 -6.25586l6.25586 -4.38477l-232 -496l-14.4082 -0.183594l-86.8076 173.616l-173.616 86.8076zM466.152 413.464l-439.784 -205.704l156.056 -78.0234zM271.76 -37.6318l205.704 439.784l-283.728 -283.729z" />
    <glyph glyph-name="uniF121" unicode="&#xf121;" 
d="M392 312v-120h64v-256h-400v256h64v120c0 74.9922 61.0078 136 136 136s136 -61.0078 136 -136zM136 312v-120h240v120c0 66.168 -53.832 120 -120 120s-120 -53.832 -120 -120zM440 -48v224h-368v-224h368zM248 32.8164c-18.2324 3.70312 -32 19.8721 -32 39.1836
c0 22.0557 17.9443 40 40 40s40 -17.9443 40 -40c0 -19.3115 -13.7676 -35.4717 -32 -39.1836v-24.8164h-16v24.8164zM256 96c-13.2324 0 -24 -10.7676 -24 -24s10.7676 -24 24 -24s24 10.7676 24 24s-10.7676 24 -24 24z" />
    <glyph glyph-name="uniF12E" unicode="&#xf12e;" 
d="M88 -64v432h-24v16h112v64h128v-64h112v-16h-24v-432h-304zM192 432v-48h96v48h-96zM376 368h-272v-416h272v416zM184 16v272h16v-272h-16zM280 16v272h16v-272h-16z" />
    <glyph glyph-name="uniF11E" unicode="&#xf11e;" 
d="M384 416c80.1201 0 128 -69.1523 128 -136c0 -68.7119 -42.6084 -142.04 -126.64 -217.936c-61.9043 -55.9121 -124.712 -92.6162 -125.345 -92.9844l-4.01562 -2.32812l-4.01562 2.32812c-0.624023 0.368164 -63.4404 37.0723 -125.345 92.9844
c-84.0312 75.8955 -126.64 149.224 -126.64 217.936c0 66.8477 47.8799 136 128 136c58.8564 0 109.112 -33.168 128 -79.4316c18.8877 46.2637 69.1436 79.4316 128 79.4316zM256 -14.6641c31.7441 19.3916 240 152.12 240 294.664c0 58.9844 -41.8965 120 -112 120
c-57.7119 0 -120 -39.7676 -120 -104h-16c0 64.2324 -62.2881 104 -120 104c-70.1035 0 -112 -61.0156 -112 -120c0 -142.624 208.248 -275.28 240 -294.664z" />
    <glyph glyph-name="uniF12F" unicode="&#xf12f;" 
d="M390.4 362.667v0v-25.6006h70.3994v-320h-409.6v320h70.3994v25.6006h51.2002v-25.6006h166.4v25.6006h51.2002zM352 349.866v0v-38.3994h25.5996v38.3994h-25.5996zM134.4 349.866v0v-38.3994h25.5996v38.3994h-25.5996zM64 29.8662v0h384v243.2h-384v-243.2z
M448 324.267v0h-57.5996v-25.5996h-51.2002v25.5996h-166.4v-25.5996h-51.2002v25.5996h-57.5996v-38.4004h384v38.4004zM108.8 170.667v0v76.7998h76.7998v-76.7998h-76.7998zM121.6 234.667v0v-51.2002h51.2002v51.2002h-51.2002zM108.8 55.4668v0v76.7998h76.7998
v-76.7998h-76.7998zM121.6 119.467v0v-51.2002h51.2002v51.2002h-51.2002zM326.4 170.667v0v76.7998h76.7998v-76.7998h-76.7998zM339.2 234.667v0v-51.2002h51.2002v51.2002h-51.2002zM326.4 55.4668v0v76.7998h76.7998v-76.7998h-76.7998zM339.2 119.467v0v-51.2002
h51.2002v51.2002h-51.2002zM217.6 170.667v0v76.7998h76.8008v-76.7998h-76.8008zM230.4 234.667v0v-51.2002h51.1992v51.2002h-51.1992zM217.6 55.4668v0v76.7998h76.8008v-76.7998h-76.8008zM230.4 119.467v0v-51.2002h51.1992v51.2002h-51.1992z" />
    <glyph glyph-name="uniF102" unicode="&#xf102;" 
d="M112 208v-16h288v16h-288zM16.0078 192c0 132.544 107.448 239.992 239.992 239.992s239.992 -107.448 239.992 -239.992s-107.448 -239.992 -239.992 -239.992s-239.992 107.448 -239.992 239.992zM0.0078125 192c0 -141.378 114.614 -255.992 255.992 -255.992
s255.992 114.614 255.992 255.992s-114.614 255.992 -255.992 255.992s-255.992 -114.614 -255.992 -255.992z" />
    <glyph glyph-name="uniF125" unicode="&#xf125;" 
d="M0 16v352h512v-352h-512zM16 32h480v20.3281l-158.728 136.04l-48.4082 -64.5439l-97.248 97.248l-175.616 -152.721v-36.3516zM496 352h-480v-262.44l176.384 153.368l94.7441 -94.752l47.5918 63.4561l161.28 -138.24v278.608zM408 224c-26.4717 0 -48 21.5283 -48 48
s21.5283 48 48 48s48 -21.5283 48 -48s-21.5283 -48 -48 -48zM408 304c-17.6484 0 -32 -14.3516 -32 -32s14.3516 -32 32 -32s32 14.3516 32 32s-14.3516 32 -32 32z" />
    <glyph glyph-name="uniF137" unicode="&#xf137;" 
d="M193.458 205.837c13.5576 0.798828 42.3564 -13.125 56.292 -32.6357l6.16406 -8.62988l6.27637 8.54883c27.3213 37.2109 83.4795 35.7373 99.2598 7.9209l0.0957031 -0.168945l0.103516 -0.163086c5.94531 -9.35059 17.6992 -9.44141 23.7764 0.101562
c13.0664 22.0771 40.5303 31.9473 64.7012 23.8916c8.65527 -3.03027 16.1699 -8.54102 23.2588 -15.1592c3.03516 -3.02734 9.80176 -6.58301 16.4541 -2.59473c-4.48926 -2.46289 -5.09473 -2.57227 -0.515625 -0.282227c6.26855 3.13379 8.01074 9.97363 7.21191 14.7822
l-0.0498047 0.300781l-0.0732422 0.294922c-0.192383 0.770508 -0.259766 3.10742 -0.994141 6.02051c-18.8633 89.6162 -72.1641 152.033 -157.762 185.645c-20.4844 7.87793 -35.4385 11.2246 -61.1768 13.5996v3.07422l-0.0195312 0.272461
c-0.791992 11.124 -9.49512 18.6641 -19.916 19.4053c-10.5273 0.806641 -19.7754 -6.66602 -21.4102 -16.5137c-1.00977 -5.01953 -0.405273 -1.64844 -0.662109 -6.7627c-24.1475 -2.37793 -56.6641 -9.77246 -82.7178 -22.543
c-70.498 -34.7275 -115.715 -90.5801 -134.133 -167.411c1.40918 4.92285 1.80566 5.49902 0.183594 0.643555c-1.91602 -5.73633 -2.39453 -11.1494 -3.32129 -15.7764c-0.919922 -4.61621 0.49707 -11.7002 7.17578 -15.0342
c-4.48926 2.46191 -4.91113 2.91797 -0.519531 0.285156c6.87793 -4.12402 11.1973 -2.13477 18.5078 5.1582c18.1338 17.6992 46.3535 21.0938 68.2061 6.82324c7.16113 -4.92285 13.0811 -11.248 17.7871 -18.7754c6.8916 -10.3408 18.8223 -8.66504 24.3506 0.803711
c-2.70996 -4.34375 -3.07617 -4.64551 -0.239258 -0.383789c1.02148 1.53418 2.04688 3.07031 3.07324 4.61523c-2.97559 -4.16602 -3.41797 -4.48633 -0.301758 -0.422852c10.4082 13.5713 23.9072 20.1494 40.9336 21.0703zM261.12 409.837v-5.35645
c0 -6.18066 5.12598 -11.2822 10.5039 -12.1846l0.360352 -0.0605469l0.364258 -0.0253906c20.8535 -1.48926 40.6309 -5.4668 59.6943 -12.7988c81.3125 -31.9287 130.412 -89.3115 148.408 -174.806c0 0 -19.0977 12.4404 -25.3584 14.6318
c-31.8506 10.6152 -66.0273 -4.45605 -81.5479 -28.4277c-27.0791 38.834 -85.9932 31.7588 -117.474 -1.04102c-20.2666 21.1875 -44.3555 32.5303 -63.4795 31.4043c-20.8691 -1.12891 -39.1045 -9.91113 -52.2559 -27.0596l-0.158203 -0.206055l-0.144531 -0.216797
c-0.907227 -1.36621 -2.45117 -3.68164 -2.45117 -3.68164c-6.94629 10.2148 -12.3145 15.5898 -21.1768 21.6816c-28.8203 18.8213 -64.9736 11.8721 -85.8086 -7.03613c1.14941 6.4043 0.848633 5.1709 1.77734 7.95215l0.106445 0.317383l0.078125 0.326172
c17.4209 72.6689 59.2451 124.337 125.956 157.199c25.1914 12.3467 51.6367 18.752 79.8721 21.2734c6.27246 0.78125 11.4688 6.43652 11.4688 12.7578c0 2.64746 0.0126953 4.41992 0.389648 6.29297c0.405273 2.44238 2.42773 4.17871 5.20996 3.96582
c3.91895 -0.27832 5.43652 -1.68652 5.66504 -4.90234zM263.68 177.642l-15.3594 0.046875l-0.510742 -170.057c0.0126953 -0.81543 1.73535 -40.9551 -41.0098 -38.3662c-43.6582 2.64453 -40.4121 40.5283 -40.4092 40.5869l-15.3408 0.774414
s-2.8916 -53.1973 54.8213 -56.6934c58.5879 -3.54785 57.2988 53.7949 57.2988 53.7949z" />
    <glyph glyph-name="uniF110" unicode="&#xf110;" 
d="M190.398 377.602v-24h284v24h-284zM190.398 193.602v-24h284v24h-284zM190.398 16.7969v-24h284v24h-284zM81.5996 444.8l24 -48.7998l53.6006 -8l-38.4004 -37.5996l8.7998 -53.6006l-48 24.7998l-48 -24.7998l9.60059 53.6006l-39.2002 37.5996l53.5996 8z
M81.5996 267.2l24 -48.7998l53.6006 -7.2002l-38.4004 -38.4004l8.7998 -53.5996l-48 25.5996l-48 -25.5996l9.60059 53.5996l-39.2002 38.4004l53.5996 7.2002zM81.5996 90.4004l24 -48.8008l53.6006 -8l-38.4004 -37.5996l8.7998 -53.5996l-48 25.5996l-48 -25.5996
l9.60059 53.5996l-39.2002 37.5996l53.5996 8z" />
    <glyph glyph-name="uniF134" unicode="&#xf134;" 
d="M105.292 419.556v0h306.536c21.4287 0 37.5088 -7.45898 44.6514 -20.7646c6.97266 -13.1289 4.11523 -30.6943 -7.85645 -48.6143l-140.048 -209.939v-111.616c0 -14.5566 -9.64551 -29.2852 -22.6865 -35.1377l-50.5547 -22.5342
c-6.6123 -2.83887 -13.3945 -2.83887 -18.7549 0.530273c-5.18262 3.36914 -8.04004 9.58301 -8.04004 16.8584v151.899l-140.225 209.939c-11.7891 17.9199 -14.6455 35.4854 -7.67969 48.6143c7.14258 13.3057 23.0459 20.7646 44.6572 20.7646zM105.292 409.448v0
c-19.292 0 -30.9033 -6.21973 -35.7197 -15.2646c-4.64551 -9.05176 -3.57812 -22.3643 7.14258 -38.5146l141.116 -211.171c0.537109 -0.708008 0.891602 -1.59277 0.891602 -2.66113v-153.493c0 -4.79102 1.60547 -7.45801 3.39355 -8.52051
c1.96582 -1.24512 4.82324 -1.78223 9.10938 0.176758l50.5547 22.5352c8.57812 3.89941 16.6113 16.3271 16.6113 26.0859v113.216c0 1.06836 0.360352 1.95312 0.898438 2.66113l141.115 211.171c10.5371 16.1504 11.7949 29.4629 6.96582 38.5146
c-4.63965 9.05078 -16.251 15.2646 -35.543 15.2646h-306.536zM97.2578 369.513v0c1.60547 0 3.39453 -1.06836 4.28613 -2.48438l120.396 -177.993c1.60547 -2.30664 0.891602 -5.49902 -1.25098 -7.09863c-2.14355 -1.41504 -5.53711 -0.707031 -6.96582 1.42285
l-120.579 178.176c-1.95996 2.65527 -0.177734 7.09863 3.2168 7.7998c0.183594 0 0.537109 0 0.897461 0.177734z" />
    <glyph glyph-name="uniF12C" unicode="&#xf12c;" 
d="M440 392v-456h-368v456h107.752l6 24h30.248v32h80v-32h30.248l6 -24h107.752zM198.248 400l-12 -48h139.504l-12 48h-33.752v32h-48v-32h-33.752zM424 -48v424h-87.752l10 -40h-180.496l10 40h-87.752v-424h336z" />
    <glyph glyph-name="uniF119" unicode="&#xf119;" 
d="M256 64c-162.184 0 -250.76 118.232 -254.448 123.272l-3.47168 4.72754l3.46387 4.72754c3.69629 5.04004 92.2725 123.272 254.456 123.272s250.76 -118.232 254.448 -123.272l3.47168 -4.72754l-3.46387 -4.72754
c-3.69629 -5.04004 -92.2725 -123.272 -254.456 -123.272zM256 304c-135.864 0 -219.472 -90.1201 -237.752 -112c18.2803 -21.8799 101.888 -112 237.752 -112s219.472 90.1201 237.752 112c-18.2803 21.8799 -101.888 112 -237.752 112zM256 128
c-35.2881 0 -64 28.7119 -64 64s28.7119 64 64 64s64 -28.7119 64 -64s-28.7119 -64 -64 -64zM256 240c-26.4717 0 -48 -21.5283 -48 -48s21.5283 -48 48 -48s48 21.5283 48 48s-21.5283 48 -48 48z" />
    <glyph glyph-name="uniF10F" unicode="&#xf10f;" 
d="M434.678 423.947l45.6348 -45.6416l-379.121 -380.135l-69.5127 -22.8955l22.8389 68.5205zM434.679 448.493l-395.331 -395.322l-35.0605 -105.191l106.268 35.002l394.285 395.34zM367.345 368.995l-12.1641 -12.3799l58.9326 -57.8984l12.1631 12.3799z" />
    <glyph glyph-name="uniF12D" unicode="&#xf12d;" 
d="M200 248v16h176v-16h-176zM200 168v16h176v-16h-176zM200 88v16h176v-16h-176zM200 8v16h176v-16h-176zM136 248v16h32v-16h-32zM136 168v16h32v-16h-32zM136 88v16h32v-16h-32zM136 8v16h32v-16h-32zM216 448h80v-32h30.248l6 -24h107.752v-456h-368v456h107.752l6 24
h30.248v32zM346.248 336h-180.496l10 40h-87.752v-424h336v424h-87.752zM313.752 400h-33.752v32h-48v-32h-33.752l-12 -48h139.504z" />
    <glyph glyph-name="uniF148" unicode="&#xf148;" 
d="M198.722 -64c-65.5635 0 -137.83 27.3594 -144.045 104.157c-3.34863 41.3945 -2.29492 82.9717 -1.17676 126.997c0.505859 19.9023 1.01758 40.4111 1.12988 61.3555c-15.7949 0.464844 -31.1318 0.682617 -46.6562 0.682617h-7.97363v7.97461
c0 9.8457 0.211914 20.7383 0.447266 32.2666c0.235352 12.0527 0.482422 24.5225 0.482422 36.2803v5.43848l5.06152 1.98926c56.5947 22.1621 87.0615 63.0098 93.1523 124.89l0.111328 1.09473l0.400391 1.0293c1.32422 3.37793 3.91895 5.97363 7.29688 7.30371
l1.40137 0.541016h1.51172c12.2822 0 21.8691 -0.211914 32.0029 -0.441406c10.4629 -0.235352 21.2676 -0.482422 35.6152 -0.482422h7.97363v-124.52c10.5811 -0.470703 22.3633 -0.682617 37.0811 -0.682617c8.65137 0 17.3789 0.0654297 26.0938 0.141602
c15.0479 0.129883 30.0781 0.241211 44.7666 0.0117188l7.85059 -0.129883v-92.7051h-7.97949c-34.1035 0 -72.7559 -0.293945 -107.265 -0.811523c-1.58887 -38.1406 -2.87207 -149.478 2.86035 -169.656c6.46094 -22.7402 35.8799 -25.1875 48.2324 -25.1875
c14.2529 0 29.5596 2.95996 41.9951 8.13867c9.7334 4.06055 27.1348 12.6758 27.3115 12.7578l11.5166 5.70898v-93.4531l-4.02539 -2.30078c-31.6133 -18.0371 -73.5967 -28.3887 -115.174 -28.3887z" />
    <glyph glyph-name="uniF12A" unicode="&#xf12a;" 
d="M408 448c57.3438 0 104 -46.6562 104 -104s-46.6562 -104 -104 -104c-29.9443 0 -56.8965 12.7998 -75.8965 33.1201l-172.695 -109.896c10.3994 -14.4395 16.5918 -32.1035 16.5918 -51.2236c0 -9.77637 -1.67188 -19.1436 -4.62402 -27.9355l143.192 -57.2725
c8.2959 30.5996 36.2393 53.208 69.4316 53.208c39.7041 0 72 -32.2959 72 -72s-32.2959 -72 -72 -72s-72 32.2959 -72 72c0 0.847656 0.103516 1.68848 0.120117 2.53613l-147.176 58.8721c-15.0322 -27.0479 -43.8721 -45.4082 -76.9443 -45.4082
c-48.5195 0 -88 39.4805 -88 88s39.4805 88 88 88c23.5918 0 44.9922 -9.38379 60.8164 -24.5439l173.151 110.192c-11.3281 16.6475 -17.9678 36.7354 -17.9678 58.3516c0 57.3438 46.6562 104 104 104zM384 64c-30.8721 0 -56 -25.1279 -56 -56s25.1279 -56 56 -56
s56 25.1279 56 56s-25.1279 56 -56 56zM88 40c39.7041 0 72 32.2959 72 72s-32.2959 72 -72 72s-72 -32.2959 -72 -72s32.2959 -72 72 -72zM408 256c48.5195 0 88 39.4805 88 88s-39.4805 88 -88 88s-88 -39.4805 -88 -88s39.4805 -88 88 -88z" />
    <glyph glyph-name="uniF105" unicode="&#xf105;" 
d="M125.657 261.657l-11.3145 -11.3145l141.657 -141.656l141.657 141.656l-11.3145 11.3145l-130.343 -130.344z" />
    <glyph glyph-name="uniF10E" unicode="&#xf10e;" 
d="M511.345 233.193c0 -115.892 -98.6094 -193.152 -246.015 -193.152c-20.332 0 -42.6973 3.0498 -62.0127 7.11621c-45.7461 -48.7959 -98.6084 -73.1943 -100.642 -74.2109c-1.0166 -1.0166 -2.0332 -1.0166 -3.0498 -1.0166s-3.0498 0 -4.06641 1.0166
c-2.0332 1.0166 -3.0498 3.0498 -3.0498 6.09961v102.676c-42.6973 30.4971 -92.5098 81.3271 -92.5098 151.472c0 116.907 113.858 209.417 258.214 209.417s253.131 -90.4766 253.131 -209.417z" />
    <glyph glyph-name="uniF11D" unicode="&#xf11d;" 
d="M64.6396 404.318h382.745c5.25684 0 9.48047 4.21875 9.48047 9.38184c0 5.2002 -4.22363 9.44336 -9.48047 9.44336h-382.745c-5.2373 0 -9.47949 -4.24316 -9.47949 -9.44336c0 -5.16309 4.24219 -9.38184 9.47949 -9.38184zM451.242 296.7h-390.497
c-5.23828 0 -9.48047 -4.24414 -9.48047 -9.40039c0 -5.20605 4.24219 -9.4248 9.48047 -9.4248h390.497c5.23828 0 9.49316 4.21875 9.49316 9.4248c0 5.15625 -4.25488 9.40039 -9.49316 9.40039zM451.242 170.213h-390.497
c-5.23828 0 -9.48047 -4.23828 -9.48047 -9.44434c0 -5.16211 4.24219 -9.39941 9.48047 -9.39941h390.497c5.23828 0 9.49316 4.2373 9.49316 9.39941c0 5.20605 -4.25488 9.44434 -9.49316 9.44434zM447.385 43.7061h-382.745
c-5.2373 0 -9.47949 -4.24316 -9.47949 -9.4248s4.24219 -9.4248 9.47949 -9.4248h382.745c5.25684 0 9.48047 4.24316 9.48047 9.4248s-4.22363 9.4248 -9.48047 9.4248z" />
    <glyph glyph-name="uniF12B" unicode="&#xf12b;" 
d="M256 464.352l69.6885 -200.352h193.623l-157.928 -122.84l70.3047 -210.928l-175.688 131.768l-175.688 -131.76l70.3047 210.928l-157.928 122.832h193.623zM342.616 146.832l130.072 101.168h-158.377l-58.3115 167.648l-58.3115 -167.648h-158.377l130.072 -101.16
l-57.6953 -173.072l144.312 108.232l144.312 -108.24z" />
    <glyph glyph-name="uniF135" unicode="&#xf135;" 
d="M77.3096 -43.5195h287.235v428.545c0 24.7441 -20.3105 45.0547 -45.0547 45.0547h-197.12c-24.7432 0 -45.0605 -20.3096 -45.0605 -45.0547v-428.545zM349.185 -28.1602h-256.515v413.186c0 16.2139 13.4834 29.6943 29.7002 29.6943h197.12
c16.2158 0 29.6943 -13.4785 29.6943 -29.6943v-413.186zM19.9697 -30.7197v-15.3604h397.311v15.3604h-397.311zM142.85 241.665h155.136c11.2168 0 20.4795 8.86523 20.4795 19.9648v93.1855c0 10.9541 -9.01562 19.9697 -19.9697 19.9697h-155.646
c-10.96 0 -19.9697 -9.01855 -19.9697 -19.9697v-93.1855c0 -10.9541 9.01465 -19.9648 19.9697 -19.9648zM142.85 257.025c-2.36426 0 -4.60938 2.24902 -4.60938 4.60449v93.1855c0 2.35742 2.25 4.60938 4.60938 4.60938h155.646
c2.35547 0 4.61035 -2.25391 4.61035 -4.60938v-93.1855c0 -2.20996 -2.00781 -4.60449 -5.12012 -4.60449h-155.136zM356.621 270.846l-0.541992 -15.3506c0.858398 -0.0302734 41.2305 -1.10645 41.2305 -38.9199v-112.213s-0.364258 -59.7451 49.543 -57.2471
c46.6094 2.35645 52.8574 42.9287 52.8574 56.3096v203.148l-63.0166 55.5381l-10.1562 -11.5234l57.8125 -50.9512v-196.212c0 -11.1992 -3.99121 -39.2363 -38.2725 -40.9697c-31.9766 -1.60059 -33.3672 40.3252 -33.4072 42.082v112.038
c0 53.3496 -56.0488 54.2705 -56.0488 54.2705zM446.975 273.41h15.3604v61.9502h-15.3604v-61.9502z" />
    <glyph glyph-name="uniF149" unicode="&#xf149;" 
d="M206.947 401.578c0.825195 -3.7168 1.30469 -8.20898 1.38672 -13.5273c-18.9932 -8.20801 -26.3096 -14.0879 -25.9795 -42.248v-17.2432l-13.0146 -2.62598v19.9844c0 41.4893 15.8721 48.0293 37.6074 55.6602v0zM244.785 410.463v0
c41.1582 6.16113 48.2607 -6.02832 48.2607 -51.5303v-8.1748l-12.8828 -2.64258v10.8174c0 29.2832 0.661133 43.3389 -33.3623 38.4502c-0.462891 4.67383 -1.15625 9.06738 -2.01562 13.0801zM110.708 314.207v0l-13.0146 -2.57617v63.6533
c0 54.1562 32.5693 62.2988 64.4951 69.5322c59.2432 13.4443 72.126 -17.5068 72.2578 -58.8467v-46.9717l-13.0312 -2.62598v50.7041c0 21.8516 -3.38574 56.1719 -56.6338 43.6855c-35.3447 -8.27441 -54.4863 -19.6377 -54.0732 -56.7168v-59.8379zM266.686 156.924v0
v87.1895l-100.203 -14.6836v-72.5059h100.203zM266.686 54.4746v0v92.457h-100.203v-77.8076zM156.507 156.924v0v71.9277l-79.4922 -11.2305v-60.6973h79.4922zM156.507 69.752v0v77.1797h-79.4922v-65.9814zM358.202 347.999v0l71.5967 -26.0459v-351.678
l-71.5967 -26.0459l-358.202 71.6143v260.525z" />
    <glyph glyph-name="uniF14A" unicode="&#xf14a;" 
d="M17.9199 326.144l139.264 -131.071l-139.264 -142.849v273.92zM468.992 27.6484h-424.96l139.264 141.823l72.7041 -68.6074l74.2402 70.1436zM460.8 361.984l-204.8 -194.561l-204.8 194.561h409.6zM495.104 326.144v-273.92l-138.752 143.36z" />
    <glyph glyph-name="uniF10B" unicode="&#xf10b;" 
d="M114.343 133.657l11.3145 -11.3145l130.343 130.344l130.343 -130.344l11.3145 11.3145l-141.657 141.656z" />
    <glyph glyph-name="uniF111" unicode="&#xf111;" 
d="M112 376v16h-112v-456h368v456h-112v-16h96v-424h-336v424h96zM208 432v-32h33.7539l12 -48h-139.508l12 48h33.7539v32h48zM224 416v32h-80v-32h-30.2461l-20 -80h180.492l-20 80h-30.2461zM109.657 181.657l-11.3145 -11.3145l61.6572 -61.6562l109.657 109.656
l-11.3145 11.3145l-98.3428 -98.3438z" />
    <glyph glyph-name="uniF107" unicode="&#xf107;" 
d="M96 288v-16h320v16h-320zM96 192v-16h320v16h-320zM96 96v-16h320v16h-320z" />
    <glyph glyph-name="uniF10A" unicode="&#xf10a;" 
d="M221.657 333.657l-11.3145 -11.3145l130.344 -130.343l-130.344 -130.343l11.3145 -11.3145l141.656 141.657z" />
    <glyph glyph-name="uniF100" unicode="&#xf100;" 
d="M323.45 333.736c59.2959 0 97.2129 -57.3721 97.2129 -57.3721s-57.8408 -31.3877 -57.8408 -99.5547c0 -80.9062 72.6621 -104.441 72.6621 -104.441s-57.3525 -136.081 -121.752 -136.081c-36.2119 0 -38.6318 20.832 -86.7559 20.832
c-41.791 0 -55.8848 -20.832 -87.7207 -20.832c-60.7627 0 -139.256 132.647 -139.256 240.522c0 112.055 79.4707 156.927 129.287 156.927c43.748 0 61.9668 -25.7441 97.2012 -25.7441c29.6543 0 52.9883 25.7441 96.9619 25.7441v0zM313.256 448
c8.74023 -54.9229 -41.0762 -122.85 -100.61 -120.64c-8.75293 69.8838 55.4082 116.953 100.61 120.64v0z" />
    <glyph glyph-name="uniF147" unicode="&#xf147;" 
d="M169.56 35.2617c-89.2705 0 -127.982 16.9902 -169.56 50.667c23.9053 -0.623047 90.5215 1.20215 149.001 41.2041c-33.7305 6.69434 -70.2285 24.9658 -81.4473 71.25l-3.36133 13.8145l12.5342 -5.82031c5.75586 -2.6748 12.5342 -4.47559 19.6299 -5.26562
c-31.5361 16.1064 -61.1885 45.4834 -64.1572 99.0508l-1.00098 17.6279l12.2246 -11.7832c11.4785 -11.0713 21.2891 -14.9873 29.3037 -16.2686c-57.8369 54.4258 -27.8018 133.92 -27.4678 134.778l4.10742 10.5225l7.20898 -8.69141
c0.412109 -0.496094 41.4014 -49.4697 90.541 -73.8359c38.5059 -19.1006 84.4902 -25.3574 103.002 -27.1885c-2.56641 21.1719 -2.75293 74.6895 52.8018 107.409c16.4746 9.70215 33.7344 14.625 51.3086 14.625c39.3008 0 68.4375 -24.2393 76.5352 -31.7627
c16.8779 1.47266 47.6436 16.2295 55.9229 22.4375l13.2852 9.96777l-2.7334 -16.3818c-1.85059 -11.0713 -12.0488 -28.4053 -24.293 -41.8477c13.2109 1.07031 33.6514 5.7666 39.0547 10.1299c-5.60938 -29.7256 -41.3467 -53.543 -50.1709 -60.9434
c-0.0292969 -11.5137 -1.30078 -51.3389 -16.1562 -99.2422c-16.0332 -51.6924 -51.6182 -122.578 -130.102 -166.688c-44.5908 -25.0537 -93.7061 -37.7598 -145.992 -37.7646h-0.0195312z" />
    <glyph glyph-name="uniF123" unicode="&#xf123;" 
d="M168 112c-92.6318 0 -168 75.3604 -168 168s75.3682 168 168 168s168 -75.3604 168 -168c0 -43.4482 -16.7197 -82.96 -43.8721 -112.816l35.8721 -35.8721l24 24l163.312 -163.312l-59.3115 -59.3115l-163.312 163.312l24 24l-35.8721 35.8721
c-29.8564 -27.1602 -69.3682 -43.8721 -112.816 -43.8721zM492.688 -8l-140.688 140.688l-36.6885 -36.6885l140.688 -140.688zM168 432c-83.8164 0 -152 -68.1836 -152 -152s68.1836 -152 152 -152s152 68.1836 152 152s-68.1836 152 -152 152z" />
    <glyph glyph-name="uniF13B" unicode="&#xf13b;" 
d="M368 448v0c26.4639 0 48 -21.5361 48 -48v-416c0 -26.4639 -21.5361 -48 -48 -48h-320c-26.4639 0 -48 21.5361 -48 48v416c0 26.4639 21.5361 48 48 48h320zM32 400v0v-48c0 -8.83203 7.16797 -16 16 -16h320c8.83203 0 16 7.16797 16 16v48
c0 8.83203 -7.16797 16 -16 16h-320c-8.83203 0 -16 -7.16797 -16 -16zM368 -32v0c8.83203 0 16 7.16797 16 16v322.96c-5.02441 -1.80762 -10.3682 -2.95996 -16 -2.95996h-320c-5.63184 0 -10.96 1.15234 -16 2.95996v-322.96c0 -8.83203 7.16797 -16 16 -16h320zM160 224
h-16v16c0 8.84766 -7.15234 16 -16 16s-16 -7.15234 -16 -16v-16h-16c-8.84766 0 -16 -7.15234 -16 -16s7.15234 -16 16 -16h16v-16c0 -8.84766 7.15234 -16 16 -16s16 7.15234 16 16v16h16c8.84766 0 16 7.15234 16 16s-7.15234 16 -16 16zM320 224h-64
c-8.84766 0 -16 -7.15234 -16 -16s7.15234 -16 16 -16h64c8.84766 0 16 7.15234 16 16s-7.15234 16 -16 16zM320 112h-64c-8.84766 0 -16 -7.15234 -16 -16s7.15234 -16 16 -16h64c8.84766 0 16 7.15234 16 16s-7.15234 16 -16 16zM320 48h-64
c-8.84766 0 -16 -7.15234 -16 -16s7.15234 -16 16 -16h64c8.84766 0 16 7.15234 16 16s-7.15234 16 -16 16zM171.312 107.312c-6.25586 6.25684 -16.3672 6.25684 -22.623 0l-20.6885 -20.6875l-20.6885 20.6875c-6.25586 6.25684 -16.3672 6.25684 -22.623 0
c-6.25684 -6.25586 -6.25684 -16.3672 0 -22.623l20.6875 -20.6885l-20.6875 -20.6885c-6.25684 -6.25586 -6.25684 -16.3672 0 -22.623c3.11914 -3.12012 7.21582 -4.68848 11.3115 -4.68848s8.19238 1.56836 11.3115 4.68848l20.6885 20.6875l20.6885 -20.6875
c3.11914 -3.12012 7.21582 -4.68848 11.3115 -4.68848s8.19238 1.56836 11.3115 4.68848c6.25684 6.25586 6.25684 16.3672 0 22.623l-20.6875 20.6885l20.6875 20.6885c6.25684 6.25586 6.25684 16.3672 0 22.623z" />
    <glyph glyph-name="uniF126" unicode="&#xf126;" 
d="M256 448c68.376 0 132.664 -26.6318 181.016 -74.9922c48.3604 -48.3516 74.9922 -112.632 74.9922 -181.008s-26.6318 -132.656 -74.9922 -181.008c-48.3516 -48.3604 -112.64 -74.9922 -181.016 -74.9922c-68.3838 0 -132.664 26.6318 -181.016 74.9922
c-48.3604 48.3516 -74.9922 112.632 -74.9922 181.008s26.6318 132.656 74.9922 181.008c48.3516 48.3604 112.632 74.9922 181.016 74.9922zM425.704 22.3037c45.3359 45.3281 70.3037 105.593 70.3037 169.696s-24.9678 124.368 -70.3037 169.696
c-45.3281 45.3359 -105.601 70.3037 -169.704 70.3037c-64.1123 0 -124.376 -24.9678 -169.704 -70.3037c-45.3359 -45.3281 -70.3037 -105.593 -70.3037 -169.696s24.9678 -124.368 70.3037 -169.696c45.3281 -45.3359 105.592 -70.3037 169.704 -70.3037
c64.1035 0 124.376 24.9678 169.704 70.3037zM232 72v32h16v-32h-16zM256 328c42.3916 0 72 -26.3203 72 -64c0 -36.5195 -50.2803 -62.0879 -52.4238 -63.1602c-1.08008 -0.551758 -27.5762 -14.7676 -27.5762 -56.8398v-8h-16v8c0 52.3438 34.9355 70.416 36.4238 71.1602
c12.1123 6.08008 43.5762 26.7197 43.5762 48.8398c0 29.1602 -21.9844 48 -56 48c-49.6318 0 -56 -17.1035 -56 -32h-16c0 31.8477 24.2236 48 72 48z" />
    <glyph glyph-name="uniF127" unicode="&#xf127;" 
d="M26.2812 155.012c-0.973633 -1.94727 -1.94629 -3.89355 -6.81348 -4.86719c-2.91992 -0.973633 -4.86719 1.94629 -4.86719 1.94629c-0.973633 2.9209 -0.973633 6.81445 0 11.6807c1.94727 6.81445 3.89355 15.5742 9.73438 23.3613
c2.91992 3.89355 6.81348 9.73438 16.5469 16.5479c3.89355 2.91992 9.73438 6.81348 24.335 10.707c3.89355 0.973633 8.76074 1.94727 12.6543 1.94727c1.94629 0 4.86621 -0.973633 5.83984 -3.89355c0.973633 -1.94727 0 -3.89355 -0.973633 -5.84082
c-1.94629 -1.94629 -4.86621 -1.94629 -7.78711 -2.91992c-11.6807 -1.94727 -20.4404 -5.84082 -27.2539 -10.707c-7.78711 -4.86719 -12.6543 -12.6543 -14.6016 -16.5479c-4.86621 -8.76074 -5.83984 -17.5205 -6.81348 -21.4141zM299.803 272.791
c2.91992 0.973633 5.83984 0 5.83984 -2.91992c0.973633 -0.973633 3.89355 -5.84082 4.86719 -7.78711c4.86621 -7.78711 3.89355 -6.81445 8.75977 -16.5479c5.84082 -9.7334 5.84082 -13.627 5.84082 -18.4941c0 -2.91992 0 -8.76074 -2.91992 -12.6543
c-0.973633 -2.91992 -6.81445 -8.76074 -8.76074 -11.6807c-1.94727 -2.91992 -6.81348 -7.78711 -20.4414 -22.3877c-6.81348 -6.81348 -13.627 -13.627 -22.3877 -21.4141c-1.94629 -1.94727 -5.83984 -4.86719 -11.6807 -6.81445
c-1.94629 -0.972656 -5.83984 -1.94629 -11.6807 -1.94629h-18.4941h-19.4678h-19.4678h-24.334c-1.94727 0 -5.84082 0 -7.78711 0.973633c-2.9209 0.972656 -2.9209 2.91992 -2.9209 5.83984c0.973633 2.91992 2.9209 4.86719 5.84082 4.86719h17.5205
c1.94727 0.973633 23.3613 0.973633 42.8291 0.973633h25.3086c1.94629 0 5.83984 0 9.7334 1.94629c3.89355 1.94727 6.81348 3.89355 8.76074 5.84082l14.6006 14.6006c8.76074 7.78711 18.4941 17.5205 27.2549 28.2275c1.94629 1.94727 6.81348 7.78711 6.81348 9.73438
c0 3.89355 0 5.83984 -0.973633 9.7334c-0.973633 1.94727 -1.94629 3.89355 -3.89355 8.76074c-3.89355 9.7334 -6.81348 13.627 -7.78711 16.5479c-0.972656 2.91992 -3.89355 6.81348 -3.89355 9.7334c0 1.94727 0.973633 3.89355 2.9209 4.86719zM229.719 319.514
c0 3.89355 1.94629 5.83984 4.86719 5.83984c3.89355 0.973633 5.83984 0.973633 8.75977 0.973633c5.84082 0.973633 8.76074 0.973633 16.5479 0.973633c9.7334 0.972656 18.4941 0 23.3613 -0.973633c5.83984 -1.94727 9.7334 -2.91992 15.5742 -6.81348
c2.91992 -2.9209 5.83984 -6.81445 11.6807 -14.6016c3.89355 -5.83984 11.6807 -17.5205 13.627 -21.4141c4.86719 -10.707 11.6807 -21.4141 16.5479 -31.1484c6.81348 -14.6006 12.6543 -26.2812 20.4404 -38.9355c0.973633 -0.972656 3.89355 -4.86621 4.86719 -9.7334
c0 -1.94727 -1.94629 -4.86719 -3.89355 -5.84082c-2.91992 -0.972656 -5.83984 0 -7.78711 2.9209c-5.83984 9.7334 -12.6533 21.4141 -16.5469 30.1748c-0.973633 2.91992 -6.81445 12.6533 -16.5479 31.1484c-9.73438 19.4678 -16.5479 29.2012 -21.4141 36.0146
c-1.94727 1.94727 -3.89355 5.84082 -8.76074 11.6807c0 0.973633 -4.86719 3.89355 -10.707 4.86719c-3.89355 0.973633 -9.73438 1.94629 -22.3887 1.94629c-11.6797 -0.972656 -15.5732 -1.94629 -22.3877 -1.94629c-2.91992 0 -5.83984 1.94629 -5.83984 4.86719z
M397.141 271.817c0 -10.707 0.973633 -12.6543 0.973633 -22.3877c0 -5.84082 -0.973633 -7.78711 -1.94727 -10.707c-0.972656 -1.94727 -2.91992 -6.81348 -7.78711 -8.76074c-0.972656 -0.973633 -2.91992 -0.973633 -6.81348 -0.973633
c-8.76074 0 -15.5742 4.86719 -18.4941 6.81445c-2.91992 1.94629 -11.6807 8.75977 -14.6006 20.4404c-0.973633 2.91992 -2.91992 12.6543 0.973633 22.3877c2.91992 7.78711 7.78711 11.6807 9.7334 13.6279c0.973633 0.973633 4.86719 3.89355 9.7334 6.81348
c2.9209 0.973633 6.81445 2.91992 11.6807 2.91992c0.973633 0 3.89355 0 5.84082 -0.973633c0.973633 -0.972656 2.91992 -1.94629 5.83984 -4.86621c0.973633 -0.973633 3.89355 -3.89355 4.86719 -11.6807v-12.6543zM385.46 253.323
c0.973633 6.81348 0 4.86719 0.973633 13.627v11.6807c0 2.9209 -0.973633 7.78711 -0.973633 8.76074c0 3.89355 -1.94629 4.86719 -1.94629 4.86719c-0.973633 0.973633 -2.9209 0 -3.89355 0c-3.89355 0 -6.81445 -1.94727 -8.76074 -2.91992
c-3.89355 -1.94727 -4.86719 -3.89355 -5.84082 -4.86719c-0.972656 -0.973633 -3.89355 -4.86719 -4.86621 -7.78711c-2.91992 -6.81348 -1.94727 -12.6543 -0.973633 -17.5215c1.94629 -7.78711 5.83984 -10.707 7.78711 -12.6533
c1.94629 -0.973633 3.89355 -2.9209 9.7334 -4.86719c2.9209 -0.973633 5.84082 -1.94629 6.81445 -0.973633c2.91992 2.91992 1.94629 4.86719 1.94629 5.84082v6.81348zM22.3877 207.574c-1.94629 0.973633 -2.91992 4.86719 -0.973633 7.78711
c1.94727 1.94629 4.86719 5.83984 10.708 9.7334c9.7334 5.84082 11.6807 6.81445 13.627 7.78711c5.83984 2.9209 9.7334 3.89355 14.6006 4.86719c5.84082 0.973633 11.6807 1.94727 21.415 1.94727c6.81348 0 15.5742 0 27.2539 -0.973633
c4.86719 -0.973633 20.4414 -1.94727 33.0957 -2.91992c2.91992 0 6.81348 -0.973633 12.6533 0.972656c3.89355 0.973633 5.84082 1.94727 8.76074 3.89355c9.73438 4.86719 16.5479 10.707 16.5479 10.707c6.81348 4.86719 12.6543 9.73438 18.4941 13.6279
c4.86719 3.89355 13.627 9.7334 25.3076 13.627c6.81445 2.9209 16.5479 5.84082 29.2021 4.86719c11.6807 -0.973633 19.4678 -4.86719 22.3877 -6.81348c3.89355 -1.94727 10.707 -5.84082 16.5479 -14.6006c4.86621 -7.78711 6.81348 -14.6016 6.81348 -16.5479
c0.973633 -3.89355 1.94629 -11.6807 -1.94727 -19.4678s-9.7334 -11.6807 -11.6807 -12.6543c-4.86621 -2.91992 -9.7334 -3.89355 -19.4678 -5.83984c-7.78711 -0.973633 -13.627 -1.94727 -20.4404 -1.94727c-1.94727 -0.972656 -6.81348 -0.972656 -16.5479 -0.972656
h-22.3877h-31.1484h-19.4678c-1.94629 0 -4.86621 0 -7.78711 -1.94727c-0.972656 0 -1.94629 -1.94629 -1.94629 -4.86719c0 -2.91992 2.91992 -4.86621 2.91992 -5.83984c1.94727 -1.94629 7.78711 -1.94629 9.7334 -1.94629c5.84082 0 14.6016 0.972656 22.3887 0.972656
c14.6006 0 12.6533 0.973633 31.1475 0.973633c2.9209 0 14.6016 0.973633 37.9629 0.973633c1.94629 0 3.89355 0.972656 5.83984 -1.94727c0.973633 -1.94629 1.94629 -4.86621 0.973633 -5.83984c-0.973633 -1.94727 -1.94727 -3.89355 -4.86719 -3.89355h-12.6543
h-19.4678c-3.89355 0 -10.707 -0.973633 -23.3604 -0.973633h-22.3887h-19.4678c-6.81348 0 -10.707 1.94727 -14.6006 5.84082c-0.972656 0.972656 -6.81348 6.81348 -5.83984 15.5732c0.973633 7.78711 6.81348 11.6807 7.78711 12.6543
c3.89355 2.91992 10.707 3.89355 14.6006 3.89355h14.6006h23.3613h31.1484c10.707 0 15.5742 0.973633 22.3877 0.973633c8.76074 0.973633 18.4941 1.94629 23.3613 3.89355c4.86719 0.973633 9.7334 3.89355 11.6807 6.81348
c3.89355 6.81348 2.91992 13.627 2.91992 16.5479c-0.973633 7.78711 -5.83984 12.6533 -7.78711 15.5742c-7.78711 8.75977 -17.5205 10.707 -21.4141 11.6807c-1.94727 0 -7.78711 1.94629 -15.5742 0.972656c-5.84082 -0.972656 -14.6006 -3.89355 -23.3613 -7.78711
c-10.707 -5.83984 -18.4941 -10.707 -20.4414 -12.6533c-4.86621 -3.89355 -5.83984 -5.84082 -20.4404 -16.5479c-3.89355 -2.91992 -7.78711 -5.83984 -12.6543 -7.78711c-4.86719 -1.94629 -8.76074 -2.91992 -11.6807 -2.91992c-5.83984 -0.973633 -9.7334 0 -13.627 0
c-6.81445 0.973633 -14.6016 0.973633 -21.415 1.94629c-8.76074 0 -17.5205 0.973633 -27.2549 0.973633c-13.627 0 -21.4141 -1.94629 -23.3613 -1.94629c-5.83984 -0.973633 -12.6533 -2.9209 -16.5469 -4.86719c-4.86719 -1.94727 -10.707 -6.81348 -13.6279 -8.76074
c-3.89355 -2.91992 -6.81348 -6.81348 -8.75977 -7.78711h-1.94727c-0.973633 0 -0.973633 -0.973633 -3.89355 0.973633zM434.129 177.399c19.4678 -20.4414 19.4678 -52.5625 0 -73.0039c-20.4404 -20.4414 -52.5625 -20.4414 -73.0039 0
c-20.4404 20.4414 -20.4404 52.5625 0 73.0039c20.4414 20.4404 52.5635 20.4404 73.0039 0zM419.528 118.996c12.6543 11.6807 12.6543 32.1221 0 44.7754c-12.6533 12.6543 -32.1211 12.6543 -44.7754 0c-12.6543 -12.6533 -12.6543 -32.1211 0 -44.7754
s32.1221 -12.6543 44.7754 0zM126.54 175.452c19.4678 -20.4404 19.4678 -52.5625 0 -73.0039c-20.4414 -20.4404 -52.5625 -20.4404 -73.0039 0c-20.4414 20.4414 -20.4414 52.5635 0 73.0039c19.4678 19.4678 52.5625 19.4678 73.0039 0zM111.939 116.076
c12.6533 12.6543 12.6533 33.0947 0 44.7754c-12.6543 12.6543 -32.1221 12.6543 -44.7764 0c-12.6533 -12.6543 -12.6533 -32.1211 0 -44.7754c12.6543 -12.6543 32.1221 -12.6543 44.7764 0z" />
    <glyph glyph-name="uniF11A" unicode="&#xf11a;" 
d="M425.152 285.832l12.6152 -37.832h74.2324v-112h-74.2324l-12.6152 -37.832l50.1592 -50.168l-75.3115 -75.3203l-50.1602 50.1602l-37.8398 -12.6074v-74.2324h-112v74.2324l-37.8398 12.6152l-50.1602 -50.1592l-75.3115 75.3115l50.1592 50.168l-12.6152 37.832
h-74.2324v112h74.2324l12.6152 37.832l-50.1592 50.168l75.3115 75.3115l50.1602 -50.1514l37.8398 12.6074v74.2324h112v-74.2324l37.8398 -12.6152l50.1602 50.1592l75.3115 -75.3115zM496 152v80h-69.7676l-19.3848 58.168l45.8408 45.832l-52.6885 52.6885
l-45.8398 -45.8486l-58.1602 19.3926v69.7676h-80v-69.7676l-58.1602 -19.3848l-45.8398 45.8408l-52.6885 -52.6885l45.8408 -45.832l-19.3848 -58.168h-69.7676v-80h69.7676l19.3848 -58.168l-45.8408 -45.832l52.6885 -52.6885l45.8398 45.8486l58.1602 -19.3926
v-69.7676h80v69.7676l58.1602 19.3848l45.8398 -45.8408l52.6885 52.6885l-45.8408 45.832l19.3848 58.168h69.7676zM256 248c30.8799 0 56 -25.1279 56 -56s-25.1201 -56 -56 -56s-56 25.1279 -56 56s25.1201 56 56 56zM256 152c22.0557 0 40 17.9443 40 40
s-17.9443 40 -40 40s-40 -17.9443 -40 -40s17.9443 -40 40 -40z" />
    <glyph glyph-name="uniF10D" unicode="&#xf10d;" 
d="M511.345 233.193v0v0c0 -115.892 -98.6094 -193.152 -246.015 -193.152c-20.332 0 -42.6973 3.0498 -62.0127 7.11621c-45.7461 -48.7959 -98.6084 -73.1943 -100.642 -74.2109c-1.0166 -1.0166 -2.0332 -1.0166 -3.0498 -1.0166s-3.0498 0 -4.06641 1.0166
c-2.0332 1.0166 -3.0498 3.0498 -3.0498 6.09961v102.676c-42.6973 30.4971 -92.5098 81.3271 -92.5098 151.472c0 116.907 113.858 209.417 258.214 209.417s253.131 -90.4766 253.131 -209.417zM266.347 55.29v0v0c137.239 0 229.749 71.1611 228.732 178.92
c0 109.791 -101.659 193.151 -236.865 193.151c-136.224 0 -242.965 -85.3936 -241.948 -193.151c0 -65.0615 48.7959 -111.825 89.46 -140.289c2.0332 -1.0166 3.0498 -3.0498 3.0498 -6.09961v-94.543c18.2979 9.14941 55.9121 32.5303 87.4268 68.1113
c2.03223 2.0332 4.06543 2.0332 7.11523 2.0332c19.3154 -4.06641 42.6973 -8.13281 63.0293 -8.13281z" />
    <glyph glyph-name="uniF115" unicode="&#xf115;" 
d="M136 -67.3115v515.312h240v-515.312l-120 120zM152 432v-460.688l104 104l104 -104v460.688h-208z" />
    <glyph glyph-name="uniF113" unicode="&#xf113;" 
d="M38.1045 -37.542c0 -10.6113 -8.79492 -19.3076 -19.1855 -19.3076c-10.2773 0 -18.9189 8.69629 -18.9189 19.4316c0 35.2617 14.165 61.7207 33.7803 81.1436c27.293 26.5908 65.3975 38.3008 88.0898 40.3652c4.5918 0.544922 8.6416 2.3457 11.4844 5.10352
c1.74902 1.78418 2.83398 4.12891 3.35254 6.33398c-17.8252 15.0137 -26.1992 35.6748 -32.9375 53.165c-3.53906 8.54785 -6.49512 15.7158 -8.13086 17.7803l-0.388672 0.140625l-0.154297 0.131836h-0.121094v0.140625
c-7.97754 7.44824 -19.1865 21.4951 -24.9932 37.4746c-5.95215 15.8477 -7.43457 33.3379 1.48242 49.3086c-4.71387 14.6094 -7.16016 30.6045 -7.16016 47.1211c-0.274414 21.0742 2.96484 42.4463 9.45996 61.9932l0.80957 1.66797
c9.19238 27.4082 24.8477 47.5088 44.8516 61.1592c21.332 14.8809 47.8311 21.6201 77.5693 22.3135c11.0635 0.131836 26.2002 0.413086 40.915 -2.46875c16.8945 -3.04785 32.8486 -9.64551 42.583 -23.5693c19.9717 1.80078 37.4082 -9.48828 51.0713 -26.0371
c16.7402 -19.8281 28.7666 -48.7637 31.334 -65.8496c2.14648 -12.6602 2.14648 -25.8975 0.275391 -39.9531c-1.36035 -10.876 -3.78223 -22.5859 -7.0459 -34.1719c10.2773 -16.5244 8.91699 -34.9893 2.98828 -51.2412
c-5.95215 -15.9795 -17.04 -30.2988 -25.1387 -37.6074l-0.266602 -0.280273l-0.275391 -0.272461v-0.140625c-2.02539 -1.92383 -4.98926 -9.22461 -8.37402 -17.6396c-6.61719 -17.3496 -14.5947 -37.5898 -32.0312 -52.3389
c0.420898 -2.61816 1.75 -5.0957 3.66113 -7.16016c2.68848 -2.75781 7.00488 -4.55859 11.4834 -5.10352c22.5713 -2.06445 60.6768 -13.7744 87.9609 -40.3652c19.4375 -19.291 33.7559 -45.8818 33.7559 -81.2676c0 -10.6113 -8.6416 -19.3076 -18.8867 -19.3076
c-10.5439 0 -18.9424 8.69629 -18.9424 19.4316c0 23.1553 -9.42773 40.3652 -22.2715 53.041c-20.126 19.6953 -48.2363 28.5234 -65.001 29.7539c-13.5088 1.3877 -25.9326 7.16016 -35.1162 16.5332c-10.2773 10.1982 -24.8711 48.6318 -5.80664 60.8867
c13.3623 8.13379 20.4004 25.6328 25.9316 40.3818c5.28906 13.0801 9.58105 24.3691 18.2549 32.3633v-0.272461l0.121094 0.272461c4.73828 4.26953 11.752 12.9482 15.2588 22.6025c2.7207 7.15137 3.26367 14.3193 -1.32812 19.2734h0.121094
c-4.98926 5.65723 -6.77051 15.8564 -4.44629 22.8838c3.77441 12.2461 6.4707 23.6758 7.67773 34.708c1.23926 10.3398 1.50586 19.9688 -0.121094 29.4902c-1.63672 11.5527 -10.2773 31.6777 -22.5713 46.2783c-6.47168 7.86133 -13.5088 13.502 -19.4375 12.3867
c-6.64941 -0.949219 -13.1123 0 -19.0645 2.75781c-5.13477 2.63477 -9.73438 6.49121 -13.2412 11.5869l-1.20703 1.37012c-2.83496 4.41016 -10.1475 7.16797 -18.6436 8.69629c-11.208 2.06445 -23.9316 1.7832 -33.3906 1.50293
c-22.5391 -0.272461 -42.1221 -4.95508 -57.4121 -15.6992c-13.2422 -8.96777 -23.5195 -22.6016 -30.1357 -41.752l-0.542969 -1.51953c-4.98047 -15.2861 -7.82324 -32.2314 -7.54785 -48.7646c0.267578 -14.748 2.56738 -28.9189 7.28125 -40.7861
c2.16992 -3.70801 2.98828 -8.39062 2.02441 -12.6602c-2.02441 -12.6836 -12.0264 -13.2373 -6.07422 -29.7529c3.50684 -9.10059 10.2695 -17.7803 15.0146 -22.3223l0.518555 -0.833984h0.267578c8.25293 -7.83691 12.6904 -19.0098 17.7119 -31.8096
c5.95215 -14.749 12.958 -32.5283 26.1992 -40.9268c5.95312 -3.03125 10.002 -9.36523 10.002 -17.0859c0 -16.5244 -2.68848 -30.8525 -14.8691 -43.2559c-8.91699 -9.37305 -21.6074 -15.1455 -35.3838 -16.5332c-16.626 -1.23047 -44.5752 -10.0586 -64.5791 -29.7539
c-12.9658 -12.6758 -22.1504 -29.8857 -22.1504 -53.165z" />
    <glyph glyph-name="uniF109" unicode="&#xf109;" 
d="M157.214 316.451l-11.2715 -11.3555l208.781 -207.219l11.2715 11.3555zM146.682 108.409l11.3555 -11.2715l207.219 208.781l-11.3555 11.2715z" />
    <glyph glyph-name="uniF151" unicode="&#xf151;" 
d="M121.263 32.5615c-6.73633 4.49121 -6.73633 11.2275 -8.98242 13.4736c-2.24512 8.98242 0 17.9648 2.24609 20.2109c13.4736 22.4561 20.2109 29.1924 29.1934 42.666c2.24512 2.24609 17.9648 24.7021 47.1572 69.6143
c33.6846 47.1582 49.4033 71.8594 56.1406 83.0879c11.2285 15.7188 22.4561 33.6836 33.6846 49.4033c2.24512 2.24512 4.49121 6.73633 8.98242 11.2285c2.24512 2.24512 8.98242 4.49121 15.7188 4.49121c8.98242 0 13.4736 -4.49121 15.7197 -6.7373
c8.98242 -6.7373 22.4561 -26.9473 24.7012 -31.4385c11.2285 -17.9648 35.9297 -51.6494 53.8955 -76.3506c42.666 -62.8779 65.1221 -92.0703 65.1221 -94.3164c2.24609 -4.49121 24.7021 -38.1748 33.6846 -49.4033c2.24512 -2.24512 8.98242 -13.4736 4.49121 -24.7021
c-2.24609 -4.49121 -2.24609 -6.73633 -4.49121 -11.2275c-4.49121 -4.49121 -11.2285 -4.49121 -15.7197 -4.49121s-8.98242 -2.24609 -15.7188 6.73633c-11.2285 11.2285 -33.6846 47.1582 -44.9121 62.8779c-6.7373 11.2275 -29.1934 49.4033 -58.3867 85.333
c-17.9648 22.4561 -22.4561 33.6846 -33.6836 49.4033c-2.24609 4.49121 -11.2285 15.7197 -20.2109 29.1934c4.49121 4.49121 2.24609 11.2275 0 6.73633c0 -2.24512 -71.8594 -98.8066 -94.3154 -134.736c-20.2109 -31.4385 -40.4209 -60.6318 -62.877 -92.0703
c-2.24609 -2.24609 -11.2285 -11.2285 -20.2109 -13.4736c-6.7373 2.24512 -11.2285 4.49121 -11.2285 4.49121z" />
    <glyph glyph-name="uniF143" unicode="&#xf143;" 
d="M181.01 -51.9141c-25.1836 0 -40.8525 11.1924 -49.8066 35.8154c-22.3857 60.4404 -44.7705 121.999 -66.0361 181.32l-15.6699 43.0908c-2.79785 7.83496 -16.2285 48.1279 -16.2285 54.8438v0.55957v0.55957c1.67871 17.3486 22.9443 30.2197 41.9717 34.6973
c21.8252 5.03613 39.7334 0.55957 48.6875 -12.3125c2.23828 -3.35742 49.2471 -132.632 54.2842 -147.182h111.926h52.6045v0c18.4678 0 26.8623 -10.0732 30.7793 -18.4678c6.15625 -12.8711 5.59668 -25.1836 -1.11914 -35.8164h80.5869
c5.03613 0 9.51367 -0.55957 13.9902 -1.11914c10.0732 -2.23828 17.9082 -7.83496 22.9453 -15.1104c5.03613 -7.83398 6.15527 -17.9082 3.35742 -28.541c-5.03711 -19.0273 -10.6328 -40.293 -17.3486 -65.4766c-5.03613 -17.3477 -16.2295 -26.3018 -34.6963 -26.3018
h-204.824h-54.8438c0 -0.55957 -0.55957 -0.55957 -0.55957 -0.55957v0zM49.4971 262.597c1.11914 -5.03711 10.0732 -34.6973 15.1104 -49.2471l15.6689 -42.5322c21.8262 -59.3203 43.6514 -120.88 66.0361 -181.319c6.71582 -17.9082 16.2295 -24.624 34.1377 -24.624
h0.55957h54.8438h204.823c10.6338 0 15.6699 3.91797 18.4678 13.9912c6.71582 25.1836 12.3125 45.8896 17.3486 64.917c1.67871 6.15527 1.11914 11.1924 -1.67871 15.1094c-2.23828 3.91797 -6.71582 6.71582 -12.3115 7.83496
c-3.3584 0.55957 -6.71582 1.11914 -10.6328 1.11914h-109.128h-21.8252h-3.91797l-13.9902 -1.11914c-34.6973 -2.79785 -69.3936 -6.15625 -104.091 -8.9541l-3.91699 -0.55957l-5.59668 8.39453l2.23828 4.47656c1.11914 2.23926 1.67871 3.3584 6.71582 4.47754v0v0
c6.15625 1.11914 19.5869 2.79785 49.2471 5.59668c26.3027 2.79785 63.2383 5.5957 92.8984 5.5957c10.0732 0 13.9902 3.91797 16.2295 6.71582c2.79785 3.91699 6.71484 10.6328 1.11914 21.8252c-1.67871 3.91797 -5.59668 8.39453 -15.6699 8.39453v0h-52.6045
h-113.045v0c-7.27539 0 -11.7529 3.35742 -13.9912 10.0732c-10.6328 29.6602 -49.2471 135.43 -53.1641 144.943c-5.59668 7.83496 -19.0273 7.83496 -30.2207 5.03711c-16.2285 -4.47754 -27.9814 -13.4316 -29.6602 -20.1465v0zM71.3232 315.761h-21.2666
c-17.9082 0 -32.458 12.3125 -32.458 27.4219v63.7979c0 15.1104 14.5498 27.4219 32.458 27.4219h21.2666c17.9072 0 32.458 -12.3115 32.458 -27.4219v-63.7979c0 -15.1094 -14.5508 -27.4219 -32.458 -27.4219v0zM50.0566 418.173
c-8.39453 0 -15.6689 -5.03613 -15.6689 -10.6328v-63.7979c0 -5.5957 7.27441 -10.6328 15.6689 -10.6328h21.2666c8.39355 0 15.6689 5.03711 15.6689 10.6328v63.2383c0 5.59668 -7.27539 10.6328 -15.6689 10.6328h-21.2666v0.55957z" />
    <glyph glyph-name="uniF10C" unicode="&#xf10c;" 
d="M346.163 57.7188c1.43164 0.253906 -2.9082 -0.514648 2.53027 0.448242l1.78711 1.80469c0.740234 0.74707 44.1934 41.0186 55.1826 40.0625c28.583 -2.79102 85.2246 -58.1299 83.9463 -83.6855c-0.556641 -14.9434 -37.6562 -46.9521 -56.5801 -54.5225
c-3.77832 -1.50879 -32.1826 0.527344 -32.2979 0.540039c0 0 -98.2598 5.6748 -235.888 142.51c-137.627 137.62 -144.082 236.68 -144.082 236.68s-2.17969 28.5361 -0.489258 33.1953c7.47754 18.6943 38.8711 56.1553 53.9209 57.2705
c-7.99023 -0.392578 -8.39551 -0.213867 -0.397461 -0.0195312c26.4561 0.643555 81.9189 -57.4023 84.6104 -84.3516c0.491211 -11.2461 -40.042 -53.21 -40.7246 -53.8613l-1.91016 -1.82227l-0.300781 -1.7334c-0.967773 -5.58398 -5.76465 -43.2539 91.6689 -140.688
c95.6572 -95.6562 133.545 -92.7979 139.023 -91.8271zM341.449 73.5566c-9.65137 1 -46.0195 10.3271 -122.995 87.3037c-78.5283 78.5273 -86.4932 115.831 -87.2949 123.707c9.45996 9.30273 44.2148 41.3047 43.2314 63.7822l-0.00976562 0.222656l-0.0224609 0.222656
c-3.61719 36.2334 -61.8369 100.153 -100.951 99.2031l-0.199219 -0.00488281l-0.198242 -0.0146484c-28.1533 -2.08789 -59.166 -46.2207 -67.6885 -67.5264c-4.71582 -12.9941 -0.5 -40.3203 -0.484375 -40.4668c0.276367 -3.32129 10.2588 -107.996 148.726 -246.455
c139.72 -138.916 244.363 -146.997 245.667 -147.097c5.20898 -0.55957 28.0967 -4.11426 39.7412 0.537109c21.0762 8.42969 65.5703 40.4209 66.623 68.6807c1.9248 38.4443 -61.4336 96.6992 -98.46 100.314c-23.2158 2.02148 -59.9521 -36.7969 -65.6846 -42.4092z" />
    <glyph glyph-name="uniF130" unicode="&#xf130;" 
d="M429.511 197.12v0c42.0986 0 76.8008 -34.7021 76.8008 -76.7998s-34.7021 -76.8008 -76.8008 -76.8008c-40.3906 0 -73.3867 31.2891 -76.2305 70.543h-51.7695c-1.1377 0 -2.27539 0.568359 -3.41309 1.1377l-137.103 96.1416l-18.7725 -36.9775
c14.2217 -13.6533 22.7549 -32.9951 22.7549 -54.0439c0 -42.0977 -34.7021 -76.8008 -76.7998 -76.8008s-76.7998 34.7031 -76.7998 76.8008s34.7021 76.7998 76.7998 76.7998c17.0664 0 32.4268 -5.68945 45.5107 -14.791l41.5293 83.0576
c2.84473 5.68848 0.569336 13.084 -4.55078 16.498l-20.4805 13.6533c-6.82617 3.98145 -10.8086 11.9463 -10.8086 19.9111c0 13.6533 11.3779 24.4619 24.4619 24.4619h38.1152c3.41406 0 5.68945 -2.27539 5.68945 -5.68848
c0 -3.41406 -2.27539 -5.68945 -5.68945 -5.68945h-38.1152c-7.39551 0 -13.084 -6.25781 -13.084 -13.084c0 -4.55176 2.27539 -8.5332 5.68848 -10.8096l21.0488 -13.6533c10.2402 -6.82617 13.6533 -20.4795 7.96484 -31.2881l-2.84473 -5.68945h168.392l13.084 30.7197
h-19.9111c-3.41309 0 -5.68848 2.27637 -5.68848 5.68945s2.27539 5.68848 5.68848 5.68848h56.8887c3.41406 0 5.68945 -2.27539 5.68945 -5.68848s-2.27539 -5.68945 -5.68945 -5.68945h-25.0312l-13.6533 -32.9951c0 -0.569336 0.569336 -0.569336 0.569336 -1.1377
l34.1328 -60.8711c10.2402 4.55078 21.0498 7.39551 32.4268 7.39551zM153.6 120.32v0c0 16.4971 -6.25781 31.8574 -16.4971 43.2354l-1.1377 -2.27539c-7.39551 -18.2051 -23.8936 -35.2715 -44.9424 -46.0801c-0.569336 -0.569336 -1.1377 -0.569336 -2.27539 -0.569336
c-2.27637 0 -3.98242 1.1377 -5.12012 3.41406c-1.70703 2.84375 -0.569336 6.25684 2.27539 7.39551c18.2041 9.6709 33.5645 24.4619 39.8223 40.96l2.84473 5.68848c-11.3779 8.5332 -25.0312 13.6533 -40.3916 13.6533c-35.8398 0 -65.4219 -29.582 -65.4219 -65.4219
s29.582 -65.4229 65.4219 -65.4229s65.4219 29.583 65.4219 65.4229zM419.84 126.009v0l-27.3066 48.3555c-15.9287 -10.8086 -26.7373 -28.4443 -28.4443 -48.3555h55.751zM299.235 128.854v0l46.6494 113.777h-169.529l-10.2402 -21.0488zM310.045 126.009v0h43.2354
c1.70605 24.4619 14.791 46.0801 34.1328 58.5957l-30.1504 54.6133zM429.511 54.8975v0c35.8408 0 65.4229 29.583 65.4229 65.4229s-29.582 65.4219 -65.4229 65.4219c-9.6709 0 -18.7734 -2.27539 -26.7373 -5.68848l31.8574 -56.8896
c1.1377 -1.70605 1.1377 -3.98145 0 -5.68848s-2.84375 -2.84473 -5.12012 -2.84473h-64.8525c2.84375 -33.5645 30.7197 -59.7334 64.8525 -59.7334z" />
    <glyph glyph-name="uniF122" unicode="&#xf122;" 
d="M136 312v-120h320v-256h-400v256h64v120c0 74.9922 61.0078 136 136 136s136 -61.0078 136 -136v-24h-16v24c0 66.168 -53.832 120 -120 120s-120 -53.832 -120 -120zM440 -48v224h-368v-224h368zM248 32.8164c-18.2324 3.70312 -32 19.8721 -32 39.1836
c0 22.0557 17.9443 40 40 40s40 -17.9443 40 -40c0 -19.3115 -13.7676 -35.4717 -32 -39.1836v-24.8164h-16v24.8164zM256 96c-13.2324 0 -24 -10.7676 -24 -24s10.7676 -24 24 -24s24 10.7676 24 24s-10.7676 24 -24 24z" />
    <glyph glyph-name="uniF112" unicode="&#xf112;" 
d="M446.836 209.843v0c41.8916 -64.3887 55.0791 -130.327 58.1826 -130.327c0 -4.65527 -2.32812 -10.085 -6.98242 -11.6367h-4.6543c-2.32715 0 -6.98145 3.10254 -8.5332 6.20605c-62.0605 109.382 -149.722 121.019 -265.31 121.019v-105.504
c0 -3.87793 -1.55078 -8.5332 -6.20605 -10.084c-4.6543 -1.55176 -8.5332 -1.55176 -11.6357 1.55078l-191.612 176.873c-1.55176 0.775391 -3.10352 3.87891 -3.10352 6.98145c0 2.32715 0 5.43066 3.10352 6.98242l190.836 170.666
c3.10352 3.10352 8.5332 4.65527 11.6367 1.55176c3.10254 -3.10254 6.20605 -5.43066 6.20605 -10.085v-91.5391c93.8662 -3.10352 172.218 -48.0967 228.072 -132.654zM208.679 213.722v0c100.849 0 186.958 -6.98242 252.121 -77.5762
c-8.5332 19.3936 -18.6182 41.1152 -33.3574 62.8359c-53.5273 81.4551 -128 122.57 -220.315 122.57c-5.42969 0 -10.085 3.87891 -10.085 10.085v79.127l-163.685 -147.394l165.236 -152.049v92.3154c0 5.42969 3.87891 10.085 10.085 10.085z" />
    <glyph glyph-name="uniF128" unicode="&#xf128;" 
d="M417.7 91.4854c-13.165 0 -23.9053 10.7793 -23.9053 24.1543c0 13.376 10.7402 24.1553 23.9053 24.1553c13.1582 0 23.8945 -10.7773 23.8945 -24.1553c0 -13.377 -10.7363 -24.1543 -23.8945 -24.1543zM417.7 81.2451c18.8916 0 34.1348 15.4424 34.1348 34.3945
c0 18.9531 -15.2432 34.3955 -34.1348 34.3955c-18.8955 0 -34.1455 -15.4404 -34.1455 -34.3955c0 -18.9541 15.25 -34.3945 34.1455 -34.3945zM91.0449 91.4854c-13.165 0 -23.9053 10.7793 -23.9053 24.1543c0 13.376 10.7402 24.1553 23.9053 24.1553
c13.1592 0 23.9004 -10.7793 23.9004 -24.1553s-10.7412 -24.1543 -23.9004 -24.1543zM91.0449 81.2451c18.8906 0 34.1396 15.4414 34.1396 34.3945c0 18.9541 -15.249 34.3955 -34.1396 34.3955c-18.8945 0 -34.1445 -15.4404 -34.1445 -34.3955
c0 -18.9541 15.25 -34.3945 34.1445 -34.3945zM229.218 201.535l4.9248 1.39941l-7.0498 24.8203l-4.92578 -1.39941zM17.4561 204.824l-2.98242 4.16211c-13.4834 -9.66211 -17.1279 -44.9883 -12.9463 -72.2529c3.11523 -20.3125 11.3496 -39.7568 27.6123 -37.2539
l-0.779297 5.06055c-10.6348 -1.63672 -18.5547 11.9912 -21.7725 32.9688c-4.1416 27.002 0.851562 60.1387 10.8682 67.3154zM44.8418 100.658l-0.694336 5.07324c-4.14844 -0.567383 -8.36914 -0.582031 -15.6045 -1.16992l0.414062 -5.10352
c7.05469 0.573242 11.2637 0.568359 15.8848 1.2002zM17.9229 152.494l4.80371 1.77148c-3.3584 9.10547 8.66309 48.708 13.1172 51.0029l-1.0166 5.02051c-10.7598 -2.17871 -20.7793 -47.2891 -16.9043 -57.7949zM77.1094 214.531l-2.42871 4.50781
c-6.40625 -3.45117 -17.3223 -4.81738 -39.7861 -8.74219l0.880859 -5.04395c22.2959 3.89551 33.4102 5.00977 41.334 9.27832zM74.8174 219.107l2.15527 -4.64453c18.0205 8.36523 52.5547 33.9561 140.927 31.6982l0.130859 5.11816
c-89.2969 2.28125 -125.863 -24.1182 -143.213 -32.1719zM335.691 210.872l1.89746 4.75586c-21.6709 8.64551 -61.6592 35.6572 -119.629 35.6572v-5.12012c56.4902 0 95.0117 -26.2285 117.731 -35.293zM337.785 215.54l-2.29004 -4.58008
c14.9014 -7.45312 30.9033 -13.2197 53.2539 -14.9824l0.402344 5.10449c-21.6592 1.70801 -36.8379 7.19043 -51.3662 14.458zM389.209 201.077l-0.517578 -5.09375c38.3428 -3.89355 60.6836 -11.8877 91.1006 -25.7676l2.12598 4.6582
c-30.5928 13.96 -53.8418 22.2559 -92.709 26.2031zM481.827 174.915l-1.93457 -4.74023c17.373 -7.09082 27.5439 -18.5508 27.2539 -28.0518l5.11719 -0.15625c0.400391 13.1094 -12.4297 25.5986 -30.4365 32.9482zM512.234 141.619l-5.04883 0.851562
c-1.52246 -9.02734 -6.9209 -9.73535 -4.67969 -27.1572l5.07812 0.65332c-2.09863 16.3076 2.60254 13.5107 4.65039 25.6523zM507.605 115.64h-5.12012c0 -9.96582 -12.4854 -8.87109 -33.4746 -9.8877l0.248047 -5.11426
c17.8408 0.864258 38.3467 -1.49121 38.3467 15.002zM140.748 106.05l-0.00585938 -5.12012l226.194 -0.290039l0.00683594 5.12012zM232.597 192.6l-0.0332031 -5.11914l95.7295 -0.625l0.0341797 5.11914zM229.218 201.535l4.9248 1.39941l-7.0498 24.8203
l-4.92578 -1.39941zM223.787 231.036l0.425781 -5.10254c50.9854 4.25879 99.416 -33.1602 110.073 -36.4688l1.51758 4.88965c-7.96289 2.47266 -59.0723 41.1035 -112.017 36.6816zM335.932 189.51l-1.7832 4.7998l-6.72949 -2.5l1.78223 -4.7998zM126.6 202.062
l-0.509766 -5.09473l91.6201 -9.1748l0.509766 5.09473zM126.255 196.957l0.180664 5.11621c-3.31445 0.117188 -10.8301 2.2832 -12.9854 5.81152l-2.33887 1.04102c-2.99414 -6.72363 9.1123 -11.7568 15.1436 -11.9688zM110.902 208.185l5.08496 -0.598633
c0.743164 6.31348 28.9736 17.7207 71.4336 18.8145l-0.131836 5.11914c-40.9902 -1.05664 -74.8701 -10.4492 -76.3867 -23.335zM187.18 231.519l0.350586 -5.10742c16.2471 1.1123 19.9141 -2.32031 20.3887 -4.0752l4.94238 1.33789
c-1.71582 6.33594 -9.80859 8.93262 -25.6816 7.84473zM212.871 223.617l-4.97168 -1.22461l5.00977 -20.3447l4.97168 1.22461z" />
    <glyph glyph-name="uniF150" unicode="&#xf150;" 
d="M88.5762 -46.0801v471.04h39.9355v-471.04h-39.9355zM160.768 -46.0801v204.8h39.9365v-204.8h-39.9365zM233.472 -46.0801v271.36h39.9365v-271.36h-39.9365zM305.664 -46.0801v133.12h39.9355v-133.12h-39.9355zM377.856 -46.0801v204.8h39.9355v-204.8h-39.9355z" />
    <glyph glyph-name="uniF129" unicode="&#xf129;" 
d="M54.5098 103.422c0 -4.86719 -2.9209 -4.86719 -4.86719 -5.83984c-2.91992 -0.973633 -8.76074 0 -12.6543 0s-10.707 0.972656 -13.627 1.94629s-8.76074 3.89355 -10.707 6.81348c-2.9209 2.9209 -4.86719 7.78711 -5.84082 10.708
c-1.94629 5.83984 -0.973633 9.7334 -0.973633 13.627v24.335v42.8281v31.1484v39.9092c0 2.91992 1.94727 4.86719 2.9209 5.83984c2.91992 0.973633 4.86621 0 5.83984 -0.972656c0.973633 -0.973633 1.94727 -1.94727 1.94727 -4.86719v-30.1748v-57.4297v-40.8818
v-15.5742c0 -4.86719 0 -5.84082 2.91992 -9.73438c0.973633 -1.94629 5.83984 -3.89355 7.78711 -4.86719c1.94629 -0.972656 6.81348 -0.972656 8.76074 -0.972656h11.6807c2.91992 -0.973633 6.81348 0 6.81348 -5.84082zM33.0947 172.532
c-2.91992 0.973633 -2.91992 3.89355 -0.972656 8.76074v10.707v19.4678v23.3613v20.4404c0.972656 5.84082 0 14.6016 1.94629 24.335c0.973633 5.84082 3.89355 11.6807 6.81348 14.6006c2.9209 1.94727 6.81445 4.86719 10.707 5.84082
c2.9209 0.972656 5.84082 1.94629 8.76074 1.94629c5.84082 0 20.4414 0.973633 26.2812 0.973633h27.2549h29.2021h66.1895c11.6807 0 36.0156 -0.973633 40.8828 -0.973633c5.83984 0 11.6797 0 16.5469 -1.94629c2.91992 -0.973633 6.81348 -3.89355 7.78711 -8.76074
c0.973633 -1.94629 0.973633 -5.83984 0.973633 -11.6807v-7.78711v-14.6006v-29.2012v-62.2969c0 -6.81348 0 -21.415 -1.94727 -28.2285c-0.972656 -2.91992 -3.89355 -8.75977 -9.7334 -11.6807c-2.91992 -1.94629 -8.76074 -3.89355 -13.627 -3.89355h-17.5215h-38.9355
h-23.3613h-22.3877c-1.94629 0 -3.89355 1.94727 -3.89355 3.89355c-0.972656 3.89355 0 6.81445 4.86719 7.78711h16.5479h34.0684h40.8818c2.91992 0 10.707 0 13.6279 0.973633c2.91992 0.973633 5.83984 1.94727 7.78613 6.81348
c0.973633 2.91992 0.973633 9.73438 0.973633 12.6543v19.4678v31.1484v29.2012v28.2285v23.3613c0 0.972656 -0.973633 2.91992 -1.94629 3.89355c-0.973633 0 -4.86719 0.972656 -5.84082 0.972656c-2.91992 0.973633 -8.75977 0.973633 -11.6807 0.973633h-32.1211
h-58.4033h-85.6582c-1.94629 0 -11.6807 -1.94629 -13.627 -2.91992c-4.86719 -1.94727 -6.81348 -4.86719 -7.78711 -6.81348c-1.94629 -2.9209 -2.91992 -9.73438 -2.91992 -12.6543v-22.3877v-51.5898c0 -4.86621 0 -13.627 -0.973633 -19.4678
c-0.973633 -2.91992 -4.86719 -4.86621 -8.76074 -2.91992zM363.072 121.916c16.5479 -16.5469 16.5479 -42.8281 0 -58.4023c-15.5742 -16.5479 -41.8555 -16.5479 -58.4033 0c-16.5469 15.5742 -16.5469 41.8555 0 58.4023c15.5742 16.5479 41.8555 16.5479 58.4033 0z
M352.365 74.2207c9.7334 9.7334 9.7334 26.2812 0 36.0146c-9.73438 9.73438 -26.2812 9.73438 -36.0156 0c-9.7334 -9.7334 -9.7334 -26.2812 0 -36.0146c9.73438 -9.73438 26.2812 -9.73438 36.0156 0zM129.46 121.916c16.5479 -16.5469 16.5479 -42.8281 0 -58.4023
c-15.5742 -16.5479 -41.8555 -16.5479 -58.4033 0c-16.5469 15.5742 -16.5469 41.8555 0 58.4023c15.5742 16.5479 41.8555 16.5479 58.4033 0zM118.753 74.2207c9.7334 9.7334 9.7334 26.2812 0 36.0146c-9.73438 9.73438 -26.2812 9.73438 -36.0156 0
c-9.7334 -9.7334 -9.7334 -26.2812 0 -36.0146c9.73438 -9.73438 26.2812 -9.73438 36.0156 0zM162.555 103.422c0 2.91992 1.94727 4.86719 5.84082 5.84082h41.8555h39.9092h27.2539c3.89355 0 5.84082 -3.89355 5.84082 -5.84082
c0 -1.94629 -1.94727 -4.86719 -5.84082 -4.86719h-69.1104h-39.9082c-3.89355 -0.972656 -5.84082 2.9209 -5.84082 4.86719zM286.175 237.749c-2.91992 0 -4.86719 0 -5.83984 4.86719c-0.973633 0.972656 -1.94727 1.94629 -0.973633 6.81348
c0 6.81348 2.91992 11.6807 3.89355 12.6543c2.91992 5.83984 6.81348 8.75977 7.78711 9.7334s5.83984 4.86719 13.627 6.81348c7.78711 1.94727 14.6006 0.973633 17.5215 0c2.91992 0 15.5742 -0.972656 41.8555 -1.94629c0 0 16.5469 0 33.0947 -1.94727
c4.86719 -0.972656 10.707 -1.94629 16.5479 -4.86621c6.81348 -3.89355 9.7334 -9.73438 10.707 -12.6543c2.91992 -6.81348 3.89355 -10.707 3.89355 -11.6807c0 -2.91992 0 -5.83984 -0.973633 -7.78711c-2.91992 -3.89355 -7.78711 -5.83984 -7.78711 -5.83984v0
s0.973633 -5.84082 0.973633 -7.78711c1.94629 -16.5479 2.91992 -25.3086 2.91992 -25.3086v-1.94629c0.973633 0 1.94727 0.972656 3.89355 0.972656h3.89355c0 0 2.91992 -0.972656 4.86719 -1.94629c2.91992 -1.94727 3.89355 -3.89355 3.89355 -4.86719
c3.89355 -10.707 4.86719 -31.1484 4.86719 -31.1484c0 -12.6533 0 -21.4141 -0.973633 -30.1748c-0.973633 -6.81348 -0.973633 -11.6807 -5.84082 -22.3877c-1.94629 -3.89355 -4.86621 -6.81348 -7.78711 -8.76074
c-2.91992 -2.91992 -6.81348 -2.91992 -8.75977 -2.91992h-10.708h-8.75977h-9.73438h-8.75977c-0.973633 0 -2.9209 0.973633 -3.89355 2.91992c0 0 -0.973633 2.9209 0 4.86719c0.972656 0.973633 1.94629 2.91992 3.89355 2.91992h5.83984h10.707h8.76074h13.627v0
c1.94727 0 3.89355 1.94727 3.89355 1.94727c2.9209 3.89355 4.86719 11.6807 4.86719 11.6807c2.91992 8.76074 2.91992 23.3613 2.91992 26.2812c0 6.81348 0 14.6006 -1.94629 29.2012c-0.973633 2.9209 -1.94727 8.76074 -1.94727 8.76074v0
c-0.972656 0 -4.86621 -0.973633 -5.83984 -0.973633s-3.89355 0 -6.81348 1.94727c-2.9209 1.94629 -4.86719 4.86719 -4.86719 8.75977c-0.973633 11.6807 -0.973633 16.5479 -2.91992 31.1484c-0.973633 5.84082 -0.973633 8.76074 2.91992 10.708
c1.94629 2.91992 2.91992 2.91992 6.81348 3.89355c0.973633 0 -1.94629 7.78613 -3.89355 11.6797c-1.94629 2.9209 -6.81348 5.84082 -10.707 6.81445c-5.83984 1.94629 -13.627 1.94629 -22.3877 2.91992c-6.81348 0.973633 -13.6279 0.973633 -20.4414 0.973633
c-20.4404 0.972656 -26.2812 0.972656 -30.1748 0.972656c0 0 -6.81348 0.973633 -14.6006 0.973633c-4.86719 0 -7.78711 0 -10.707 -0.973633c-3.89355 -1.94629 -6.81348 -3.89355 -7.78711 -4.86621c-1.94727 -0.973633 -4.86719 -3.89355 -5.84082 -7.78711
c-0.972656 -3.89355 -0.972656 -4.86719 -1.94629 -8.76074c-0.973633 -0.973633 -1.94727 -3.89355 -4.86719 -3.89355zM324.137 245.536c0 0 0 1.94629 0.973633 1.94629c1.94629 1.94727 3.89355 2.9209 5.83984 2.9209h6.81445c1.94629 0 1.94629 0 12.6533 -0.973633
c7.78711 0 4.86719 0 17.5215 -0.973633c9.7334 -0.973633 11.6807 -0.973633 14.6006 -1.94629c1.94629 0 5.83984 -1.94727 8.76074 -5.84082c2.91992 -3.89355 3.89355 -7.78711 4.86621 -12.6533c0.973633 -12.6543 0.973633 -13.6279 1.94727 -24.335
c0 -6.81348 0.973633 -11.6807 1.94629 -24.335c0 -0.972656 0 -1.94629 -0.972656 -3.89355c-0.973633 -1.94629 -2.9209 -3.89355 -5.84082 -2.91992c-0.973633 0.973633 -2.91992 0.973633 -3.89355 4.86719c-0.973633 5.83984 -1.94629 10.707 -1.94629 16.5469
c0 11.6807 -0.973633 11.6807 -1.94727 26.2822c0 2.91992 0 7.78711 -1.94629 10.707c-1.94727 3.89355 -6.81445 5.83984 -8.76074 5.83984c-2.91992 0.973633 -5.84082 0.973633 -10.707 0.973633c-8.76074 0.973633 -14.6006 0.973633 -24.335 1.94727
c-2.91992 0.972656 -5.83984 0.972656 -9.7334 0.972656c-2.9209 0 -5.84082 0.973633 -5.84082 4.86719zM330.95 235.803c2.9209 0 4.86719 -1.94727 4.86719 -4.86719v-4.86719c0 -7.78711 0 -7.78711 0.973633 -14.6006v-8.76074c0 -1.94629 0 -6.81348 1.94629 -8.76074
c1.94727 -0.972656 5.84082 -0.972656 7.78711 -1.94629c10.708 -0.973633 10.708 -0.973633 18.4941 -1.94629c3.89355 0 8.76074 -0.973633 12.6543 -0.973633c2.91992 0 3.89355 -2.91992 4.86719 -3.89355c0 -1.94727 -0.973633 -4.86719 -1.94727 -5.84082
c-0.972656 -0.972656 -3.89355 -0.972656 -3.89355 -0.972656c-8.75977 0.972656 -13.627 0.972656 -18.4941 1.94629c-7.78711 0.973633 -8.75977 0 -17.5205 0.973633c-2.91992 0 -6.81348 1.94629 -10.707 4.86719c-2.9209 2.91992 -3.89355 6.81348 -4.86719 9.7334
c0 2.91992 0 5.83984 -0.973633 13.627v12.6543v7.78711c0 0.973633 0 1.94727 0.973633 2.91992c0.973633 1.94727 0.973633 1.94727 1.94629 2.9209h3.89355z" />
    <glyph glyph-name="uniF13C" unicode="&#xf13c;" 
d="M45.0205 -50.6348c-15.6699 0 -26.3027 10.5928 -26.3027 26.2031v23.9736c0 1.11523 0 1.67285 0.55957 2.78809v6.13281c0 6.69043 -0.55957 13.3809 0 20.6289c1.11914 11.708 6.15625 22.8584 15.6699 31.7793c6.15527 6.13281 12.3115 12.2656 18.4678 18.9551
l7.27441 7.24805c11.7529 11.708 48.1279 50.7354 83.3848 88.0898s71.6328 76.3818 83.9443 88.0898l92.3389 93.1064c11.1924 11.1514 25.7422 11.1514 37.4951 0.557617l0.55957 -0.557617l57.082 -55.752c5.5957 -5.57617 8.9541 -12.2656 8.9541 -18.9561
s-2.79883 -13.3809 -8.39453 -18.9561c-31.3389 -31.7793 -87.3018 -89.7627 -141.026 -146.63c-55.4033 -57.9834 -112.485 -117.639 -144.384 -149.976c-10.0732 -10.5928 -22.9453 -15.6113 -37.4951 -16.168c-11.1924 0 -22.9453 0 -34.1377 -0.557617h-13.9902v0v0z
M34.9473 -2.6875v-21.1865c0 -6.13281 3.35742 -9.47754 9.51367 -9.47754v0h12.8711c11.1924 0 22.3848 0 34.1377 0.557617c10.0732 0 18.4678 3.90234 25.7422 11.1504c31.8994 32.3369 88.9814 91.9922 144.385 149.976c53.7236 56.3096 109.687 114.851 141.025 146.63
c1.67969 1.67188 3.91797 4.45996 3.91797 7.24805c0 2.78711 -2.23828 5.5752 -3.91797 7.24707l-57.082 54.6377c-5.03613 4.46094 -9.51367 4.46094 -13.9902 0l-91.7793 -92.5488c-11.752 -11.709 -48.1279 -50.7354 -83.3838 -88.0898
c-35.2568 -37.3545 -71.6328 -76.3818 -83.9443 -88.0898l-7.27539 -7.24805c-6.15625 -6.13281 -12.3115 -12.8232 -19.0273 -18.9561s-10.0732 -13.3799 -10.6328 -21.1855c-0.55957 -6.13281 -0.55957 -12.2656 0 -18.9561v-8.9209
c0 -1.11426 -0.55957 -2.22949 -0.55957 -2.78711v0zM419.971 277.749c-6.15527 0 -12.8711 2.78809 -18.4678 7.80566c-9.51367 9.47754 -19.0273 18.3984 -28.541 27.876l-12.8711 12.8232c-5.59668 5.5752 -11.1924 10.5938 -16.7891 16.1689
c-5.5957 5.5752 -8.39453 11.708 -8.39453 18.3984c0 7.24805 2.23926 13.3809 7.27539 18.3984l10.0732 10.5928c12.3115 12.8232 24.624 25.0889 36.9355 37.9121c10.6328 11.1504 25.7432 11.1504 36.9355 0.557617c6.71582 -6.69043 13.4307 -12.8232 20.1465 -19.5137
l24.0645 -23.416c5.03613 -5.01758 10.0732 -9.47852 15.1094 -14.4961c5.59668 -5.5752 8.9541 -12.2656 8.9541 -18.9561s-2.79785 -13.3809 -8.39453 -18.9561c-15.6689 -15.6104 -30.7793 -31.2217 -46.4492 -46.832
c-6.15527 -5.5752 -12.8711 -8.36328 -19.5869 -8.36328v0zM408.219 418.804c-2.23828 0 -4.47656 -1.11426 -6.71582 -3.34473c-12.3115 -12.8232 -24.623 -25.0889 -36.9355 -37.9121l-10.0732 -10.5928c-1.67871 -1.67285 -2.23828 -3.3457 -2.23828 -6.69043v-0.557617
c0 -2.23047 1.67871 -4.45996 3.35742 -6.13281c5.59668 -5.5752 11.1934 -11.1504 16.7891 -16.168l13.4316 -12.8232c9.51367 -9.47852 19.0273 -18.3984 28.541 -27.877c4.47656 -4.45996 8.9541 -4.45996 13.4307 0c15.6699 15.6113 30.7793 31.2217 46.4492 46.833
c1.67871 1.67188 3.91699 4.45996 3.91699 7.24707c0 2.78809 -2.23828 5.5752 -3.91699 7.24805c-5.03711 5.01758 -10.0732 9.47852 -14.5508 14.4961l-24.0635 23.416c-6.71582 6.69043 -13.4307 12.8232 -19.5869 19.5137
c-3.35742 2.23047 -5.59668 3.34473 -7.83496 3.34473v0z" />
    <glyph glyph-name="uniF138" unicode="&#xf138;" 
d="M288.914 -38.4004v65.8291h197.486v-65.8291h-197.486v0zM288.914 159.086h197.486v-65.8291h-197.486v65.8291v0zM288.914 290.743h197.486v-65.8291h-197.486v65.8291v0zM288.914 422.4h197.486v-65.8291h-197.486v65.8291v0zM25.5996 159.086h197.486v-197.486
h-197.486v197.486v0zM25.5996 422.4h197.486v-197.486h-197.486v197.486v0z" />
    <glyph glyph-name="uniF14D" unicode="&#xf14d;" 
d="M352.256 420.352c28.1602 -11.7754 53.248 -28.6719 74.752 -50.6875c21.5039 -21.5039 38.4004 -46.5918 50.1758 -74.752c12.2881 -28.6719 18.4326 -59.9043 18.4326 -91.1357c0 -31.2324 -6.14453 -61.9521 -18.4326 -91.1367
c-11.7754 -28.1592 -28.6719 -53.248 -50.1758 -74.752s-46.5918 -38.3994 -74.752 -50.1758c-28.6719 -12.2881 -59.3916 -18.4316 -91.1357 -18.4316c-30.7197 0 -60.9277 6.14355 -89.6006 17.9199l-4.0957 1.53613l-4.0957 -1.53613l-116.736 -45.5684l28.6719 112.641
l1.02441 5.11914l-3.07227 4.09668c-30.208 40.96 -46.5918 89.5996 -46.5918 140.8c0 31.2314 6.14355 61.9521 18.4316 91.1357c11.7764 28.1602 28.6719 53.248 50.1768 74.752c21.5039 21.5039 46.5918 38.4004 74.752 50.1758
c28.6719 12.2881 59.3916 18.4326 91.1357 18.4326s62.4639 -6.14453 91.1357 -18.4326zM261.12 2.04785c111.104 0 201.216 90.1123 201.216 201.216c0 111.104 -90.1123 201.217 -201.216 201.217c-111.616 0 -201.729 -90.1123 -201.216 -200.704
c0 -51.2002 18.9434 -98.3047 50.6875 -133.633l-20.9922 -74.752l77.3125 30.208c28.1602 -14.8477 59.9043 -23.5518 94.208 -23.5518zM331.264 162.304c10.2402 -5.12012 51.7119 -19.9678 51.7119 -19.9678l1.53613 -26.624s-17.9199 -30.208 -41.4717 -31.2314
c-23.04 -0.512695 -68.6084 5.11914 -126.976 58.8799c-55.2969 54.2715 -60.416 104.447 -59.3926 127.487c1.02441 23.5527 31.2324 41.4727 31.2324 41.4727l26.624 -1.53613s14.8477 -41.4727 19.9678 -51.7119c5.12012 -10.752 1.53613 -14.8486 1.53613 -14.8486
s-15.3604 -17.9199 -18.9443 -20.4795c-3.07227 -2.56055 -2.55957 -5.12012 -1.53613 -6.65625c8.7041 -14.8477 25.6006 -33.2803 32.7686 -40.96c7.67969 -7.67969 25.5996 -24.0635 40.96 -32.7676c1.53613 -1.02441 4.0957 -2.04883 6.65527 1.53613
c2.56055 3.58398 20.4805 18.9434 20.4805 18.9434s4.6084 3.58398 14.8477 -1.53613z" />
    <glyph glyph-name="uniF146" unicode="&#xf146;" 
d="M377.614 332.792h119.025v-119.015h-25.7988v74.9805l-167.988 -167.989l-120.62 66.5967l-153.745 -135.749l-18.2471 18.2354l171.992 153.996l120.62 -66.5967l149.741 149.742h-74.9795v25.7988z" />
    <glyph glyph-name="uniF118" unicode="&#xf118;" 
d="M256 -64c-68.3838 0 -132.664 26.6318 -181.016 74.9922c-48.3604 48.3516 -74.9922 112.632 -74.9922 181.008s26.6318 132.656 74.9922 181.008c48.3516 48.3604 112.632 74.9922 181.016 74.9922c68.376 0 132.664 -26.6318 181.016 -74.9922
c48.3604 -48.3516 74.9922 -112.632 74.9922 -181.008s-26.6318 -132.656 -74.9922 -181.008c-48.3516 -48.3604 -112.64 -74.9922 -181.016 -74.9922zM86.2959 361.696c-45.3359 -45.3281 -70.3037 -105.593 -70.3037 -169.696s24.9678 -124.368 70.3037 -169.696
c45.3281 -45.3359 105.592 -70.3037 169.704 -70.3037c64.1035 0 124.376 24.9678 169.704 70.3037c45.3359 45.3281 70.3037 105.593 70.3037 169.696s-24.9678 124.368 -70.3037 169.696c-45.3281 45.3359 -105.601 70.3037 -169.704 70.3037
c-64.1123 0 -124.376 -24.9678 -169.704 -70.3037zM248 136v176h16v-176h-16zM248 72v32h16v-32h-16z" />
    <glyph glyph-name="uniF114" unicode="&#xf114;" 
d="M284.666 210.709v0v0c-0.901367 -4.5625 -0.901367 -8.21387 -0.901367 -12.7764h-278.359v246.417h399.973v-64.7988h-3.60352h-9.00781v47.458l-187.375 -122.296l-187.375 122.296v-216.3h266.649zM377.452 431.572v0h-344.121l172.061 -112.257zM499.325 214.315v0v0
c3.85645 -0.976562 6.74805 -4.88281 7.71191 -7.8125v-16.6025c0 -3.90625 -2.8916 -6.83691 -6.74707 -7.81348c-0.964844 0 -24.0996 -5.85938 -68.4424 -7.8125v-0.976562c0 -18.5557 -14.46 -33.2051 -32.7754 -33.2051s-32.7754 14.6494 -32.7754 33.2051v0.976562
c-44.3428 1.95312 -67.4775 7.8125 -68.4424 7.8125c-3.85547 0.976562 -6.74707 3.90723 -6.74707 7.81348v16.6025c0 3.90625 2.8916 6.83594 6.74707 7.8125c0.964844 0 34.7031 8.79004 34.7031 75.2002c0 28.3213 17.3516 52.7373 41.4512 62.5029
c0.963867 11.7197 11.5674 21.4863 24.0996 21.4863c12.5312 0 23.1357 -9.7666 25.0635 -21.4863c24.0996 -9.76562 41.4502 -34.1816 41.4502 -62.5029c0 -66.4102 33.7393 -75.2002 34.7031 -75.2002zM398.172 357.647v0v0
c-6.30664 0 -11.7109 -3.65137 -14.4141 -9.12695c4.50391 0.913086 9.90918 1.8252 14.4141 1.8252c5.4043 0 9.90918 -0.912109 14.4131 -1.8252c-2.70215 5.47559 -8.10742 9.12695 -14.4131 9.12695zM421.594 170.21v0h-20.0674h-20.0664v0
c0 -10.9463 9.26172 -20.3291 20.0664 -20.3291c10.8057 0 20.0674 9.38281 20.0674 20.3291zM398.322 189.5c59.2148 0 88.3926 7.8252 88.3926 7.8252v14.7803s-36.9014 7.82422 -36.9014 74.7705c0 28.6914 -23.1709 52.166 -51.4912 52.166
c-28.3193 0 -51.4902 -23.4746 -51.4902 -52.166c0 -66.9463 -36.9014 -74.7705 -36.9014 -74.7705v-14.7803s29.1777 -7.8252 88.3916 -7.8252z" />
    <glyph glyph-name="uniF152" unicode="&#xf152;" 
d="M252.417 347.67h-230.918v-31.8506h76.4414c27.8701 0 148.902 -161.642 152.884 -175.975c1.59277 -12.7402 3.98145 -86.793 -0.795898 -92.3672c-6.37012 -8.75879 -71.6641 -2.38867 -82.8125 -3.18555l-0.795898 -27.0723
c20.7031 -0.796875 84.4043 0.795898 105.107 0.795898c42.2021 0 115.459 1.59277 125.811 0.795898l1.5918 27.0732l-84.4043 1.59277c-1.5918 11.9443 -3.98145 89.1816 -1.5918 97.9404c7.96191 24.6846 137.754 114.663 150.494 117.848l12.7402 -2.38867h39.0176
l6.37012 31.8506h0.795898h-1.59277h-0.795898h1.59277h-195.882l7.96191 -39.8135h58.1279l-97.1445 -86.793c-19.9072 28.666 -66.8867 125.811 -98.7373 149.698h57.3311zM489.704 84.1055l-0.795898 161.643c8.75879 -1.59277 73.2568 -7.96289 80.4229 -7.96289
l-42.998 -156.864zM483.334 59.4219l22.2959 -3.18555l21.499 -0.795898l-5.57324 -37.4248l-19.9072 1.59277l-18.3145 1.5918v38.2217z" />
    <glyph glyph-name="uniF104" unicode="&#xf104;" 
d="M157.214 316.451l-11.2715 -11.3555l208.781 -207.219l11.2715 11.3555zM146.682 108.409l11.3555 -11.2715l207.219 208.781l-11.3555 11.2715zM16.0078 192c0 132.544 107.448 239.992 239.992 239.992s239.992 -107.448 239.992 -239.992
s-107.448 -239.992 -239.992 -239.992s-239.992 107.448 -239.992 239.992zM0.0078125 192c0 -141.378 114.614 -255.992 255.992 -255.992s255.992 114.614 255.992 255.992s-114.614 255.992 -255.992 255.992s-255.992 -114.614 -255.992 -255.992z" />
    <glyph glyph-name="uniF14E" unicode="&#xf14e;" 
d="M55.6523 347.826c0 17.2119 13.9531 31.165 31.165 31.165s31.165 -13.9531 31.165 -31.165s-13.9531 -31.165 -31.165 -31.165s-31.165 13.9531 -31.165 31.165zM182.539 347.826c0 17.2119 13.9531 31.165 31.165 31.165s31.165 -13.9531 31.165 -31.165
s-13.9531 -31.165 -31.165 -31.165s-31.165 13.9531 -31.165 31.165zM309.426 347.826c0 17.2119 13.9531 31.165 31.165 31.165c17.2129 0 31.166 -13.9531 31.166 -31.165s-13.9531 -31.165 -31.166 -31.165c-17.2119 0 -31.165 13.9531 -31.165 31.165zM55.6523 243.2
c0 17.2119 13.9531 31.165 31.165 31.165s31.165 -13.9531 31.165 -31.165s-13.9531 -31.165 -31.165 -31.165s-31.165 13.9531 -31.165 31.165zM182.539 243.2c0 17.2119 13.9531 31.165 31.165 31.165s31.165 -13.9531 31.165 -31.165s-13.9531 -31.165 -31.165 -31.165
s-31.165 13.9531 -31.165 31.165zM309.426 243.2c0 17.2119 13.9531 31.165 31.165 31.165c17.2129 0 31.166 -13.9531 31.166 -31.165s-13.9531 -31.165 -31.166 -31.165c-17.2119 0 -31.165 13.9531 -31.165 31.165zM55.6523 136.348
c0 17.2119 13.9531 31.165 31.165 31.165s31.165 -13.9531 31.165 -31.165s-13.9531 -31.165 -31.165 -31.165s-31.165 13.9531 -31.165 31.165zM182.539 136.348c0 17.2119 13.9531 31.165 31.165 31.165s31.165 -13.9531 31.165 -31.165s-13.9531 -31.165 -31.165 -31.165
s-31.165 13.9531 -31.165 31.165zM309.426 136.348c0 17.2119 13.9531 31.165 31.165 31.165c17.2129 0 31.166 -13.9531 31.166 -31.165s-13.9531 -31.165 -31.166 -31.165c-17.2119 0 -31.165 13.9531 -31.165 31.165zM182.539 31.7217
c0 17.2119 13.9531 31.165 31.165 31.165s31.165 -13.9531 31.165 -31.165s-13.9531 -31.165 -31.165 -31.165s-31.165 13.9531 -31.165 31.165z" />
    <glyph glyph-name="uniF145" unicode="&#xf145;" 
d="M255.232 432.628v0c132.256 0 239.879 -107.598 239.879 -239.862c0 -132.266 -107.628 -239.863 -239.879 -239.863s-239.872 107.598 -239.872 239.863c0 132.265 107.621 239.862 239.872 239.862zM255.232 -39.0986v0c127.845 0 231.864 104.018 231.848 231.864
c0 127.828 -104.011 231.838 -231.848 231.838c-127.838 0 -231.848 -104.008 -231.848 -231.838c0 -127.847 104.01 -231.864 231.848 -231.864zM255.232 388.635v0c109.932 0 199.381 -89.4404 199.381 -199.391c0 -109.927 -89.457 -199.375 -199.381 -199.375
c-109.943 0 -199.391 89.4336 -199.391 199.375c0 109.95 89.4502 199.391 199.391 199.391zM255.232 380.627v0c-82.0645 0 -152.214 -51.9336 -179.351 -124.647c21.9629 -14.6777 186.593 -116.512 358.659 0.0683594
c-27.1562 72.6709 -97.2705 124.579 -179.309 124.579zM228.143 -0.19043v0c1.31152 11.0674 8.5127 86.9453 -35.6836 138.266c-28.0967 32.6172 -71.293 49.1523 -128.427 49.1523v6.41797c-0.0322266 -1.46973 -0.175781 -2.91602 -0.175781 -4.40137
c0 -96.3223 71.5352 -176.227 164.286 -189.435zM255.249 -2.14844v0c7.79688 0 15.4756 0.530273 23.042 1.42969c-1.95801 17.9463 -6.58691 90.3818 37.8271 141.987c28.9443 33.6592 72.8867 50.999 130.407 51.8066
c-0.393555 19.1992 -3.59668 37.7021 -9.24219 55.1104c-61.9824 -41.4814 -123.009 -55.5049 -176.966 -55.5049c-95.3125 0 -168.697 43.4727 -187.131 55.4717c-5.4209 -16.7363 -8.50391 -34.5156 -9.08301 -52.9082
c59.5703 -0.00878906 104.815 -17.4951 134.457 -51.959c46.8066 -54.3965 39.127 -132.04 37.54 -144.466c6.30176 -0.623047 12.6709 -0.941406 19.1484 -0.967773zM286.243 0.415039v0c89.499 14.6621 158.245 91.5654 160.243 184.669
c-55.0752 -0.805664 -96.9512 -17.207 -124.342 -49.0342c-41.5801 -48.3447 -37.6406 -118.302 -35.9014 -135.635zM288.318 152.662v0c0 -18.2324 -14.8467 -33.0791 -33.0791 -33.0791c-18.2578 0 -33.0889 14.8467 -33.0889 33.0791
c0 18.2412 14.8398 33.0879 33.0889 33.0879c18.2256 0 33.0791 -14.8398 33.0791 -33.0879zM255.239 127.607v0c13.8213 0 25.0479 11.2432 25.0479 25.0469c0 13.8047 -11.2334 25.0479 -25.0479 25.0479c-13.8135 0 -25.0645 -11.2266 -25.0645 -25.0479
c0 -13.8037 11.2432 -25.0469 25.0645 -25.0469z" />
    <glyph glyph-name="uniF103" unicode="&#xf103;" 
d="M248 48h16v288h-16v-288zM112 200v-16h288v16h-288zM16.0078 192c0 132.544 107.448 239.992 239.992 239.992s239.992 -107.448 239.992 -239.992s-107.448 -239.992 -239.992 -239.992s-239.992 107.448 -239.992 239.992zM0.0078125 192
c0 -141.378 114.614 -255.992 255.992 -255.992s255.992 114.614 255.992 255.992s-114.614 255.992 -255.992 255.992s-255.992 -114.614 -255.992 -255.992z" />
    <glyph glyph-name="uniF11F" unicode="&#xf11f;" 
d="M361.813 413.866c68.3691 0 109.227 -59.0088 109.227 -116.053c0 -58.6348 -36.3584 -121.208 -108.066 -185.973c-52.8242 -47.7109 -106.421 -79.0322 -106.96 -79.3457l-3.42676 -1.98633l-3.42676 1.98633c-0.533203 0.313477 -54.1357 31.6348 -106.961 79.3457
c-71.707 64.7646 -108.065 127.338 -108.065 185.973c0 57.0439 40.8574 116.053 109.227 116.053c50.2236 0 93.1084 -28.3027 109.227 -67.7812c16.1172 39.4785 59.0029 67.7812 109.227 67.7812z" />
    <glyph glyph-name="uniF133" unicode="&#xf133;" 
d="M186.547 -64h-112.096v223.353h-74.4512v106.646h73.1484c-6.59863 60.1045 4.21191 108.225 31.4863 139.635c24.4062 28.1133 60.4268 42.3662 107.052 42.3662c17.3203 0 36.1719 -2.04102 56.0332 -6.05859l7.80664 -1.57812v-95.79h-9.74316
c-2.94434 0 -7.02637 0.34668 -12.1943 0.774414c-7.68945 0.645508 -17.2676 1.44336 -26.9395 1.44336c-24.9756 0 -32.3018 -5.4668 -34.4424 -8.72266c-8.25879 -12.5635 -7.56055 -56.5371 -7.15625 -73.7236c16.1709 -0.0117188 34.1846 -0.0585938 49.1826 -0.105469
c12.1475 -0.0351562 22.3066 -0.0585938 27.9199 -0.0585938h11.4668l-1.85938 -11.3203c-0.292969 -1.77734 -1.27832 -8.80371 -2.59277 -18.1123c-4.54004 -32.1553 -8.7334 -61.541 -10.2529 -67.9111l-1.77734 -7.48438h-70.5908v-223.353z" />
    <glyph glyph-name="uniF11C" unicode="&#xf11c;" 
d="M264 391.8c103.92 -4.12012 187.68 -87.8799 191.8 -191.8h56.2002v-16h-56.2002c-4.12012 -103.92 -87.8799 -187.68 -191.8 -191.8v-56.2002h-16v56.2002c-103.92 4.12012 -187.68 87.8799 -191.8 191.8h-56.2002v16h56.2002
c4.12012 103.92 87.8799 187.68 191.8 191.8v56.2002h16v-56.2002zM264 8.2002c95.1123 4.0957 171.704 80.6875 175.8 175.8h-55.7998v16h55.7998c-4.0957 95.1123 -80.6875 171.704 -175.8 175.8v-55.7998h-16v55.7998c-95.1123 -4.0957 -171.704 -80.6875 -175.8 -175.8
h55.7998v-16h-55.7998c4.0957 -95.1123 80.6875 -171.704 175.8 -175.8v55.7998h16v-55.7998z" />
    <glyph glyph-name="uniF101" unicode="&#xf101;" 
d="M109.656 189.656l90.3438 -90.6406l186.344 186.057l11.3125 -11.9043l-192 -193.168h-11.3125l-96 97.168z" />
    <glyph glyph-name="uniF141" unicode="&#xf141;" 
d="M261.688 375.467v-14.2227c41.876 0 83.6992 -15.9551 115.645 -47.9062c58.3252 -58.3193 63.6953 -149.319 15.5234 -213.375l-33.7852 -33.791l10.0576 -10.0557l34.4922 34.499l0.300781 0.399414c52.3838 69.6553 46.8643 168.989 -16.5322 232.381
c-34.6992 34.7041 -80.2207 52.0713 -125.701 52.0713zM250.312 8.5332v14.2227c-41.876 0 -83.6992 15.9551 -115.645 47.9062c-58.3252 58.3193 -63.6953 149.319 -15.5234 213.375l33.7852 33.791l-10.0576 10.0557l-34.4922 -34.499l-0.300781 -0.399414
c-52.3838 -69.6553 -46.8643 -168.989 16.5322 -232.381c34.6992 -34.7041 80.2207 -52.0713 125.701 -52.0713zM371.2 123.733h-14.2227v-69.6885h69.6895v14.2217h-55.4668v55.4668zM140.8 260.267h14.2227v69.6885h-69.6895v-14.2217h55.4668v-55.4668z" />
    <glyph glyph-name="uniF117" unicode="&#xf117;" 
d="M256 448c68.376 0 132.664 -26.6318 181.008 -74.9922c48.3604 -48.3438 74.9922 -112.632 74.9922 -181.008s-26.6318 -132.664 -74.9844 -181c-48.3516 -48.3604 -112.632 -75 -181.016 -75s-132.664 26.6318 -181.008 74.9922
c-48.3604 48.3438 -74.9922 112.632 -74.9922 181.008s26.6318 132.664 74.9922 181c48.3438 48.3604 112.632 75 181.008 75zM425.704 22.3037c45.3359 45.3281 70.2959 105.593 70.2959 169.696s-24.96 124.368 -70.2959 169.688
c-45.3281 45.3359 -105.592 70.3115 -169.704 70.3115s-124.376 -24.9678 -169.696 -70.3037c-45.3359 -45.3281 -70.3037 -105.593 -70.3037 -169.696s24.96 -124.368 70.3037 -169.688c45.3281 -45.3438 105.593 -70.3115 169.696 -70.3115
s124.368 24.9678 169.704 70.3037zM264 352v-156.688l69.6562 -69.6553l-11.3125 -11.3125l-74.3438 74.3447v163.312h16zM32 184v16h32v-16h-32zM448 184v16h32v-16h-32zM248 -32v32h16v-32h-16zM248 384v32h16v-32h-16z" />
    <glyph glyph-name="uniF11B" unicode="&#xf11b;" 
d="M312 272c0 -30.8799 -25.1201 -56 -56 -56s-56 25.1201 -56 56s25.1201 56 56 56s56 -25.1201 56 -56zM216 272c0 -22.0557 17.9443 -40 40 -40s40 17.9443 40 40s-17.9443 40 -40 40s-40 -17.9443 -40 -40zM255.696 -68.3438l-6.08008 7.17578
c-6.92773 8.16797 -169.616 201.52 -169.616 327.288c0 100.288 78.9521 181.88 176 181.88c96.6162 0 175.568 -81.5762 176 -181.848c0.55957 -125.809 -163.224 -319.177 -170.2 -327.336zM256 432c-88.2236 0 -160 -74.416 -160 -165.88
c0 -106.68 129.824 -272.729 159.736 -309.561c30.0713 36.792 160.744 202.896 160.264 309.521c-0.391602 91.4883 -72.168 165.92 -160 165.92z" />
  </font>
</defs>
</svg>
