<?xml version="1.0" encoding="UTF-8" standalone="no"?>
<svg width="24px" height="28px" viewBox="0 0 24 28" version="1.1" xmlns="http://www.w3.org/2000/svg" xmlns:xlink="http://www.w3.org/1999/xlink" xmlns:sketch="http://www.bohemiancoding.com/sketch/ns">
    <!-- Generator: Sketch 3.3.2 (12043) - http://www.bohemiancoding.com/sketch -->
    <title>Imported Layers Copy</title>
    <desc>Created with Sketch.</desc>
    <defs></defs>
    <g id="Page-1" stroke="none" stroke-width="1" fill="none" fill-rule="evenodd" sketch:type="MSPage">
        <path d="M17.6886857,6.24880952 C20.9314286,6.24880952 23.0050286,9.38633333 23.0050286,9.38633333 C23.0050286,9.38633333 19.8418286,11.1028571 19.8418286,14.8307381 C19.8418286,19.2553095 23.8155429,20.5423571 23.8155429,20.5423571 C23.8155429,20.5423571 20.6790857,27.9843095 17.1572571,27.9843095 C15.1769143,27.9843095 15.0445714,26.8450238 12.4128,26.8450238 C10.1273143,26.8450238 9.35657143,27.9843095 7.61554286,27.9843095 C4.29257143,27.9843095 0,20.7301667 0,14.8307381 C0,8.7027619 4.34605714,6.24880952 7.0704,6.24880952 C9.46285714,6.24880952 10.4592,7.65669048 12.3860571,7.65669048 C14.0077714,7.65669048 15.2838857,6.24880952 17.6886857,6.24880952 L17.6886857,6.24880952 Z M17.1312,0 C17.6091429,3.00357143 14.8848,6.71833333 11.6290286,6.5975 C11.1504,2.77571429 14.6592,0.201619048 17.1312,0 L17.1312,0 Z" id="Imported-Layers-Copy" fill="#000000" sketch:type="MSShapeGroup"></path>
    </g>
</svg>