<?xml version="1.0" encoding="utf-8"?>
<!-- Generator: Adobe Illustrator 19.1.0, SVG Export Plug-In . SVG Version: 6.00 Build 0)  -->
<svg version="1.1" xmlns="http://www.w3.org/2000/svg" xmlns:xlink="http://www.w3.org/1999/xlink" x="0px" y="0px"
	 viewBox="0 0 47 52.6" style="enable-background:new 0 0 47 52.6;" xml:space="preserve">
<style type="text/css">
	.st0{fill:#FFFFFF;}
	.st1{fill:#F8F8F8;}
	.st2{fill:#D8D8D8;}
	.st3{fill:#666666;}
	.st4{fill:#333333;}
	.st5{fill:none;stroke:#CCCCCC;stroke-miterlimit:10;}
	.st6{fill:#008AD2;}
	.st7{fill:#FFFFFF;stroke:#E6E6E6;stroke-miterlimit:10;}
	.st8{fill:none;stroke:#333333;stroke-width:0.5;}
	.st9{fill:none;stroke:#333333;}
	.st10{fill:#999999;}
	.st11{fill:none;stroke:#999999;stroke-width:0.5;stroke-miterlimit:10;}
	.st12{fill:#FFFFFF;stroke:#000000;stroke-width:2;stroke-miterlimit:10;}
	.st13{fill:none;stroke:#000000;stroke-width:2;stroke-miterlimit:10;}
	.st14{fill:none;stroke:#999999;stroke-miterlimit:10;}
	.st15{fill:none;stroke:#F2F2F2;stroke-miterlimit:10;}
	.st16{fill:none;stroke:#4D4D4D;stroke-miterlimit:10;}
	.st17{fill:#808080;}
	.st18{fill:none;stroke:#00B21B;stroke-width:2;stroke-miterlimit:10;}
	.st19{fill:none;stroke:#B3B3B3;stroke-width:2;stroke-miterlimit:10;}
	.st20{fill:#33A2D9;stroke:#33A2D9;stroke-width:0.5;stroke-miterlimit:10;}
	.st21{opacity:0.93;fill:#0E303A;}
	.st22{fill:#E1584B;}
	.st23{fill:#FFFEFE;}
	.st24{fill:#1EBEF0;}
	.st25{fill:#FEFEFE;}
	.st26{fill:#3A5BA2;}
	.st27{fill:#FFFFFF;stroke:#CCCCCC;stroke-miterlimit:10;}
	.st28{fill:#EAF8FF;stroke:#CCCCCC;stroke-miterlimit:10;}
	.st29{fill:#EAF8FF;}
	.st30{fill:none;stroke:#CCCCCC;stroke-linecap:round;stroke-miterlimit:10;}
	.st31{fill:#001825;}
	.st32{fill:#F2F2F2;stroke:#CCCCCC;stroke-miterlimit:10;}
	.st33{fill:none;stroke:#FFFFFF;stroke-width:0.75;stroke-miterlimit:10;}
	.st34{fill:#005289;}
	.st35{fill:none;stroke:#E6E6E6;stroke-miterlimit:10;}
	.st36{fill:#7C7C7C;}
	.st37{fill:none;stroke:#7C7C7C;stroke-width:0.5;}
	.st38{fill:#373737;}
	.st39{opacity:0.49;}
	.st40{fill:#C00016;}
	.st41{fill:#4A4A4A;}
	.st42{fill:#F2F2F2;}
	.st43{fill:none;stroke:#666666;stroke-miterlimit:10;}
	.st44{fill:none;stroke:#666666;stroke-width:0.75;stroke-linecap:round;stroke-linejoin:round;stroke-miterlimit:10;}
	.st45{fill:none;stroke:#666666;stroke-linecap:round;stroke-linejoin:round;stroke-miterlimit:10;}
	.st46{fill:none;stroke:#666666;stroke-linejoin:round;stroke-miterlimit:10;}
	.st47{fill:#58B957;}
	.st48{fill:none;stroke:#000000;stroke-width:4;stroke-miterlimit:10;}
	.st49{fill:none;stroke:#000000;stroke-width:2;stroke-linecap:round;stroke-miterlimit:10;}
	.st50{fill:none;stroke:#666666;}
	.st51{fill:none;stroke:#333333;stroke-miterlimit:10;}
	.st52{fill:#FFFFFF;stroke:#FF0000;stroke-miterlimit:10;}
	.st53{fill:#FF0000;}
	.st54{fill:none;stroke:#FF0000;stroke-miterlimit:10;}
	.st55{fill:#E1584B;stroke:#FF0000;stroke-miterlimit:10;}
	.st56{fill:#333333;stroke:#FF0000;stroke-miterlimit:10;}
</style>
<g id="Layer_1">
	<path d="M2.7,30.1c0.1-0.4,0.2-1.3,0.7-2.2c0.2-0.4,0.7-1.2,1.5-1.7c0.7-0.5,1.6-0.9,2.8-1.1C8,25,8.3,25,8.5,24.8
		c0.1-0.2,0.2-0.4,0.1-0.6c-0.1-0.3-0.4-0.4-0.6-0.4c-0.4,0-0.9,0.1-1.3,0.2c-1.5,0.4-2.1,0.8-2.5,1.1c-1,0.7-1.4,1.3-1.7,1.7
		c-0.6,0.8-0.8,1.7-1,2.4c-0.1,0.5-0.1,0.9,0,1.2c0,0,0.2,0.3,0.5,0.2C2.5,30.5,2.6,30.3,2.7,30.1z"/>
	<path d="M30.8,18c-0.2,0.1-0.3,0.3-0.3,0.5c0,0.3,0.3,0.7,0.4,1c0.1,0.3,0.4,0.7,0.8,1.7c0.2,0.5,0.3,0.7,0.4,0.9
		c0.1,0.4,0.1,0.6,0.1,1c0,0.2-0.5,0.8-0.7,1c-0.9,1.1-1.9,2.1-2.8,2.9c-0.5,0.5-1,1-1.5,1.5c-0.2,0.2-0.5,0.4-0.9,0.6
		c-0.4,0.2-0.8,0.2-1,0.2c-1.2,0-2.6,0-2.6,0c-2,0-4.2,0-4.4,0.1c-0.6,0-1.3,0-1.8,0c-0.3,0-0.5,0.2-0.6,0.5c0,0.3,0,0.5,0.3,0.6
		c0.2,0.1,0.6,0.1,0.8,0.1c0.8,0,1.7,0,2.5,0c0.7,0,0.4,0,2,0c0.8,0,0.6,0,2,0c0.7,0,1.3,0,1.9,0c0.6,0,1-0.1,1.2-0.2
		c0.6-0.2,1-0.5,1.2-0.7c0.9-0.8,1.6-1.5,2.3-2.2c1.4-1.5,1.9-2,2.1-2.3c0.2-0.3,0.8-0.9,0.9-1.2c0.3-0.4,0.3-1,0.3-1.3
		c0-0.5,0-0.9-0.6-1.9c-0.5-1-0.4-0.9-0.9-1.7c-0.1-0.2-0.4-0.7-0.5-0.8C31.4,18,31.1,17.9,30.8,18z"/>
	<path d="M23.6,13.2c0,0.3,0.3,0.5,0.6,0.5c0.7,0,1.1-0.1,2.3-0.2c1.3,0,1.9,0.1,2.3,0.2c0.6,0.1,1.1,0.4,1.1,0.5
		c0.5,0.6,0.7,1,0.9,1.2c0.5,0.7,1.2,1.7,2.2,3.7c1,1.9,1.6,2.9,1.7,3.2c0.4,0.9,1.1,2.1,1.7,3.1c0.2,0.3,0.5,0.4,0.8,0.3
		c0.2-0.1,0.4-0.4,0.4-0.6c-0.1-0.5-0.4-0.9-0.5-1c-0.8-1.3-1.4-2.5-2.1-4c-0.5-1-1.2-2.1-1.7-3.2c-0.2-0.4-1-1.6-1.4-2.2
		c-0.6-0.8-0.9-1.2-1.2-1.5c-0.6-0.4-1-0.5-1.6-0.7c-0.5-0.1-1.4-0.2-2.4-0.1c-0.8,0-1.1,0-1.7,0.1c-0.3,0-0.5,0-0.9,0.1
		C23.8,12.6,23.6,12.8,23.6,13.2z"/>
	<path d="M40.8,18.1c0-0.7,0-0.9,0-1.3c-0.1-0.8-0.4-1.1-0.5-1.2c-0.3-0.3-0.5-0.4-0.6-0.5C39.5,15,39.2,15,39.1,15
		c-0.5,0-0.9,0.2-1.2,0.3c-0.5,0.3-0.9,0.6-1,0.7c-0.2,0.2-0.7,0.6-1,1.4c-0.4,1-0.2,2-0.1,2.3c0.3,1.2,1.2,1.9,1.5,2.1
		c0.3,0.2,1,0.7,1.9,0.7c0.4,0,0.6,0,0.7-0.1c0.5-0.2,0.7-0.7,0.8-0.9c0.1-0.3,0.2-0.5,0.2-1.1C40.9,19.4,40.8,19.2,40.8,18.1z
		 M39.6,20c0,0.4,0,0.5,0,0.7c0,0.1,0.1,0.3-0.2,0.6c-0.1,0.1-0.4,0-0.7-0.1c-0.6-0.2-0.8-0.4-1-0.5c-0.2-0.2-0.6-0.5-0.8-1.3
		c-0.1-0.5-0.2-1.1,0.1-1.8c0.1-0.3,0.4-0.7,0.5-0.8c0.1-0.1,0.2-0.3,0.6-0.5c0.2-0.1,0.5-0.3,0.9-0.3c0.1,0,0.3-0.1,0.4,0
		c0,0,0.2,0.1,0.2,0.5c0,0.1,0.1,0.6,0.1,0.9c0,0.3,0,0.8,0,1.2C39.6,19.5,39.7,19.3,39.6,20z"/>
	<path d="M2.3,24.7c0.3,0.2,0.3,0.1,0.4,0.1c0,0,0.1,0,0.2,0c0.2-0.1,0.5-0.5,0.9-0.8c0.3-0.2,0.9-0.7,1.4-0.9
		c0.4-0.2,1.1-0.4,1.7-0.5c0.2,0,1-0.2,2.4-0.2c1,0,1.9,0.1,2.8,0.1c0.7,0.1,1.5,0.1,2.2,0.2c0.4,0,0.8,0.1,1.4,0
		c0.3,0,0.7-0.1,1.2-0.3c0.5-0.2,0.9-0.5,1.3-0.8c1.5-1.1,1.6-1.3,2.1-1.7c0.2-0.2,1-0.7,2.1-1.3c0.9-0.4,1.8-0.7,2.4-0.8
		c0.8-0.1,1.4,0.1,1.6,0.1c0.4,0.1,1.4,0.3,2.2,1.2c0.2,0.3,0.7,0.8,0.8,1.6c0,0.3,0.1,1-0.3,1.7c-0.2,0.3-0.7,0.6-1.2,0.7
		c-0.5,0.2-1.5,0.3-2.4,0.4c-0.7,0-1.2,0.1-2.3,0.1c-1.6,0-1.8,0-3.2,0c-0.3,0-0.3,0-2.4,0c-1.4,0-1.2,0-1.5,0
		c-0.4,0-1.1,0.1-1.5,0.4c-0.1,0.1-0.7,0.5-0.8,1.3c-0.1,0.9,0.5,1.5,0.6,1.6c0.4,0.4,0.8,0.6,1.5,0.6c0.3,0,1,0,2,0
		c0.8,0,1.5,0,2.3,0c1.3,0,2-0.1,2.4-0.1c1.3,0,2,0,2,0c0.2,0,1,0,1.3,0c0.3,0,0.4-0.2,0.5-0.4c0.1-0.1,0-0.4-0.1-0.6
		c-0.2-0.3-0.4-0.2-0.6-0.2c-2.4,0-3.6,0.1-3.9,0.1c-1.9,0-1.7,0.1-3.2,0.1c-0.8,0-1.7,0.1-2.3,0.1c-0.2,0-0.8,0-1-0.2
		C15.3,26.2,15,26,15,25.7c0-0.3,0.1-0.5,0.2-0.5c0.3-0.2,0.6-0.2,0.8-0.2c0.6,0,1.3,0,2,0c1.1,0,2.1,0,3.2,0c1.3,0,1.7,0,2.3,0
		c1,0,1.5,0,1.7-0.1c0.7,0,1.3-0.1,2.1-0.2c1-0.2,1.5-0.3,2-0.6c0.2-0.1,0.8-0.5,1.2-1.3c0.4-0.8,0.3-1.6,0.2-2
		c0-0.2-0.2-0.9-0.7-1.7c-0.6-0.9-1.3-1.3-1.7-1.5c-0.3-0.2-1.1-0.6-2.3-0.7c-1.3-0.1-2.3,0.2-3,0.5c-1.2,0.4-2.1,1-2.6,1.4
		c-0.6,0.4-1.2,0.9-1.9,1.4c0,0-0.7,0.6-1.7,1.1c-0.3,0.2-0.5,0.3-0.9,0.4c-0.6,0.2-1,0.1-1.3,0.1c-1.3-0.1-2.9-0.2-3.4-0.3
		c-1.2-0.1-2.1-0.1-2.8-0.1c-1,0-1.6,0.1-2.2,0.2c-0.5,0.1-0.9,0.2-1.5,0.5c-0.2,0.1-0.4,0.2-1.4,0.8c-0.6,0.4-0.9,0.8-1.1,1
		C2,24.2,2.1,24.6,2.3,24.7z"/>
	<path d="M44.6,27.8c-2.1-2.1-5.4-2.1-7.5,0c-2.1,2.1-2.1,5.4,0,7.5c2.1,2.1,5.4,2.1,7.5,0C46.6,33.2,46.6,29.9,44.6,27.8z
		 M43.1,33.8c-1.3,1.3-3.3,1.3-4.6,0c-1.3-1.3-1.3-3.3,0-4.6c1.3-1.3,3.3-1.3,4.6,0C44.4,30.5,44.4,32.6,43.1,33.8z"/>
	<path d="M13,28C10.9,26,7.5,26,5.5,28c-2.1,2.1-2.1,5.4,0,7.5c2.1,2.1,5.4,2.1,7.5,0C15,33.4,15,30.1,13,28z M11.5,34.1
		c-1.3,1.3-3.3,1.3-4.6,0c-1.3-1.3-1.3-3.3,0-4.6c1.3-1.3,3.3-1.3,4.6,0C12.8,30.7,12.8,32.8,11.5,34.1z"/>
</g>
<g id="specctr">
	<g id="Dimensions">
	</g>
	<g id="Object_Properties">
	</g>
</g>
</svg>
