<?xml version="1.0" encoding="UTF-8" standalone="no"?>
<svg width="64px" height="57px" viewBox="0 0 64 57" version="1.1" xmlns="http://www.w3.org/2000/svg" xmlns:xlink="http://www.w3.org/1999/xlink" xmlns:sketch="http://www.bohemiancoding.com/sketch/ns">
    <!-- Generator: Sketch 3.3.2 (12043) - http://www.bohemiancoding.com/sketch -->
    <title>Slice 1</title>
    <desc>Created with Sketch.</desc>
    <defs></defs>
    <g id="Page-1" stroke="none" stroke-width="1" fill="none" fill-rule="evenodd" sketch:type="MSPage">
        <g id="Imported-Layers" sketch:type="MSLayerGroup" transform="translate(6.000000, 3.000000)" fill="#000000">
            <path d="M2.08,2.46015625 L49.9231515,2.46015625 C50.5802424,2.46015625 51.1081212,1.9328125 51.1081212,1.2875 C51.1081212,0.6375 50.5802424,0.10703125 49.9231515,0.10703125 L2.08,0.10703125 C1.42527273,0.10703125 0.895030303,0.6375 0.895030303,1.2875 C0.895030303,1.9328125 1.42527273,2.46015625 2.08,2.46015625" id="Fill-1" sketch:type="MSShapeGroup"></path>
            <path d="M50.4053333,15.9125 L1.59309091,15.9125 C0.938363636,15.9125 0.408121212,16.4429687 0.408121212,17.0875 C0.408121212,17.7382812 0.938363636,18.265625 1.59309091,18.265625 L50.4053333,18.265625 C51.0600606,18.265625 51.5918788,17.7382812 51.5918788,17.0875 C51.5918788,16.4429687 51.0600606,15.9125 50.4053333,15.9125" id="Fill-2" sketch:type="MSShapeGroup"></path>
            <path d="M50.4053333,31.7234375 L1.59309091,31.7234375 C0.938363636,31.7234375 0.408121212,32.253125 0.408121212,32.9039062 C0.408121212,33.5492187 0.938363636,34.0789062 1.59309091,34.0789062 L50.4053333,34.0789062 C51.0600606,34.0789062 51.5918788,33.5492187 51.5918788,32.9039062 C51.5918788,32.253125 51.0600606,31.7234375 50.4053333,31.7234375" id="Fill-3" sketch:type="MSShapeGroup"></path>
            <path d="M49.9231515,47.5367187 L2.08,47.5367187 C1.42527273,47.5367187 0.895030303,48.0671875 0.895030303,48.7148438 C0.895030303,49.3625 1.42527273,49.8929688 2.08,49.8929688 L49.9231515,49.8929688 C50.5802424,49.8929688 51.1081212,49.3625 51.1081212,48.7148438 C51.1081212,48.0671875 50.5802424,47.5367187 49.9231515,47.5367187" id="Fill-4" sketch:type="MSShapeGroup"></path>
        </g>
    </g>
</svg>