<?xml version="1.0" encoding="UTF-8" standalone="no"?>
<svg width="100px" height="100px" viewBox="0 0 100 100" version="1.1" xmlns="http://www.w3.org/2000/svg" xmlns:xlink="http://www.w3.org/1999/xlink" xmlns:sketch="http://www.bohemiancoding.com/sketch/ns">
    <!-- Generator: Sketch 3.4.4 (17249) - http://www.bohemiancoding.com/sketch -->
    <title>Artboard 44</title>
    <desc>Created with Sketch.</desc>
    <defs></defs>
    <g id="mobile-postad" stroke="none" stroke-width="1" fill="none" fill-rule="evenodd" sketch:type="MSPage">
        <g id="Artboard-44" sketch:type="MSArtboardGroup" stroke="#000000">
            <g id="Page-1" sketch:type="MSLayerGroup" transform="translate(0.000000, 38.000000)">
                <path d="M75.9130392,26.9141308 C75.9130392,30.0714833 78.4512745,32.6315789 81.5816667,32.6315789 C84.7120588,32.6315789 87.2493137,30.0714833 87.2493137,26.9141308 C87.2493137,23.7567783 84.7120588,21.1966826 81.5816667,21.1966826 C78.4512745,21.1966826 75.9130392,23.7567783 75.9130392,26.9141308 L75.9130392,26.9141308 Z" id="Stroke-1" stroke-width="2" sketch:type="MSShapeGroup"></path>
                <path d="M12.1135294,26.9141308 C12.1135294,30.0714833 14.6517647,32.6315789 17.7821569,32.6315789 C20.912549,32.6315789 23.4498039,30.0714833 23.4498039,26.9141308 C23.4498039,23.7567783 20.912549,21.1966826 17.7821569,21.1966826 C14.6517647,21.1966826 12.1135294,23.7567783 12.1135294,26.9141308 L12.1135294,26.9141308 Z" id="Stroke-3" stroke-width="2" sketch:type="MSShapeGroup"></path>
                <path d="M45.2501961,10.0010845 L43.8727451,5.1538118" id="Stroke-5" stroke-linecap="round" sketch:type="MSShapeGroup"></path>
                <path d="M3.11794118,9.08878469 C-0.923235294,11.9840957 -0.463431373,30.5119107 5.615,29.5764721" id="Stroke-7" stroke-linecap="round" sketch:type="MSShapeGroup"></path>
                <path d="M8.69,29.3441946 C7.83411765,29.461866 7.01058824,29.4628549 5.6154902,29.576571" id="Stroke-9" stroke-linecap="round" sketch:type="MSShapeGroup"></path>
                <path d="M3.96960784,19.5432504 C3.26372549,17.6288644 5.43529412,9.21486124 6.90098039,8.91821053" id="Stroke-11" stroke-linecap="round" sketch:type="MSShapeGroup"></path>
                <path d="M14.8227451,7.15956619 C13.4237255,7.91305901 11.2727451,8.15532376 6.90117647,8.91870494" id="Stroke-13" stroke-linecap="round" sketch:type="MSShapeGroup"></path>
                <path d="M14.8227451,7.15956619 C18.2776471,5.55567464 25.2207843,0.47800319 42.5707843,0.921990431" id="Stroke-15" stroke-linecap="round" sketch:type="MSShapeGroup"></path>
                <path d="M65.75,7.85007018 C61.4147059,6.12059649 53.7480392,0.921298246 42.5705882,0.921298246" id="Stroke-17" stroke-linecap="round" sketch:type="MSShapeGroup"></path>
                <path d="M65.75,7.85007018 C68.6245098,9.28684848 71.6686275,10.385445 75.9666667,10.7246156" id="Stroke-19" stroke-linecap="round" sketch:type="MSShapeGroup"></path>
                <path d="M75.9665686,10.7244179 C83.5067647,11.4897767 87.9587255,13.0808134 93.917549,15.8001116" id="Stroke-21" stroke-linecap="round" sketch:type="MSShapeGroup"></path>
                <path d="M93.9177451,15.799815 C97.3726471,17.2098947 99.6187255,19.5484912 99.5520588,21.7565614" id="Stroke-23" stroke-linecap="round" sketch:type="MSShapeGroup"></path>
                <path d="M99.5523529,21.7567592 C99.2043137,23.8244147 98.2180392,23.6197257 98.6415686,26.9145263" id="Stroke-25" stroke-linecap="round" sketch:type="MSShapeGroup"></path>
                <path d="M98.6418627,26.9141308 C98.6418627,29.4979585 95.4202941,29.1607656 91.6281373,29.344689" id="Stroke-27" stroke-linecap="round" sketch:type="MSShapeGroup"></path>
                <path d="M27.4894118,29.2875343 L71.6678431,29.3438979" id="Stroke-29" stroke-linecap="round" sketch:type="MSShapeGroup"></path>
                <path d="M45.4259804,12.3826954 L64.1230392,12.505311" id="Stroke-31" stroke-linecap="round" sketch:type="MSShapeGroup"></path>
                <path d="M45.2501961,10.0010845 L43.8727451,5.1538118" id="Stroke-33" stroke-linecap="round" sketch:type="MSShapeGroup"></path>
                <path d="M43.7498039,4.87407018 C53.8998039,4.02663796 63.6203922,11.4527943 65.4380392,12.0174195" id="Stroke-35" stroke-linecap="round" sketch:type="MSShapeGroup"></path>
                <path d="M65.4376471,12.0173206 L64.1229412,12.5058054" id="Stroke-37" stroke-linecap="round" sketch:type="MSShapeGroup"></path>
                <path d="M24.6768627,10.5320893 L42.5709804,12.3238596" id="Stroke-39" stroke-linecap="round" sketch:type="MSShapeGroup"></path>
                <path d="M24.6768627,10.5320893 C23.4033333,10.4875917 21.9043137,9.46810207 22.1582353,8.89754386" id="Stroke-41" stroke-linecap="round" sketch:type="MSShapeGroup"></path>
                <path d="M22.1577451,8.89734609 C22.3783333,7.02251356 28.4430392,4.99144498 36.5930392,4.78082297" id="Stroke-43" stroke-linecap="round" sketch:type="MSShapeGroup"></path>
                <path d="M36.592549,4.78032855 C39.7298039,4.5657512 40.8778431,5.15410845 41.0915686,5.9441882" id="Stroke-45" stroke-linecap="round" sketch:type="MSShapeGroup"></path>
                <path d="M41.0911765,5.94458373 L42.0696078,9.91772568" id="Stroke-47" stroke-linecap="round" sketch:type="MSShapeGroup"></path>
            </g>
        </g>
    </g>
</svg>