<?xml version="1.0" encoding="UTF-8" standalone="no"?>
<svg width="66px" height="49px" viewBox="0 0 66 49" version="1.1" xmlns="http://www.w3.org/2000/svg" xmlns:xlink="http://www.w3.org/1999/xlink" xmlns:sketch="http://www.bohemiancoding.com/sketch/ns">
    <!-- Generator: Sketch 3.3.2 (12043) - http://www.bohemiancoding.com/sketch -->
    <title>Layer_2</title>
    <desc>Created with Sketch.</desc>
    <defs></defs>
    <g id="Page-1" stroke="none" stroke-width="1" fill="none" fill-rule="evenodd" sketch:type="MSPage">
        <g id="Layer_2" sketch:type="MSLayerGroup" fill="#000000">
            <path d="M57.6,30.7 C50.4,19.8 40.3,14 28.2,13.6 L28.2,1.8 C28.2,1.2 27.8,0.9 27.4,0.5 C27,0.1 26.3,0.3 25.9,0.7 L1.3,22.7 C0.9,22.9 0.9,23.3 0.9,23.6 C0.9,24 1.1,24.4 1.3,24.5 L26,47.3 C26.4,47.7 26.9,47.7 27.5,47.5 C28.1,47.3 28.3,46.7 28.3,46.2 L28.3,32.6 C43.2,32.6 54.5,34.1 62.5,48.2 C62.7,48.6 63.3,49 63.6,49 L64.2,49 C64.8,48.8 65.1,48.1 65.1,47.5 C64.7,47.5 63,39 57.6,30.7 L57.6,30.7 Z M26.9,30.2 C26.1,30.2 25.6,30.8 25.6,31.5 L25.6,43.4 L4.3,23.8 L25.4,4.8 L25.4,15 C25.4,15.8 26,16.3 26.7,16.3 C38.6,16.3 48.2,21.6 55.1,32.1 C57,34.9 58.3,37.7 59.4,40.2 C51,31.1 39.9,30.2 26.9,30.2 L26.9,30.2 Z" id="Shape" sketch:type="MSShapeGroup"></path>
        </g>
    </g>
</svg>