<?xml version="1.0" encoding="UTF-8" standalone="no"?>
<svg width="57px" height="53px" viewBox="0 0 57 53" version="1.1" xmlns="http://www.w3.org/2000/svg" xmlns:xlink="http://www.w3.org/1999/xlink" xmlns:sketch="http://www.bohemiancoding.com/sketch/ns">
    <!-- Generator: Sketch 3.3.3 (12081) - http://www.bohemiancoding.com/sketch -->
    <title>basic-chat</title>
    <desc>Created with Sketch.</desc>
    <defs></defs>
    <g id="Page-1" stroke="none" stroke-width="1" fill="none" fill-rule="evenodd" sketch:type="MSPage">
        <g id="basic-chat" sketch:type="MSLayerGroup" fill="#000000">
            <g id="Page-1" sketch:type="MSShapeGroup">
                <g id="chat">
                    <path d="M56.9269978,23.9140389 C56.9269978,10.6725702 44.8172786,0.6 28.7464363,0.6 C12.675594,0.6 0,10.8989201 0,23.9140389 C0,31.7231102 5.54557235,37.3818575 10.2989201,40.7771058 L10.2989201,52.2077754 C10.2989201,52.5473002 10.412095,52.7736501 10.6384449,52.8868251 C10.7516199,53 10.9779698,53 11.0911447,53 C11.2043197,53 11.3174946,53 11.4306695,52.8868251 C11.6570194,52.7736501 17.5421166,50.0574514 22.6349892,44.625054 C24.7853132,45.0777538 27.275162,45.4172786 29.5386609,45.4172786 C45.9490281,45.4172786 56.9269978,36.8159827 56.9269978,23.9140389 Z" id="Shape"></path>
                </g>
            </g>
        </g>
    </g>
</svg>