<?xml version="1.0" encoding="UTF-8" standalone="no"?>
<svg width="41px" height="48px" viewBox="0 0 41 48" version="1.1" xmlns="http://www.w3.org/2000/svg" xmlns:xlink="http://www.w3.org/1999/xlink" xmlns:sketch="http://www.bohemiancoding.com/sketch/ns">
    <!-- Generator: Sketch 3.3.3 (12081) - http://www.bohemiancoding.com/sketch -->
    <title>basic-user1</title>
    <desc>Created with Sketch.</desc>
    <defs></defs>
    <g id="Page-1" stroke="none" stroke-width="1" fill="none" fill-rule="evenodd" sketch:type="MSPage">
        <g id="basic-user1" sketch:type="MSLayerGroup" fill="#000000">
            <g id="Page-1" sketch:type="MSShapeGroup">
                <path d="M3.57231481,45.5195686 C3.57231481,46.5144073 2.74775926,47.3296331 1.77362963,47.3296331 C0.81012963,47.3296331 0,46.5144073 0,45.5079557 C0,42.2021492 1.32794444,39.7216331 3.16687037,37.9007299 C5.72557407,35.4078266 9.29788889,34.3100202 11.4253333,34.1164718 C11.8558333,34.065375 12.235463,33.8966008 12.501963,33.6380202 C12.665963,33.4707944 12.7677037,33.2509234 12.8162963,33.0442137 C11.1451667,31.6367299 10.3600926,29.6996976 9.72838889,28.0599557 C9.39659259,27.2586654 9.11946296,26.5866654 8.96609259,26.393117 L8.92964815,26.3799557 L8.91522222,26.3675686 L8.90383333,26.3675686 L8.90383333,26.3544073 C8.15596296,25.6560847 7.10514815,24.3391815 6.56075926,22.841117 C6.0027037,21.3554395 5.86375926,19.7156976 6.6997037,18.2184073 C6.25781481,16.8488589 6.02851852,15.349246 6.02851852,13.8008589 C6.0027037,11.825117 6.30640741,9.82150406 6.91533333,7.98898793 L6.99125926,7.83260083 C7.85301852,5.26305245 9.32066667,3.37866535 11.196037,2.09892341 C13.1959259,0.70382664 15.6802222,0.072084705 18.4682222,0.00705244695 C19.5053704,-0.00533464983 20.9244259,-0.0316572305 22.304,0.238536318 C23.8878148,0.524213737 25.3835556,1.14279438 26.2961852,2.44808471 C28.1685185,2.27931051 29.8032037,3.33763309 31.0840741,4.88911696 C32.653463,6.74795567 33.780963,9.46072987 34.0216481,11.0625363 C34.2228519,12.249375 34.2228519,13.4904073 34.047463,14.8080847 C33.9199074,15.8276976 33.6928889,16.9255041 33.3869074,18.0116976 C34.3504074,19.5608589 34.2228519,21.2919557 33.6670741,22.8155686 C33.1090185,24.3136331 32.0695926,25.6560847 31.3103333,26.341246 L31.2852778,26.3675686 L31.259463,26.393117 L31.259463,26.4062783 C31.0696481,26.5866654 30.7917593,27.2710524 30.4743889,28.0599557 C29.8540741,29.6865363 29.1062037,31.5840847 27.4715185,32.9667944 C27.511,33.2122137 27.6355185,33.4444718 27.8147037,33.6380202 C28.0667778,33.8966008 28.471463,34.065375 28.8913333,34.1164718 C31.0073889,34.3100202 34.5797037,35.4078266 37.1376481,37.9007299 C38.9598704,39.709246 40.3022407,42.2021492 40.3022407,45.5195686 C40.3022407,46.5144073 39.4921111,47.3296331 38.5316481,47.3296331 C37.5430926,47.3296331 36.7557407,46.5144073 36.7557407,45.5079557 C36.7557407,43.337117 35.871963,41.7236976 34.6677778,40.5353105 C32.7810185,38.6888589 30.1456296,37.861246 28.573963,37.7458912 C27.3075185,37.6158266 26.1428148,37.0746654 25.2818148,36.1959557 C24.3183148,35.2398266 22.9501296,31.6367299 24.7374259,30.4878266 C25.9902037,29.725246 26.65,28.0847299 27.1685741,26.7020202 C27.6643704,25.4756976 28.0667778,24.417375 28.8799444,23.6679557 L28.8799444,23.6935041 L28.8913333,23.6679557 C29.3355,23.2676976 29.9930185,22.4540202 30.3217778,21.5489879 C30.5768889,20.8785363 30.6277593,20.2065363 30.1972593,19.7420202 L30.2086481,19.7420202 C29.7409444,19.2116976 29.5739074,18.2555686 29.7918148,17.5967299 C30.1456296,16.4486008 30.398463,15.377117 30.5115926,14.3427944 C30.6277593,13.3735041 30.6528148,12.4707944 30.5002037,11.5781492 C30.3468333,10.4950524 29.5367037,8.60834277 28.3841481,7.23956858 C27.7775,6.50253632 27.1177037,5.97376212 26.5619259,6.07827825 C25.9385741,6.16731051 25.3326852,6.07827825 24.7746296,5.81969761 C24.2932593,5.57272987 23.862,5.21118148 23.5332407,4.73350406 L23.4201111,4.60498793 C23.1543704,4.19156858 22.4687593,3.93298793 21.6722963,3.78976212 C20.6214815,3.59621374 19.4286852,3.62253632 18.5418704,3.6488589 C16.4288519,3.67440729 14.592963,4.11337503 13.1594815,5.12060083 C11.9180926,5.96137503 10.9545926,7.23956858 10.3342778,9.03492341 L10.2834074,9.17737503 C9.81646296,10.6104073 9.54996296,12.1990524 9.57577778,13.7489879 C9.60083333,15.1316976 9.81646296,16.4602137 10.2583519,17.5727299 C10.4618333,17.9203428 10.5385185,18.3593105 10.4481667,18.7595686 C10.2583519,19.9487299 9.32066667,20.0006008 9.87872222,21.5489879 C10.2074815,22.4021492 10.841463,23.2158266 11.2863889,23.6416331 L11.3349815,23.7198266 L11.360037,23.7198266 C12.1337222,24.4545363 12.5497963,25.5020202 13.020537,26.7020202 C13.5785926,28.0847299 14.2353519,29.7515686 15.4767407,30.5389234 C16.0347963,30.8230524 16.4144259,31.4168589 16.4144259,32.1407299 C16.4144259,33.6898912 16.1623519,35.033117 15.0204259,36.1959557 C14.1844815,37.0746654 12.9947222,37.6158266 11.7032222,37.7458912 C10.144463,37.861246 7.52425926,38.6888589 5.64888889,40.5353105 C4.43331481,41.7236976 3.57231481,43.337117 3.57231481,45.5195686" id="Imported-Layers"></path>
            </g>
        </g>
    </g>
</svg>