<?xml version="1.0" encoding="utf-8"?>
<!-- Generator: Adobe Illustrator 19.1.0, SVG Export Plug-In . SVG Version: 6.00 Build 0)  -->
<svg version="1.1" xmlns="http://www.w3.org/2000/svg" xmlns:xlink="http://www.w3.org/1999/xlink" x="0px" y="0px"
	 viewBox="0 0 47 52.6" style="enable-background:new 0 0 47 52.6;" xml:space="preserve">
<style type="text/css">
	.st0{fill:#FFFFFF;}
	.st1{fill:#F8F8F8;}
	.st2{fill:#D8D8D8;}
	.st3{fill:#666666;}
	.st4{fill:#333333;}
	.st5{fill:none;stroke:#CCCCCC;stroke-miterlimit:10;}
	.st6{fill:#008AD2;}
	.st7{fill:#FFFFFF;stroke:#E6E6E6;stroke-miterlimit:10;}
	.st8{fill:none;stroke:#333333;stroke-width:0.5;}
	.st9{fill:none;stroke:#333333;}
	.st10{fill:#999999;}
	.st11{fill:none;stroke:#999999;stroke-width:0.5;stroke-miterlimit:10;}
	.st12{fill:#FFFFFF;stroke:#000000;stroke-width:2;stroke-miterlimit:10;}
	.st13{fill:none;stroke:#000000;stroke-width:2;stroke-miterlimit:10;}
	.st14{fill:none;stroke:#999999;stroke-miterlimit:10;}
	.st15{fill:none;stroke:#F2F2F2;stroke-miterlimit:10;}
	.st16{fill:none;stroke:#4D4D4D;stroke-miterlimit:10;}
	.st17{fill:#808080;}
	.st18{fill:none;stroke:#00B21B;stroke-width:2;stroke-miterlimit:10;}
	.st19{fill:none;stroke:#B3B3B3;stroke-width:2;stroke-miterlimit:10;}
	.st20{fill:#33A2D9;stroke:#33A2D9;stroke-width:0.5;stroke-miterlimit:10;}
	.st21{opacity:0.93;fill:#0E303A;}
	.st22{fill:#E1584B;}
	.st23{fill:#FFFEFE;}
	.st24{fill:#1EBEF0;}
	.st25{fill:#FEFEFE;}
	.st26{fill:#3A5BA2;}
	.st27{fill:#FFFFFF;stroke:#CCCCCC;stroke-miterlimit:10;}
	.st28{fill:#EAF8FF;stroke:#CCCCCC;stroke-miterlimit:10;}
	.st29{fill:#EAF8FF;}
	.st30{fill:none;stroke:#CCCCCC;stroke-linecap:round;stroke-miterlimit:10;}
	.st31{fill:#001825;}
	.st32{fill:#F2F2F2;stroke:#CCCCCC;stroke-miterlimit:10;}
	.st33{fill:none;stroke:#FFFFFF;stroke-width:0.75;stroke-miterlimit:10;}
	.st34{fill:#005289;}
	.st35{fill:none;stroke:#E6E6E6;stroke-miterlimit:10;}
	.st36{fill:#7C7C7C;}
	.st37{fill:none;stroke:#7C7C7C;stroke-width:0.5;}
	.st38{fill:#373737;}
	.st39{opacity:0.49;}
	.st40{fill:#C00016;}
	.st41{fill:#4A4A4A;}
	.st42{fill:#F2F2F2;}
	.st43{fill:none;stroke:#666666;stroke-miterlimit:10;}
	.st44{fill:none;stroke:#666666;stroke-width:0.75;stroke-linecap:round;stroke-linejoin:round;stroke-miterlimit:10;}
	.st45{fill:none;stroke:#666666;stroke-linecap:round;stroke-linejoin:round;stroke-miterlimit:10;}
	.st46{fill:none;stroke:#666666;stroke-linejoin:round;stroke-miterlimit:10;}
	.st47{fill:#58B957;}
	.st48{fill:none;stroke:#000000;stroke-width:4;stroke-miterlimit:10;}
	.st49{fill:none;stroke:#000000;stroke-width:2;stroke-linecap:round;stroke-miterlimit:10;}
	.st50{fill:none;stroke:#666666;}
	.st51{fill:none;stroke:#333333;stroke-miterlimit:10;}
	.st52{fill:#FFFFFF;stroke:#FF0000;stroke-miterlimit:10;}
	.st53{fill:#FF0000;}
	.st54{fill:none;stroke:#FF0000;stroke-miterlimit:10;}
	.st55{fill:#E1584B;stroke:#FF0000;stroke-miterlimit:10;}
	.st56{fill:#333333;stroke:#FF0000;stroke-miterlimit:10;}
</style>
<g id="Layer_1">
	<path d="M5.6,35.4c0,0.5-0.3,0.5-0.5,0.6c-0.3,0.1-0.9,0-1.3,0c-0.4,0-1.1-0.1-1.4-0.2c-0.3-0.1-0.9-0.4-1.1-0.7
		c-0.3-0.3-0.5-0.8-0.6-1.1c-0.2-0.6-0.1-1-0.1-1.4c0-0.6,0-1.9,0-2.5c0-1.1,0-3.3,0-4.4c0-1,0-2.4,0-3.2c0-1,0-3.1,0-4.1
		c0-0.3,0.2-0.5,0.3-0.6c0.3-0.1,0.5,0,0.6,0.1c0.1,0.1,0.2,0.2,0.2,0.5c0,0.8,0,2.3,0,3.1c0,1.3,0,4.3,0,5.9c0,1.1,0,3.2,0,4.2
		c0,0.4,0,0.9,0,1.6c0,0.5,0,0.6,0.3,1c0.1,0.2,0.6,0.4,0.8,0.5c0.2,0.1,0.7,0.1,0.9,0.1c0.3,0,1,0,1.2,0
		C5.2,34.9,5.6,34.8,5.6,35.4"/>
	<path d="M3.4,28.3c0.4,0.2,0.8,0,0.9-0.3c0.1-0.6,0.1-1.5,0.1-2c0-1.3,0-4,0-5.3c0-0.6,0-1.8,0-2.3c0-0.3,0.1-1,0.3-1.3
		c0.1-0.2,0.3-0.5,0.8-0.7c0.2-0.1,1.2-0.3,1.4-0.3c1.9,0,6.5,0,8.8,0c1.6,0,4.4,0,6,0c0.7,0,2.5,0,3.3,0c0.3,0,0.9,0,1.2,0.1
		c0.1,0,0.5,0.1,0.6,0.1c0.1,0.1,0.2,0.3,0.2,0.4c0,0.6,0,1.8,0,2.4c0,0.7,0,2.2,0,2.9c0,0.7,0,2.2,0,3c0,0.8,0,2.4,0,3.2
		c0,0.6,0,1.5,0,2c0,0.3,0,1-0.1,1.3c-0.2,0.5-0.5,0.6-0.8,0.7c-0.3,0.1-1.1,0.1-1.4,0.1c-0.9,0-3,0-4.2,0c-0.9,0-2.5,0-3.5,0
		c-0.8,0-1.3,0-1.7,0c-0.5,0.1-0.6,0.4-0.5,0.8c0,0.2,0.2,0.4,0.4,0.4c0.6,0,1.7,0,2.3,0c0.6,0,1.8,0,2.4,0c1,0,3,0,4,0
		c0.4,0,1.3,0,1.8,0c0.5,0,1.1-0.2,1.4-0.4c0.6-0.3,0.9-0.9,1-1.2c0.2-0.7,0.2-2.2,0.2-2.9c0-1.6,0-4.8,0-6.4c0-0.7,0-2.2,0-3
		c0-0.4,0-1.1,0-1.5c0-0.1,0-0.6,0-0.8c0-0.6,0-1-0.1-1.2c-0.1-0.5-0.5-0.8-0.8-0.9c-0.5-0.2-1.1-0.2-1.7-0.2c-0.5,0-3-0.1-4.2-0.1
		c-1.8,0-5.1,0-6.8,0c-0.7,0-2.3,0-3,0c-0.7,0-2.1,0-2.8,0c-0.6,0-2.1,0.1-2.7,0.1c-0.3,0-0.6,0.1-0.9,0.2c-0.4,0.1-0.8,0.4-1.1,0.6
		c-0.3,0.3-0.6,0.9-0.7,1.5c-0.2,1-0.1,1.9-0.2,2.5c0,0.5,0,1.5,0,2.1c0,0.6,0,1.8,0,2.4c0,0.5,0,1.4,0,2c0,0.5,0,0.8,0,1.1
		C3.1,27.9,3.1,28.2,3.4,28.3z"/>
	<path d="M37.3,33.5c-1.7-1.7-4.4-1.7-6,0c-1.7,1.7-1.7,4.4,0,6c1.7,1.7,4.4,1.7,6,0C39,37.9,39,35.2,37.3,33.5z M36.2,38.4
		c-1,1-2.7,1-3.7,0c-1-1-1-2.7,0-3.7c1-1,2.7-1,3.7,0C37.2,35.7,37.2,37.4,36.2,38.4z"/>
	<path d="M13.3,33.5c-1.7-1.7-4.4-1.7-6,0c-1.7,1.7-1.7,4.4,0,6c1.7,1.7,4.4,1.7,6,0C15,37.9,15,35.2,13.3,33.5z M12.2,38.4
		c-1,1-2.7,1-3.7,0c-1-1-1-2.7,0-3.7c1-1,2.7-1,3.7,0C13.2,35.7,13.2,37.4,12.2,38.4z"/>
</g>
<g id="specctr">
	<g id="Dimensions">
		<path d="M16.7,35.4c0-0.3,0.2-0.5,0.6-0.6c0.2,0,2.7,0,4.3,0c1.8,0,2.6,0,4.1,0c1.2,0,1.5,0,2.8,0c0.4,0,0.6,0.4,0.6,0.6
			c0,0.2-0.2,0.5-0.6,0.5c-0.8,0-3.6,0-7.1,0c-1.1,0-3.1,0-4.1,0C16.9,36,16.7,35.6,16.7,35.4z"/>
		<path d="M29.4,21.6c0.3,0,0.4-0.3,0.5-0.4c0.1-0.4,0.1-0.5,0.2-0.9c0.1-0.4,0.4-0.7,0.6-0.8c0.1-0.1,0.4-0.3,0.8-0.5
			c0.3-0.1,0.6-0.1,1.1-0.1c0.8,0,1.5,0.1,1.5,0.1c0.4,0,1,0,3.1,0.1c0.7,0,1.4,0,2.1,0.1c0.9,0.1,1.7,0.1,2.3,0.3
			c0.4,0.1,0.9,0.4,1.1,0.7c0.2,0.4,0.5,1.2,0.4,1.2c-0.4,0.1-0.5,0.1-0.7,0.4C42,22,42,22.3,42.1,22.9c0.2,1.5,0.2,2,0.3,3.2
			c0,0.4,0.2,0.7,0.5,0.9c0.3,0.2,0.6,0.2,0.7,0.2c0.1,0,0.5-0.1,0.6-0.1c0,0,0,0,0,0c0,0,0.1,0.6,0.2,0.9c0.2,1.5,0.2,2.3,0.2,3
			c0,0.3,0,1.8-0.3,2.7c0,0-0.2,0.8-0.5,1.2c0,0-0.2,0.2-0.4,0.2l0,0c0,0-0.7,0-1.4,0c-0.5,0-0.8,0-0.9,0c-0.4,0-0.7,0-1.1,0
			c-0.2,0-0.4,0-0.6,0c-0.2,0-0.3,0.2-0.4,0.3c-0.1,0.2,0,0.5,0,0.5c0.1,0.2,0.3,0.3,0.4,0.3c0.3,0,0.5,0,0.9,0c0.1,0,0,0,1,0
			c0.9,0,0.7,0,0.9,0c0.7,0,0.8,0,1.1,0c0.2,0,0.6,0,0.9-0.3c0.3-0.2,0.6-0.5,0.8-0.9c0.5-1.1,0.5-1.6,0.6-2.3
			c0.1-0.9,0.1-1.8,0.1-3.1c0,0-0.1-2.1-0.5-3.2c0-0.1-0.1-0.3-0.4-0.5c-0.2-0.1-0.5-0.2-0.5-0.2c-0.2,0-0.4,0-0.4,0
			c-0.2,0-0.3,0.1-0.4,0.1c0,0,0-0.2,0-0.2c0,0-0.1-0.9-0.3-2.6c0-0.2-0.1-0.8-0.1-0.8h0c0,0,0.5-0.2,0.8-0.6
			c0.1-0.2,0.1-0.5,0.1-0.8c0-0.1-0.1-0.5-0.4-1.2c-0.1-0.3-0.4-0.9-1.1-1.3c-0.6-0.3-1.2-0.4-1.7-0.5c-1.7-0.2-3.4-0.2-3.4-0.2
			c-2.7-0.1-4-0.2-4.3-0.2c-0.3-0.1-1-0.2-1.8,0c-0.8,0.2-1.3,0.6-1.4,0.7c-0.1,0.1-0.5,0.4-0.8,1c-0.1,0.1-0.4,0.6-0.4,1.3
			c-0.1,0.5,0,0.6,0.1,0.7C28.9,21.6,29.1,21.6,29.4,21.6z"/>
		<path d="M33.3,20.8c0,0.4,0.3,0.5,0.6,0.5c0.4,0,0.7,0,1,0.1c1,0.1,1.6,0.1,2.5,0.2c0.5,0,0.8,0,1.1,0.1c0.2,0,0.7,0.2,0.9,0.6
			c0.2,0.3,0.2,0.8,0.2,1.1c0.1,1.5,0.2,1.5,0.2,2.7c0,0.6,0.1,1.1,0.2,1.7c0.1,0.4,0.3,0.4,0.4,0.5c0.3,0.1,0.5-0.1,0.6-0.3
			c0.1-0.2,0.1-0.3,0.1-0.4c-0.1-1.3-0.2-1.8-0.2-2.5c-0.1-1.1-0.1-1.2-0.2-2.5c-0.1-0.5-0.2-0.9-0.5-1.3c-0.3-0.4-0.7-0.6-0.9-0.6
			c-0.3-0.1-0.5-0.1-1.5-0.2c-1.3-0.1-1-0.1-1.8-0.1c-1.1-0.1-1.1-0.1-1.3-0.1c-0.1,0-0.4,0-0.7,0c-0.2,0-0.4,0.1-0.6,0.3
			C33.3,20.6,33.3,20.8,33.3,20.8z"/>
		<path d="M34,21.8c0.3,0,0.5,0.2,0.5,0.5c0,0.3,0,0.3,0,0.5c0,0.8,0,0.8,0.1,1.5c0,0.4,0,0.7,0,0.9c0,0.2,0,0.7,0.2,0.9
			c0.2,0.1,0.6,0.1,0.8,0.2c1.1,0.1,1.1,0.1,1.9,0.2c0.4,0,0.9,0.1,1.3,0.1c0.3,0,0.4,0.3,0.5,0.4c0,0.2-0.1,0.5-0.2,0.6
			c-0.1,0.1-0.4,0.1-0.4,0.1c-0.9-0.1-1.4-0.1-1.9-0.2c-0.8-0.1-0.9,0-1.8-0.1c-0.3,0-0.7-0.2-1.1-0.5c-0.3-0.3-0.4-0.7-0.5-1
			c0-0.3,0-0.6-0.1-1.4c0-0.5,0-0.8,0-1.3c0-0.4,0-0.6,0-0.8c0-0.1,0-0.2,0.1-0.3c0.1-0.2,0.1-0.2,0.2-0.3
			C33.8,21.8,34,21.8,34,21.8z"/>
	</g>
	<g id="Object_Properties">
	</g>
</g>
</svg>
