<?xml version="1.0" encoding="UTF-8" standalone="no"?>
<svg width="90px" height="90px" viewBox="0 0 90 90" version="1.1" xmlns="http://www.w3.org/2000/svg" xmlns:xlink="http://www.w3.org/1999/xlink" xmlns:sketch="http://www.bohemiancoding.com/sketch/ns">
    <!-- Generator: Sketch 3.4.2 (15857) - http://www.bohemiancoding.com/sketch -->
    <title>Artboard 15</title>
    <desc>Created with Sketch.</desc>
    <defs></defs>
    <g id="Page-1" stroke="none" stroke-width="1" fill="none" fill-rule="evenodd" sketch:type="MSPage">
        <g id="Artboard-15" sketch:type="MSArtboardGroup" fill="#000000">
            <g id="basic_calendar" sketch:type="MSLayerGroup" transform="translate(9.000000, 15.000000)">
                <g id="Group" sketch:type="MSShapeGroup">
                    <path d="M59.625,0 L50.625,0 L50.625,4.5 L21.375,4.5 L21.375,0 L12.375,0 L12.375,4.5 L0,4.5 L0,60.75 L72,60.75 L72,4.5 L59.625,4.5 L59.625,0 L59.625,0 Z M52.875,2.25 L57.375,2.25 L57.375,9 L52.875,9 L52.875,2.25 L52.875,2.25 Z M14.625,2.25 L19.125,2.25 L19.125,9 L14.625,9 L14.625,2.25 L14.625,2.25 Z M2.25,58.5 L2.25,15.75 L69.75,15.75 L69.75,58.5 L2.25,58.5 L2.25,58.5 Z M69.75,6.75 L69.75,13.5 L2.25,13.5 L2.25,6.75 L12.375,6.75 L12.375,11.25 L21.375,11.25 L21.375,6.75 L50.625,6.75 L50.625,11.25 L59.625,11.25 L59.625,6.75 L69.75,6.75 L69.75,6.75 Z" id="Shape"></path>
                    <path d="M10.125,33.75 L23.625,33.75 L23.625,20.25 L10.125,20.25 L10.125,33.75 L10.125,33.75 Z M12.375,22.5 L21.375,22.5 L21.375,31.5 L12.375,31.5 L12.375,22.5 L12.375,22.5 Z" id="Shape"></path>
                    <path d="M10.125,54 L23.625,54 L23.625,40.5 L10.125,40.5 L10.125,54 L10.125,54 Z M12.375,42.75 L21.375,42.75 L21.375,51.75 L12.375,51.75 L12.375,42.75 L12.375,42.75 Z" id="Shape"></path>
                    <path d="M48.375,33.75 L61.875,33.75 L61.875,20.25 L48.375,20.25 L48.375,33.75 L48.375,33.75 Z M50.625,22.5 L59.625,22.5 L59.625,31.5 L50.625,31.5 L50.625,22.5 L50.625,22.5 Z" id="Shape"></path>
                    <path d="M48.375,54 L61.875,54 L61.875,40.5 L48.375,40.5 L48.375,54 L48.375,54 Z M50.625,42.75 L59.625,42.75 L59.625,51.75 L50.625,51.75 L50.625,42.75 L50.625,42.75 Z" id="Shape"></path>
                    <path d="M29.25,33.75 L42.75,33.75 L42.75,20.25 L29.25,20.25 L29.25,33.75 L29.25,33.75 Z M31.5,22.5 L40.5,22.5 L40.5,31.5 L31.5,31.5 L31.5,22.5 L31.5,22.5 Z" id="Shape"></path>
                    <path d="M29.25,54 L42.75,54 L42.75,40.5 L29.25,40.5 L29.25,54 L29.25,54 Z M31.5,42.75 L40.5,42.75 L40.5,51.75 L31.5,51.75 L31.5,42.75 L31.5,42.75 Z" id="Shape"></path>
                </g>
            </g>
        </g>
    </g>
</svg>