<?xml version="1.0" encoding="UTF-8" standalone="no"?>
<svg width="90px" height="90px" viewBox="0 0 90 90" version="1.1" xmlns="http://www.w3.org/2000/svg" xmlns:xlink="http://www.w3.org/1999/xlink" xmlns:sketch="http://www.bohemiancoding.com/sketch/ns">
    <!-- Generator: Sketch 3.4.2 (15857) - http://www.bohemiancoding.com/sketch -->
    <title>Artboard 15</title>
    <desc>Created with Sketch.</desc>
    <defs></defs>
    <g id="Page-1" stroke="none" stroke-width="1" fill="none" fill-rule="evenodd" sketch:type="MSPage">
        <g id="Artboard-15" sketch:type="MSArtboardGroup" fill="#000000">
            <path d="M75.5,44.1 C73.5,44.1 71.6,44.6 69.8,45.4 L63.8,34.7 C63.8,34.6 63.7,34.6 63.7,34.5 L66.1,28.7 L70.5,28.7 C71.1,28.7 71.5,28.3 71.5,27.7 C71.5,27.1 71.1,26.7 70.5,26.7 L60.5,26.7 C59.9,26.7 59.5,27.1 59.5,27.7 C59.5,28.3 59.9,28.7 60.5,28.7 L64,28.7 L61.7,34.1 L32.1,34.1 L32.6,33.1 C33.6,31.2 33,28.8 31.2,27.6 L27.5,25.2 C26.9,24.8 26.5,24.1 26.5,23.3 C26.5,22.1 27.5,21 28.8,21 L35.5,21 C36.1,21 36.5,20.6 36.5,20 C36.5,19.4 36.1,19 35.5,19 L28.8,19 C26.5,19 24.5,20.9 24.5,23.3 C24.5,24.7 25.2,26.1 26.4,26.8 L30,29.2 C30.9,29.8 31.3,31.1 30.8,32.1 L23.5,46.7 C21.2,45.1 18.5,44.1 15.5,44.1 C8.1,44.1 2,50.2 2,57.6 C2,65 8.1,71.1 15.5,71.1 C22.9,71.1 29,65 29,57.6 C29,53.9 27.5,50.5 25,48.1 L28.3,41.6 L52.4,58.5 C52.6,58.6 52.8,58.7 53,58.7 L62.1,58.7 C62.6,65.6 68.4,71.1 75.5,71.1 C82.9,71.1 89,65 89,57.6 C89,50.2 82.9,44.1 75.5,44.1 L75.5,44.1 Z M27,57.6 C27,63.9 21.8,69.1 15.5,69.1 C9.2,69.1 4,63.9 4,57.6 C4,51.3 9.2,46.1 15.5,46.1 C18.2,46.1 20.6,47 22.6,48.5 L22.1,49.5 C21,52.4 18.3,55 15.1,56.7 C14.6,56.9 14.4,57.5 14.7,58 C14.9,58.4 15.2,58.6 15.6,58.6 C15.8,58.6 15.9,58.6 16,58.5 C19.7,56.6 22.6,53.6 23.9,50.4 L24.1,50 C25.9,52 27,54.7 27,57.6 L27,57.6 Z M73.8,56.6 L64,56.6 C64.3,53.1 66.2,50 69,48.1 L73.8,56.6 L73.8,56.6 Z M52.6,56.1 L29.2,39.8 L31,36.1 L60.8,36.1 L52.6,56.1 L52.6,56.1 Z M54.5,56.6 L62.8,36.7 L68.1,46.3 C64.7,48.5 62.4,52.3 62.1,56.6 L54.5,56.6 L54.5,56.6 Z M75.5,69.1 C69.5,69.1 64.6,64.5 64.1,58.6 L75.5,58.6 C75.9,58.6 76.2,58.4 76.4,58.1 C76.6,57.8 76.6,57.4 76.4,57.1 L70.8,47.1 C72.2,46.5 73.8,46.1 75.5,46.1 C81.8,46.1 87,51.3 87,57.6 C87,63.9 81.8,69.1 75.5,69.1 L75.5,69.1 Z" id="Shape" sketch:type="MSShapeGroup"></path>
        </g>
    </g>
</svg>