<?xml version="1.0" encoding="UTF-8" standalone="no"?>
<svg width="100px" height="100px" viewBox="0 0 100 100" version="1.1" xmlns="http://www.w3.org/2000/svg" xmlns:xlink="http://www.w3.org/1999/xlink" xmlns:sketch="http://www.bohemiancoding.com/sketch/ns">
    <!-- Generator: Sketch 3.3.3 (12081) - http://www.bohemiancoding.com/sketch -->
    <title>SPEACIAL</title>
    <desc>Created with Sketch.</desc>
    <defs></defs>
    <g id="Page-1" stroke="none" stroke-width="1" fill="none" fill-rule="evenodd" sketch:type="MSPage">
        <g id="SPEACIAL" sketch:type="MSArtboardGroup" fill="#000000">
            <g id="design" sketch:type="MSLayerGroup" transform="translate(3.000000, 1.000000)">
                <g id="Group" sketch:type="MSShapeGroup">
                    <path d="M80.4595238,97.4690476 L2.46190476,97.4690476 C1.56666667,97.4690476 0.783333333,96.6857143 0.783333333,95.7904762 L0.783333333,6.26666667 C0.783333333,5.5952381 1.23095238,4.92380952 1.90238095,4.7 C2.57380952,4.47619048 3.2452381,4.58809524 3.8047619,5.14761905 L81.6904762,94.6714286 C82.1380952,95.1190476 82.25,95.902381 81.9142857,96.4619048 C81.5785714,97.0214286 81.1309524,97.4690476 80.4595238,97.4690476 L80.4595238,97.4690476 Z M4.14047619,94.1119048 L76.7666667,94.1119048 L4.14047619,10.7428571 L4.14047619,94.1119048 L4.14047619,94.1119048 Z" id="Shape"></path>
                    <path d="M44.202381,80.2357143 L19.9190476,80.2357143 C19.0238095,80.2357143 18.2404762,79.452381 18.2404762,78.5571429 L18.2404762,50.5809524 C18.2404762,49.9095238 18.6880952,49.2380952 19.3595238,49.0142857 C20.0309524,48.7904762 20.702381,48.902381 21.2619048,49.4619048 L45.6571429,77.4380952 C46.1047619,77.8857143 46.2166667,78.6690476 45.8809524,79.2285714 C45.5452381,79.7880952 44.8738095,80.2357143 44.202381,80.2357143 L44.202381,80.2357143 Z M21.597619,76.8785714 L40.6214286,76.8785714 L21.597619,55.0571429 L21.597619,76.8785714 L21.597619,76.8785714 Z" id="Shape"></path>
                    <g transform="translate(32.452381, 0.000000)" id="Shape">
                        <path d="M56.4,66.247619 L56.0642857,66.247619 L53.0428571,66.0238095 C52.9309524,66.0238095 52.8190476,66.0238095 52.5952381,65.9119048 L51.9238095,65.9119048 C51.0285714,65.9119048 50.1333333,65.8 49.2380952,65.6880952 C47.5595238,65.4642857 46.1047619,64.5690476 44.9857143,63.1142857 C44.202381,62.2190476 43.5309524,61.3238095 42.747619,60.5404762 L41.9642857,59.6452381 C40.6214286,58.0785714 36.0333333,53.0428571 31.6690476,48.2309524 C27.3047619,43.4190476 22.7166667,38.3833333 21.3738095,36.7047619 L10.5190476,24.1714286 C9.06428571,22.3809524 9.17619048,20.1428571 10.8547619,18.5761905 L18.5761905,11.8619048 C20.3666667,10.2952381 22.7166667,10.4071429 24.2833333,12.3095238 C27.9761905,16.3380952 34.802381,24.0595238 41.4047619,31.4452381 C48.1190476,39.0547619 55.1690476,46.8880952 58.9738095,51.252381 C60.3166667,52.7071429 60.8761905,54.6095238 60.7642857,56.6238095 C60.652381,58.0785714 60.5404762,59.5333333 60.4285714,60.8761905 L60.3166667,62.5547619 C60.0928571,64.6809524 58.5261905,66.247619 56.4,66.247619 L56.4,66.247619 Z M53.602381,62.6666667 L56.1761905,62.8904762 C56.6238095,62.8904762 56.847619,62.7785714 56.847619,62.3309524 L56.9595238,60.652381 C57.0714286,59.197619 57.1833333,57.8547619 57.2952381,56.4 C57.4071429,55.2809524 57.0714286,54.2738095 56.2880952,53.4904762 C52.4833333,49.1261905 45.5452381,41.2928571 38.7190476,33.6833333 C32.1166667,26.297619 25.2904762,18.5761905 21.597619,14.3238095 C21.2619048,13.8761905 21.0380952,13.8761905 20.5904762,14.2119048 L12.9809524,20.8142857 C12.6452381,21.15 12.5333333,21.3738095 12.8690476,21.7095238 L23.7238095,34.2428571 C25.0666667,35.8095238 29.6547619,40.8452381 34.0190476,45.6571429 C38.3833333,50.4690476 42.9714286,55.5047619 44.3142857,57.1833333 L45.097619,58.0785714 C45.8809524,58.9738095 46.6642857,59.8690476 47.3357143,60.7642857 C48.0071429,61.547619 48.6785714,61.9952381 49.5738095,62.1071429 C50.2452381,62.2190476 51.0285714,62.2190476 51.9238095,62.3309524 C52.2595238,62.3309524 52.7071429,62.3309524 53.0428571,62.4428571 C53.3785714,62.5547619 53.4904762,62.6666667 53.602381,62.6666667 L53.602381,62.6666667 Z"></path>
                        <path d="M10.7428571,22.2690476 L10.4071429,22.2690476 C9.28809524,22.1571429 8.39285714,21.7095238 7.72142857,20.9261905 L2.12619048,14.4357143 C0.671428571,12.7571429 0.783333333,10.4071429 2.46190476,8.95238095 C3.35714286,8.16904762 4.36428571,7.27380952 5.25952381,6.49047619 L10.2952381,2.12619048 C11.1904762,1.34285714 12.197619,1.00714286 13.2047619,1.00714286 C14.2119048,1.11904762 15.2190476,1.56666667 15.8904762,2.46190476 C17.6809524,4.58809524 19.5833333,6.71428571 21.3738095,8.84047619 C22.8285714,10.6309524 22.7166667,12.8690476 21.0380952,14.4357143 C19.8071429,15.5547619 18.4642857,16.6738095 17.2333333,17.7928571 L13.2047619,21.2619048 C12.5333333,21.9333333 11.6380952,22.2690476 10.7428571,22.2690476 L10.7428571,22.2690476 Z M12.9809524,4.36428571 C12.8690476,4.36428571 12.7571429,4.47619048 12.5333333,4.58809524 L7.49761905,8.95238095 C6.60238095,9.73571429 5.5952381,10.5190476 4.7,11.4142857 C4.36428571,11.75 4.36428571,11.8619048 4.7,12.197619 L10.2952381,18.6880952 C10.4071429,18.8 10.4071429,18.8 10.6309524,18.9119048 L10.5190476,20.5904762 L10.7428571,18.9119048 C10.7428571,18.9119048 10.8547619,18.9119048 11.0785714,18.6880952 L15.1071429,15.2190476 C16.3380952,14.1 17.6809524,12.9809524 18.9119048,11.8619048 C19.247619,11.6380952 19.247619,11.4142857 18.9119048,10.9666667 C17.1214286,8.84047619 15.3309524,6.71428571 13.4285714,4.58809524 C13.2047619,4.47619048 13.0928571,4.36428571 12.9809524,4.36428571 L12.9809524,4.36428571 L12.9809524,4.36428571 Z"></path>
                    </g>
                </g>
            </g>
        </g>
    </g>
</svg>