<?xml version="1.0" encoding="UTF-8" standalone="no"?>
<svg width="100px" height="100px" viewBox="0 0 100 100" version="1.1" xmlns="http://www.w3.org/2000/svg" xmlns:xlink="http://www.w3.org/1999/xlink" xmlns:sketch="http://www.bohemiancoding.com/sketch/ns">
    <!-- Generator: Sketch 3.3.3 (12081) - http://www.bohemiancoding.com/sketch -->
    <title>UMBERLLA</title>
    <desc>Created with Sketch.</desc>
    <defs></defs>
    <g id="Page-1" stroke="none" stroke-width="1" fill="none" fill-rule="evenodd" sketch:type="MSPage">
        <g id="UMBERLLA" sketch:type="MSArtboardGroup" stroke-width="3" stroke="#2B2B2B">
            <g id="drawing-brush" sketch:type="MSLayerGroup" transform="translate(4.000000, 12.000000)">
                <g id="Group" sketch:type="MSShapeGroup">
                    <path d="M45.6,28.5 C45.7,28.1 45.8,27.5 46,26.9 C46.8,25 48.3,23.7 50.1,22.9 C52.1,22 54.1,22.7 55.7,24.6 C58.3,27.9 60.9,31.1 63.4,34.4 C71,44.2 78.7,53.9 85.8,64.1 C87.5,66.5 89,69 90.5,71.4 C90.7,71.8 90.9,72.3 91.1,72.7 C91.2,72.9 91.2,73.2 91.1,73.3 C91,73.4 90.7,73.4 90.5,73.3 C90,73 89.4,72.8 89,72.4 C86.3,70.2 83.6,68 81.1,65.7 C75.2,60.1 69.3,54.5 63.6,48.8 C58.1,43.4 52.8,38 47.4,32.6 C46.4,31.5 45.7,30.3 45.6,28.5 L45.6,28.5 Z" id="Shape"></path>
                    <path d="M15.9,4.9 C17.5,4.1 19,3.2 20.6,2.5 C23.1,1.3 25.7,0.5 28.5,0.6 C32.5,0.8 35.9,2.2 38.8,5.1 C41.7,8.1 43.8,11.4 44.9,15.4 C45.1,16.2 45.2,17.1 45.1,17.9 C45.1,19.6 44.2,20.7 42.7,21.3 C40.2,22.4 37.7,22.1 35.2,21.2 C33.2,20.5 31.8,19 30.6,17.4 C28.9,15 27.5,12.5 26.4,9.8 C25.1,6.4 22.5,5.2 19.2,5 C18.1,4.9 17,5 15.8,5 C15.9,5 15.9,4.9 15.9,4.9 L15.9,4.9 Z" id="Shape"></path>
                    <path d="M26,22 C20,24.5 17.8,26.5 13.2,31 C7.1,37 1.4,45.8 0.9,54.6 C0.7,57.8 1.5,61.2 3.8,63.5 C5,64.6 6.5,65.4 8.1,65.5 C10.6,65.6 12.9,63.8 14.9,62.4 C19.4,59 22.7,54.2 27.2,50.8 C28.1,50.1 29.1,49.5 30.3,49.2 C31.4,48.9 32.7,49 33.7,49.6 C34.4,50.1 34.9,50.9 35.3,51.7 C37,55.7 35.9,60.8 34.7,64.7 C33.9,67.3 33.5,70.6 35.4,72.9 C36.5,74.2 38.2,74.9 39.8,75.2 C44.2,75.8 49.2,74.2 53.4,72.9 C59,71 63.6,69.3 69,65" id="Shape"></path>
                    <path d="M81.7,47.8 C83.3,41.8 84.4,35.1 80,28.3 C75.4,21.3 66.2,17.6 58.1,16.6 C56,16.3 52.7,16.2 52.6,16.2" id="Shape"></path>
                </g>
            </g>
        </g>
    </g>
</svg>