<?xml version="1.0" encoding="UTF-8" standalone="no"?>
<svg width="33px" height="60px" viewBox="0 0 33 60" version="1.1" xmlns="http://www.w3.org/2000/svg" xmlns:xlink="http://www.w3.org/1999/xlink" xmlns:sketch="http://www.bohemiancoding.com/sketch/ns">
    <!-- Generator: Sketch 3.3.3 (12081) - http://www.bohemiancoding.com/sketch -->
    <title>Imported Layers</title>
    <desc>Created with Sketch.</desc>
    <defs></defs>
    <g id="Page-1" stroke="none" stroke-width="1" fill="none" fill-rule="evenodd" sketch:type="MSPage">
        <g id="Artboard-1" sketch:type="MSArtboardGroup" transform="translate(-20.000000, -6.000000)" fill="#1A1918">
            <path d="M41.8609234,66 L28.7247107,66 L28.7247107,39.8258678 L20,39.8258678 L20,27.3282163 L28.5721159,27.3282163 C27.7988315,20.2847978 29.0656433,14.6456639 32.2618857,10.9648299 C35.1220071,7.67029442 39.3431092,6 44.8069653,6 C46.8367511,6 49.0459388,6.23920266 51.3733532,6.71004697 L52.2882346,6.89494787 L52.2882346,18.1202887 L51.1465231,18.1202887 C50.8014664,18.1202887 50.3230611,18.0797342 49.7174934,18.0295567 C48.8163593,17.9539466 47.6938939,17.8604651 46.5604307,17.8604651 C43.633635,17.8604651 42.7751174,18.5010883 42.5242296,18.8825753 C41.5564211,20.3549089 41.6382174,25.5080765 41.6856455,27.5220529 C43.580708,27.5234277 45.6916027,27.5289266 47.4491923,27.5344255 C48.8727231,27.5385497 50.0632375,27.5412991 50.7210448,27.5412991 L52.0648413,27.5412991 L51.846947,28.8679116 C51.8125788,29.0761828 51.6971016,29.8996449 51.5431321,30.9904915 C51.0111124,34.7586207 50.5196472,38.2023141 50.3416199,38.9487914 L50.1333486,39.8258678 L41.8609234,39.8258678 L41.8609234,66 Z" id="Imported-Layers" sketch:type="MSShapeGroup"></path>
        </g>
    </g>
</svg>