<?xml version="1.0" encoding="UTF-8" standalone="no"?>
<svg width="72px" height="72px" viewBox="0 0 72 72" version="1.1" xmlns="http://www.w3.org/2000/svg" xmlns:xlink="http://www.w3.org/1999/xlink" xmlns:sketch="http://www.bohemiancoding.com/sketch/ns">
    <!-- Generator: Sketch 3.3.3 (12081) - http://www.bohemiancoding.com/sketch -->
    <title>Artboard 1 Copy 4</title>
    <desc>Created with Sketch.</desc>
    <defs></defs>
    <g id="Page-1" stroke="none" stroke-width="1" fill="none" fill-rule="evenodd" sketch:type="MSPage">
        <g id="Artboard-1-Copy-4" sketch:type="MSArtboardGroup" fill="#000000">
            <path d="M14.806706,4 C11.7675949,4 9.53115046,5.04888889 8.52670601,6.92 C7.54715046,8.76622222 7.94892824,11.2364444 9.60670601,13.7564444 L29.3258171,43.2791111 L29.3258171,64.64 C29.3258171,65.6631111 29.7275949,66.5368889 30.4564838,67.0106667 C31.2102616,67.4844444 32.1640393,67.4844444 33.0938171,67.0853333 L40.2031505,63.9164444 C42.0369282,63.0933333 43.3933727,61.0222222 43.3933727,58.9751111 L43.3933727,43.2791111 L63.0875949,13.7564444 C64.7711505,11.2364444 65.1729282,8.76622222 64.1924838,6.92 C63.1880393,5.04888889 60.926706,4 57.9133727,4 L14.806706,4 L14.806706,4 Z M14.806706,5.42133333 L57.9133727,5.42133333 C60.6262616,5.42133333 62.2591505,6.29511111 62.9115949,7.568 C63.590706,8.84088889 63.4138171,10.7128889 61.9320393,12.984 L42.0875949,42.68 C42.0120393,42.7795556 41.9613727,42.904 41.9613727,43.0542222 L41.9613727,58.9751111 C41.9613727,60.3475556 40.8315949,62.0951111 39.6253727,62.6435556 L32.5160393,65.8124444 C31.9133727,66.088 31.5115949,66.0124444 31.2351505,65.8373333 C30.9835949,65.688 30.7578171,65.3128889 30.7578171,64.6391111 L30.7578171,43.0542222 C30.7578171,42.904 30.7080393,42.7795556 30.6324838,42.68 L10.7880393,12.984 C9.28048379,10.7128889 9.13026157,8.84088889 9.7835949,7.568 C10.4609282,6.296 12.0938171,5.42133333 14.806706,5.42133333 L14.806706,5.42133333 Z M13.6769282,11.0373333 C13.6262616,11.0622222 13.5764838,11.0622222 13.550706,11.0622222 C13.0733727,11.1608889 12.822706,11.7857778 13.0982616,12.1591111 L30.054706,37.2151111 C30.2555949,37.5146667 30.7329282,37.6142222 31.0342616,37.4151111 C31.3355949,37.1902222 31.4360393,36.7413333 31.2102616,36.4168889 L14.2795949,11.3866667 C14.1542616,11.1875556 13.902706,11.0373333 13.6769282,11.0373333 L13.6769282,11.0373333 Z" id="Imported-Layers" sketch:type="MSShapeGroup"></path>
        </g>
    </g>
</svg>