<?xml version="1.0" encoding="UTF-8" standalone="no"?>
<svg width="100px" height="100px" viewBox="0 0 100 100" version="1.1" xmlns="http://www.w3.org/2000/svg" xmlns:xlink="http://www.w3.org/1999/xlink" xmlns:sketch="http://www.bohemiancoding.com/sketch/ns">
    <!-- Generator: Sketch 3.3.3 (12081) - http://www.bohemiancoding.com/sketch -->
    <title>UMBERLLA</title>
    <desc>Created with Sketch.</desc>
    <defs></defs>
    <g id="Page-1" stroke="none" stroke-width="1" fill="none" fill-rule="evenodd" sketch:type="MSPage">
        <g id="UMBERLLA" sketch:type="MSArtboardGroup" stroke-width="3" stroke="#2B2B2B">
            <g id="fuel" sketch:type="MSLayerGroup" transform="translate(3.000000, 5.000000)">
                <g id="Group" sketch:type="MSShapeGroup">
                    <path d="M66.6,89.5 L13.6,89.5 L13.6,7.3 C13.6,3.3 16.9,0 20.9,0 L59.4,0 C63.4,0 66.7,3.3 66.7,7.3 L66.7,89.5 L66.6,89.5 Z" id="Shape"></path>
                    <path d="M0.9,90 L78.5,90" id="Shape"></path>
                    <path d="M55.2,33.8 L24.9,33.8 C23.6,33.8 22.5,32.7 22.5,31.4 L22.5,13.2 C22.5,11.9 23.6,10.8 24.9,10.8 L55.3,10.8 C56.6,10.8 57.7,11.9 57.7,13.2 L57.7,31.4 C57.7,32.7 56.6,33.8 55.2,33.8 L55.2,33.8 Z" id="Shape"></path>
                    <path d="M66.6,31.1 C66.6,31.1 76.1,31.3 76.1,40.2 L76.1,62.1 C76.1,62.1 76.2,72.2 84.2,71.8 C92.1,71.4 93.1,64.7 93.1,62.3 L93.1,23.3 L81.3,12.9" id="Shape"></path>
                    <path d="M85.8,29.1 L85.8,17" id="Shape"></path>
                </g>
            </g>
        </g>
    </g>
</svg>