<?xml version="1.0" encoding="UTF-8" standalone="no"?>
<svg width="100px" height="100px" viewBox="0 0 100 100" version="1.1" xmlns="http://www.w3.org/2000/svg" xmlns:xlink="http://www.w3.org/1999/xlink" xmlns:sketch="http://www.bohemiancoding.com/sketch/ns">
    <!-- Generator: Sketch 3.3.3 (12081) - http://www.bohemiancoding.com/sketch -->
    <title>grid-view</title>
    <desc>Created with Sketch.</desc>
    <defs></defs>
    <g id="Page-1" stroke="none" stroke-width="1" fill="none" fill-rule="evenodd" sketch:type="MSPage">
        <g id="grid-view" sketch:type="MSArtboardGroup" fill="#000000">
            <g id="noun_110306_cc" sketch:type="MSLayerGroup" transform="translate(5.000000, 5.000000)">
                <path d="M66.1764706,89.4705882 L66.1764706,66.1764706 L89.4705882,66.1764706 L89.4705882,89.4705882 L66.1764706,89.4705882 L66.1764706,89.4705882 Z M66.1764706,33.3529412 L89.4705882,33.3529412 L89.4705882,56.6470588 L66.1764706,56.6470588 L66.1764706,33.3529412 L66.1764706,33.3529412 Z M66.1764706,0.529411765 L89.4705882,0.529411765 L89.4705882,23.8235294 L66.1764706,23.8235294 L66.1764706,0.529411765 L66.1764706,0.529411765 Z M33.3529412,66.1764706 L56.6470588,66.1764706 L56.6470588,89.4705882 L33.3529412,89.4705882 L33.3529412,66.1764706 L33.3529412,66.1764706 Z M33.3529412,33.3529412 L56.6470588,33.3529412 L56.6470588,56.6470588 L33.3529412,56.6470588 L33.3529412,33.3529412 L33.3529412,33.3529412 Z M33.3529412,0.529411765 L56.6470588,0.529411765 L56.6470588,23.8235294 L33.3529412,23.8235294 L33.3529412,0.529411765 L33.3529412,0.529411765 Z M0.529411765,66.1764706 L23.8235294,66.1764706 L23.8235294,89.4705882 L0.529411765,89.4705882 L0.529411765,66.1764706 L0.529411765,66.1764706 Z M0.529411765,33.3529412 L23.8235294,33.3529412 L23.8235294,56.6470588 L0.529411765,56.6470588 L0.529411765,33.3529412 L0.529411765,33.3529412 Z M0.529411765,0.529411765 L23.8235294,0.529411765 L23.8235294,23.8235294 L0.529411765,23.8235294 L0.529411765,0.529411765 L0.529411765,0.529411765 Z" id="Shape" sketch:type="MSShapeGroup"></path>
            </g>
        </g>
    </g>
</svg>