<?xml version="1.0" encoding="UTF-8" standalone="no"?>
<svg width="100px" height="100px" viewBox="0 0 100 100" version="1.1" xmlns="http://www.w3.org/2000/svg" xmlns:xlink="http://www.w3.org/1999/xlink" xmlns:sketch="http://www.bohemiancoding.com/sketch/ns">
    <!-- Generator: Sketch 3.3.3 (12081) - http://www.bohemiancoding.com/sketch -->
    <title>UMBERLLA</title>
    <desc>Created with Sketch.</desc>
    <defs></defs>
    <g id="Page-1" stroke="none" stroke-width="1" fill="none" fill-rule="evenodd" sketch:type="MSPage">
        <g id="UMBERLLA" sketch:type="MSArtboardGroup" stroke-width="3" stroke="#2B2B2B">
            <g id="umbrella" sketch:type="MSLayerGroup" transform="translate(4.000000, 4.000000)">
                <g id="Group" sketch:type="MSShapeGroup">
                    <path d="M46,48.8 C43,44.6 37.1,41.6 33.7,41.8 C30,42 26.9,43.5 24.6,46.5 C24.4,46.8 24.2,47.1 24,47.4 C23.3,48.6 22.6,48.7 21.8,47.5 C20.8,45.9 19.5,44.5 17.9,43.4 C13,40.2 6.8,40.9 2.6,45 C2.5,45.1 2.3,45.3 2.2,45.4 C1.8,45.8 1.4,46 0.9,45.7 C0.3,45.4 0.2,44.9 0.3,44.4 C0.5,43.4 0.6,42.4 0.9,41.5 C4.4,26.9 12.9,16.4 26.3,9.8 C31.4,7.3 36.8,6 42.4,5.5 C43.2,5.4 43.3,5.3 43.3,4.5 C43.3,4 43.3,3.5 43.4,3 C43.6,1.8 44.7,0.9 46,1 C47.4,1.1 48.4,2 48.5,3.4 L48.5,4.5 C48.5,5.1 48.7,5.3 49.3,5.4 C53.5,5.7 57.5,6.5 61.4,8 C77.7,14.4 87.7,26.1 91.3,43.2 C91.4,43.6 91.4,44 91.5,44.4 C91.6,45 91.5,45.4 90.9,45.7 C90.4,46 89.9,45.8 89.5,45.4 C88,44 86.4,42.8 84.4,42.1 C79,40.3 72.9,42.5 70,47.4 C69.3,48.5 68.6,48.5 67.9,47.4 C64.1,40.7 51.8,40.9 46,48.8 C45.8,49 46,48.8 46,48.8 L46,48.8 Z" id="Shape"></path>
                    <path d="M46,48.8 L45.9,82 C45.9,82 46.2,91.6 36.3,91 C26.4,90.4 27,81.5 27,81.5" id="Shape"></path>
                </g>
            </g>
        </g>
    </g>
</svg>