<?xml version="1.0" encoding="UTF-8" standalone="no"?>
<svg width="100px" height="100px" viewBox="0 0 100 100" version="1.1" xmlns="http://www.w3.org/2000/svg" xmlns:xlink="http://www.w3.org/1999/xlink" xmlns:sketch="http://www.bohemiancoding.com/sketch/ns">
    <!-- Generator: Sketch 3.3.3 (12081) - http://www.bohemiancoding.com/sketch -->
    <title>SPEACIAL</title>
    <desc>Created with Sketch.</desc>
    <defs></defs>
    <g id="Page-1" stroke="none" stroke-width="1" fill="none" fill-rule="evenodd" sketch:type="MSPage">
        <g id="SPEACIAL" sketch:type="MSArtboardGroup" fill="#000000">
            <g id="meter" sketch:type="MSLayerGroup" transform="translate(3.000000, 3.000000)">
                <g id="Group" sketch:type="MSShapeGroup">
                    <path d="M47,93.6795455 C21.2568182,93.6795455 0.320454545,72.7431818 0.320454545,47 C0.320454545,21.2568182 21.2568182,0.320454545 47,0.320454545 C72.7431818,0.320454545 93.6795455,21.2568182 93.6795455,47 C93.6795455,72.7431818 72.7431818,93.6795455 47,93.6795455 L47,93.6795455 Z M47,3.525 C23.0727273,3.525 3.525,23.0727273 3.525,47 C3.525,70.9272727 23.0727273,90.475 47,90.475 C70.9272727,90.475 90.475,70.9272727 90.475,47 C90.475,23.0727273 70.9272727,3.525 47,3.525 L47,3.525 Z" id="Shape"></path>
                    <path d="M76.5886364,48.6022727 C75.7340909,48.6022727 74.9863636,47.8545455 74.9863636,47 C74.9863636,31.5113636 62.3818182,19.0136364 47,19.0136364 C31.6181818,19.0136364 19.0136364,31.5113636 19.0136364,47 C19.0136364,47.8545455 18.2659091,48.6022727 17.4113636,48.6022727 C16.5568182,48.6022727 15.8090909,47.8545455 15.8090909,47 C15.8090909,29.8022727 29.8022727,15.8090909 47,15.8090909 C64.1977273,15.8090909 78.1909091,29.8022727 78.1909091,47 C78.1909091,47.8545455 77.4431818,48.6022727 76.5886364,48.6022727 L76.5886364,48.6022727 Z" id="Shape"></path>
                    <path d="M47.5340909,55.225 C47.1068182,55.225 46.7863636,55.1181818 46.4659091,54.7977273 L32.4727273,41.5522727 C31.8318182,40.9113636 31.8318182,39.95 32.3659091,39.3090909 C33.0068182,38.6681818 33.9681818,38.6681818 34.6090909,39.2022727 L48.6022727,52.3409091 C49.2431818,52.9818182 49.2431818,53.9431818 48.7090909,54.5840909 C48.3886364,55.0113636 47.9613636,55.225 47.5340909,55.225 L47.5340909,55.225 Z" id="Shape"></path>
                    <path d="M47.5340909,58.1090909 C45.0772727,58.1090909 43.0477273,56.0795455 43.0477273,53.6227273 C43.0477273,51.1659091 45.0772727,49.1363636 47.5340909,49.1363636 C49.9909091,49.1363636 52.0204545,51.1659091 52.0204545,53.6227273 C52.0204545,56.0795455 50.0977273,58.1090909 47.5340909,58.1090909 L47.5340909,58.1090909 Z M47.5340909,52.3409091 C46.7863636,52.3409091 46.2522727,52.875 46.2522727,53.6227273 C46.2522727,54.3704545 46.7863636,54.9045455 47.5340909,54.9045455 C48.2818182,54.9045455 48.8159091,54.3704545 48.8159091,53.6227273 C48.8159091,52.875 48.2818182,52.3409091 47.5340909,52.3409091 L47.5340909,52.3409091 Z" id="Shape"></path>
                </g>
            </g>
        </g>
    </g>
</svg>