<?xml version="1.0" encoding="UTF-8" standalone="no"?>
<svg width="100px" height="100px" viewBox="0 0 100 100" version="1.1" xmlns="http://www.w3.org/2000/svg" xmlns:xlink="http://www.w3.org/1999/xlink" xmlns:sketch="http://www.bohemiancoding.com/sketch/ns">
    <!-- Generator: Sketch 3.4 (15588) - http://www.bohemiancoding.com/sketch -->
    <title>Artboard 1</title>
    <desc>Created with Sketch.</desc>
    <defs>
        <path id="path-1" d="M0.0173646152,4.29614821 L0,69.7357377 C0,71.1931033 0.742336279,72.5487257 1.97232822,73.34261 C2.68717073,73.8026045 3.51198914,74.0376175 4.34114849,74.0376175 C4.9373328,74.0376175 5.53641121,73.914379 6.09931354,73.6679023 L20.6537376,67.2867324 L28.8570612,85.6306248 C29.5747979,87.2370231 31.1636585,88.1914041 32.8306595,88.1914041 C33.4152674,88.1914041 34.0114517,88.0710316 34.5859305,87.8216889 L40.5376452,85.2107545 L46.4908068,82.601253 C48.6830868,81.6382739 49.6728686,79.1004227 48.7018986,76.9279879 L40.5014691,58.5826623 L55.0558932,52.2029257 C56.3987551,51.6139611 57.3494664,50.3901749 57.5838887,48.9543046 C57.8168633,47.5184338 57.3031608,46.062501 56.2149798,45.086625 L7.27576479,1.11344493 C6.46107594,0.384045299 5.41630616,0 4.35706585,0 C3.76377565,0 3.16614409,0.120372534 2.60034766,0.366849223 C1.03029928,1.05469147 0.0173646152,2.59803749 0.0173646152,4.29614821 Z"></path>
    </defs>
    <g id="Page-1" stroke="none" stroke-width="1" fill="none" fill-rule="evenodd" sketch:type="MSPage">
        <g id="Artboard-1" sketch:type="MSArtboardGroup">
            <g id="inspected-3" sketch:type="MSLayerGroup" transform="translate(21.000000, 7.000000)">
                <g id="Page-1">
                    <g></g>
                </g>
            </g>
            <g id="Shape" sketch:type="MSLayerGroup" transform="translate(25.000000, 7.000000)">
                <mask id="mask-2" sketch:name="Mask" fill="white">
                    <use xlink:href="#path-1"></use>
                </mask>
                <use id="Mask" fill="#979797" sketch:type="MSShapeGroup" xlink:href="#path-1"></use>
                <path d="M2.01566576,7.84839897 L2,66.4678032 C2,67.7732806 1.66971032,69.9876186 2.77936685,70.6987634 C3.42427324,71.1108167 3.1683961,71.3213364 3.91643523,71.3213364 C4.45429225,71.3213364 6.99476024,70.2109419 7.50259141,69.9901533 L21.6330935,63.274036 L29.0338506,79.7061079 C29.6813679,81.1450856 31.1147835,85 32.6186946,85 C33.1461078,85 33.6839648,84.8921728 34.2022398,84.6688169 L39.5716727,82.329997 L44.9424108,79.9924605 C46.9202106,79.1298442 45.8131578,75.8564906 44.937182,73.9104693 L37.5390358,57.4771135 L51.6695379,50.76228 C52.8810219,50.2346979 53.7387209,49.138456 53.9502087,47.8522337 C54.1603904,46.5660109 52.6969456,45.261817 51.7152261,44.3876479 L8.56394536,4.99740049 C7.82896104,4.34401968 5.88640558,3 4.93079532,3 C4.39554926,3 3.85638657,3.10782718 3.34594444,3.3286158 C1.92950066,3.94477037 2.01566576,6.3272672 2.01566576,7.84839897 Z" fill="#FFFFFF" sketch:type="MSShapeGroup" mask="url(#mask-2)"></path>
            </g>
        </g>
    </g>
</svg>