<?xml version="1.0" encoding="UTF-8" standalone="no"?>
<svg width="13px" height="16px" viewBox="0 0 13 16" version="1.1" xmlns="http://www.w3.org/2000/svg" xmlns:xlink="http://www.w3.org/1999/xlink" xmlns:sketch="http://www.bohemiancoding.com/sketch/ns">
    <!-- Generator: Sketch 3.3.3 (12081) - http://www.bohemiancoding.com/sketch -->
    <title>Slice 1</title>
    <desc>Created with Sketch.</desc>
    <defs></defs>
    <g id="Page-1" stroke="none" stroke-width="1" fill="none" fill-rule="evenodd" sketch:type="MSPage">
        <g id="Imported-Layers" sketch:type="MSLayerGroup" fill="#000000">
            <path d="M11.5,0 L1.5,0 C0.673,0 0,0.673 0,1.5 L0,14.5 C0,15.327 0.673,16 1.5,16 L11.5,16 C12.327,16 13,15.327 13,14.5 L13,1.5 C13,0.673 12.327,0 11.5,0 L11.5,0 Z M1,1.5 C1,1.224 1.224,1 1.5,1 L11.5,1 C11.776,1 12,1.224 12,1.5 L12,3 C12,3.276 11.776,3.5 11.5,3.5 L1.5,3.5 C1.224,3.5 1,3.276 1,3 L1,1.5 L1,1.5 Z M11.5,15 L1.5,15 C1.224,15 1,14.776 1,14.5 L1,4.4075 C1.1575,4.464 1.324,4.5 1.5,4.5 L11.5,4.5 C11.676,4.5 11.843,4.464 12,4.4075 L12,14.5 C12,14.776 11.776,15 11.5,15 L11.5,15 Z" id="Fill-1" sketch:type="MSShapeGroup"></path>
            <path d="M5,7 L4.5,7 L4.5,6.5 C4.5,6.2235 4.2765,6 4,6 C3.7235,6 3.5,6.2235 3.5,6.5 L3.5,7 L3,7 C2.7235,7 2.5,7.2235 2.5,7.5 C2.5,7.7765 2.7235,8 3,8 L3.5,8 L3.5,8.5 C3.5,8.7765 3.7235,9 4,9 C4.2765,9 4.5,8.7765 4.5,8.5 L4.5,8 L5,8 C5.2765,8 5.5,7.7765 5.5,7.5 C5.5,7.2235 5.2765,7 5,7" id="Fill-2" sketch:type="MSShapeGroup"></path>
            <path d="M10,7 L8,7 C7.7235,7 7.5,7.2235 7.5,7.5 C7.5,7.7765 7.7235,8 8,8 L10,8 C10.2765,8 10.5,7.7765 10.5,7.5 C10.5,7.2235 10.2765,7 10,7" id="Fill-3" sketch:type="MSShapeGroup"></path>
            <path d="M10,10.5 L8,10.5 C7.7235,10.5 7.5,10.7235 7.5,11 C7.5,11.2765 7.7235,11.5 8,11.5 L10,11.5 C10.2765,11.5 10.5,11.2765 10.5,11 C10.5,10.7235 10.2765,10.5 10,10.5" id="Fill-4" sketch:type="MSShapeGroup"></path>
            <path d="M10,12.5 L8,12.5 C7.7235,12.5 7.5,12.7235 7.5,13 C7.5,13.2765 7.7235,13.5 8,13.5 L10,13.5 C10.2765,13.5 10.5,13.2765 10.5,13 C10.5,12.7235 10.2765,12.5 10,12.5" id="Fill-5" sketch:type="MSShapeGroup"></path>
            <path d="M5.3535,10.6465 C5.158,10.451 4.842,10.451 4.6465,10.6465 L4,11.293 L3.3535,10.6465 C3.158,10.451 2.842,10.451 2.6465,10.6465 C2.451,10.842 2.451,11.158 2.6465,11.3535 L3.293,12 L2.6465,12.6465 C2.451,12.842 2.451,13.158 2.6465,13.3535 C2.744,13.451 2.872,13.5 3,13.5 C3.128,13.5 3.256,13.451 3.3535,13.3535 L4,12.707 L4.6465,13.3535 C4.744,13.451 4.872,13.5 5,13.5 C5.128,13.5 5.256,13.451 5.3535,13.3535 C5.549,13.158 5.549,12.842 5.3535,12.6465 L4.707,12 L5.3535,11.3535 C5.549,11.158 5.549,10.842 5.3535,10.6465" id="Fill-6" sketch:type="MSShapeGroup"></path>
        </g>
    </g>
</svg>