<?xml version="1.0" encoding="UTF-8" standalone="no"?>
<svg width="100px" height="100px" viewBox="0 0 100 100" version="1.1" xmlns="http://www.w3.org/2000/svg" xmlns:xlink="http://www.w3.org/1999/xlink" xmlns:sketch="http://www.bohemiancoding.com/sketch/ns">
    <!-- Generator: Sketch 3.3.3 (12081) - http://www.bohemiancoding.com/sketch -->
    <title>SPEACIAL</title>
    <desc>Created with Sketch.</desc>
    <defs></defs>
    <g id="Page-1" stroke="none" stroke-width="1" fill="none" fill-rule="evenodd" sketch:type="MSPage">
        <g id="SPEACIAL" sketch:type="MSArtboardGroup" fill="#000000">
            <g id="pen1" sketch:type="MSLayerGroup" transform="translate(3.000000, 2.000000)">
                <g id="Group" sketch:type="MSShapeGroup">
                    <path d="M5.79302326,95.3896734 C2.73255814,95.3896734 0.655813953,93.3207193 0.655813953,90.2717343 L0.655813953,85.5893645 C0.655813953,85.3715799 0.655813953,85.2626876 0.765116279,85.0449029 L0.765116279,83.8470874 C0.765116279,82.5403795 0.655813953,81.2336717 0.765116279,79.8180715 C0.98372093,77.5313327 1.96744186,75.3534863 3.8255814,73.6112092 C5.02790698,72.4133936 6.23023256,71.2155781 7.43255814,69.9088703 L8.85348837,68.4932701 C11.1488372,66.2065313 18.2534884,58.5840688 25.1395349,51.2882833 C32.0255814,43.9924978 39.1302326,36.3700353 41.5348837,34.0832966 L59.5697674,15.8982789 C61.755814,13.7204325 64.5976744,13.7204325 66.8930233,15.7893866 L67.0023256,15.8982789 L78.1511628,26.787511 C79.244186,27.8764342 79.9,29.1831421 79.9,30.48985 C79.9,31.7965578 79.3534884,33.1032657 78.2604651,34.1921889 C72.1395349,40.3990512 61.2093023,51.7238526 50.7162791,62.8308694 C39.8953488,74.1556708 28.7465116,85.8071492 22.5162791,92.1229038 C20.5488372,94.1918579 18.0348837,95.1718888 15.1930233,95.2807811 C13.0069767,95.2807811 10.7116279,95.2807811 8.5255814,95.3896734 L5.79302326,95.3896734 L5.79302326,95.3896734 L5.79302326,95.3896734 Z M3.8255814,86.0249338 L3.8255814,90.162842 C3.8255814,91.3606575 4.48139535,92.0140115 5.68372093,92.0140115 L5.68372093,92.0140115 L8.19767442,92.0140115 C10.3837209,92.0140115 12.5697674,92.0140115 14.8651163,91.9051192 C16.8325581,91.9051192 18.472093,91.1428729 19.8930233,89.7272727 C26.1232558,83.4115181 37.272093,71.7600397 48.0930233,60.4352383 C58.5860465,49.4371139 69.5162791,38.0034201 75.6372093,31.7965578 C75.9651163,31.4698808 76.4023256,30.9254192 76.4023256,30.3809576 C76.4023256,29.836496 75.9651163,29.2920344 75.6372093,28.9653575 L64.4883721,18.29391 C63.5046512,17.4227714 62.6302326,17.4227714 61.755814,18.29391 L43.8302326,36.3700353 C41.5348837,38.6567741 34.4302326,46.2792365 27.544186,53.5750221 C20.6581395,60.8708076 13.5534884,68.4932701 11.1488372,70.7800088 L9.72790698,72.195609 C8.5255814,73.3934245 7.32325581,74.7001324 6.01162791,75.8979479 C4.7,77.0957635 4.04418605,78.5113636 3.93488372,80.0358561 C3.8255814,81.2336717 3.8255814,82.4314872 3.93488372,83.7381951 L3.93488372,85.4804722 C3.93488372,85.6982568 3.8255814,85.9160415 3.8255814,86.0249338 L3.8255814,86.0249338 Z" id="Shape"></path>
                    <path d="M79.0255814,31.2520962 C77.8232558,31.2520962 76.5116279,30.7076346 75.4186047,29.7276037 C73.5604651,27.8764342 71.7023256,26.1341571 69.844186,24.2829876 L67.3302326,21.7784643 C66.2372093,20.689541 65.144186,19.7095102 64.0511628,18.6205869 C62.9581395,17.5316637 62.4116279,16.3338482 62.4116279,15.0271403 C62.4116279,13.6115402 62.8488372,12.4137246 63.8325581,11.4336937 L65.8,9.36473963 C68.2046512,6.86021624 70.6093023,4.46458517 73.0139535,1.96006178 C75.0906977,-0.217784643 78.0418605,-0.217784643 80.227907,1.85116946 C81.5395349,3.15787732 82.8511628,4.35569285 84.1627907,5.66240071 L88.8627907,10.2358782 C89.8465116,11.2159091 90.8302326,12.0870477 91.8139535,13.0670786 C92.9069767,14.1560018 93.5627907,15.4627096 93.5627907,16.7694175 C93.5627907,18.0761253 93.0162791,19.3828332 91.9232558,20.4717564 C88.8627907,23.5207414 85.9116279,26.5697264 82.8511628,29.6187114 C81.6488372,30.7076346 80.3372093,31.2520962 79.0255814,31.2520962 L79.0255814,31.2520962 Z M76.7302326,3.70233892 C76.2930233,3.70233892 75.855814,3.92012357 75.4186047,4.35569285 C73.0139535,6.86021624 70.6093023,9.25584731 68.2046512,11.7603707 L66.2372093,13.8293248 C65.9093023,14.1560018 65.8,14.4826787 65.8,15.1360327 C65.8,15.1360327 65.8,15.1360327 65.8,15.244925 C65.8,15.6804943 66.127907,16.1160635 66.455814,16.4427405 C67.5488372,17.5316637 68.6418605,18.6205869 69.7348837,19.6006178 L72.3581395,22.1051412 C74.2162791,23.9563107 76.0744186,25.6985878 77.9325581,27.5497573 C78.8069767,28.4208959 79.6813953,28.4208959 80.555814,27.5497573 C83.6162791,24.5007723 86.5674419,21.4517873 89.627907,18.4028023 C89.955814,18.0761253 90.3930233,17.5316637 90.3930233,16.9872021 C90.3930233,16.4427405 89.955814,15.8982789 89.627907,15.5716019 C88.644186,14.5915711 87.6604651,13.7204325 86.7860465,12.7404016 L82.0860465,8.1669241 C80.7744186,6.86021624 79.4627907,5.66240071 78.2604651,4.35569285 C77.6046512,3.92012357 77.1674419,3.70233892 76.7302326,3.70233892 L76.7302326,3.70233892 Z" id="Shape"></path>
                </g>
            </g>
        </g>
    </g>
</svg>