<?xml version="1.0" encoding="UTF-8" standalone="no"?>
<svg width="100px" height="100px" viewBox="0 0 100 100" version="1.1" xmlns="http://www.w3.org/2000/svg" xmlns:xlink="http://www.w3.org/1999/xlink" xmlns:sketch="http://www.bohemiancoding.com/sketch/ns">
    <!-- Generator: Sketch 3.3.3 (12081) - http://www.bohemiancoding.com/sketch -->
    <title>UMBERLLA</title>
    <desc>Created with Sketch.</desc>
    <defs></defs>
    <g id="Page-1" stroke="none" stroke-width="1" fill="none" fill-rule="evenodd" sketch:type="MSPage">
        <g id="UMBERLLA" sketch:type="MSArtboardGroup" stroke-width="3" stroke="#2B2B2B">
            <g id="people" sketch:type="MSLayerGroup" transform="translate(3.000000, 5.000000)">
                <g id="Group" sketch:type="MSShapeGroup">
                    <path d="M70.8,88.2 C70.8,88.2 71.9,80.2 66.6,76.4 C62.6,72.6 57.1,71.5 53.9,71.2 C48.3,70.6 46.5,67.5 46.5,67.5 C43.8,63.8 44.3,58.9 44.3,58.9 C44.3,57.5 45.4,56.1 46.6,55.5 C49.1,53.8 50.1,50.5 51.2,47.8 C52.2,45.3 52.9,43.1 54.6,41.6 L54.6,41.6 C61.6,34 57.9,31 56.3,30.2 C56.3,29.9 56.4,29.7 56.4,29.5 C57.1,27.1 57.7,24.9 57.9,22.8 C58.1,20.7 58.2,17.1 57.9,17.1 L57.9,17.1 C57.6,12.8 55.8,10.6 53.5,7.7 C52.2,6.2 50.8,5 49.7,5.2 C48.4,5.4 47.1,5.1 45.9,4.6 C44.8,4.1 43.7,3.2 43,2 C42.4,1.2 41,0.6 39.3,0.3 C37.1,0 34.6,0 32.7,0 C28.2,0.1 24.4,1 21.3,3 C18.6,4.8 16.6,7.5 15.3,11.4 C14.3,14.4 13.7,17.7 13.7,20.9 C13.8,23.9 14.2,26.7 15.3,29.1 C15.4,29.5 15.6,29.9 15.7,30.3 C14.3,30.9 9.5,33.9 17.6,42.4 L17.7,42.5 C19.3,44 20.1,45.7 21,48.2 C22.2,51.1 23.4,54.4 26.1,56 C27.3,56.7 27.8,57.8 27.8,59 C27.8,59 28.2,63.9 25,67.5 C23.3,69.4 20.8,70.4 18.1,70.7 C14.8,70.9 9.3,72.7 5.3,76.5 C0.2,81.3 0.2,88.3 0.2,88.3" id="Shape"></path>
                    <path d="M93.5,90 C93.5,90 94.4,83.6 90,80.5 C86.7,77.4 82.2,76.6 79.5,76.3 C74.9,75.8 73.4,73.3 73.4,73.3 C71.2,70.3 71.6,66.3 71.6,66.3 C71.6,65.1 72.5,64 73.5,63.5 C75.5,62.1 76.4,59.4 77.3,57.1 C78.2,55 78.7,53.3 80.1,52 L80.1,52 C85.8,45.7 82.8,43.3 81.5,42.6 C81.5,42.4 81.6,42.2 81.6,42 C82.2,40 82.7,37.4 82.9,35.6 C83.1,33.9 83.1,30.1 82.9,30.1 L82.9,30.1 C82.6,30.1 81.2,25.6 79.2,23.3 C78.1,22.1 77,21.5 76,21.7 C74.9,21.8 73.8,21.8 72.9,21.4 C72,20.9 71.1,20.3 70.6,19.4 C70.1,18.7 68.9,18.3 67.5,18.1 C65.7,17.8 63.6,17.8 62.1,17.8 L58.8,17.8" id="Shape"></path>
                </g>
            </g>
        </g>
    </g>
</svg>