<?xml version="1.0" encoding="UTF-8" standalone="no"?>
<svg width="20px" height="22px" viewBox="0 0 20 22" version="1.1" xmlns="http://www.w3.org/2000/svg" xmlns:xlink="http://www.w3.org/1999/xlink" xmlns:sketch="http://www.bohemiancoding.com/sketch/ns">
    <!-- Generator: Sketch 3.3.2 (12043) - http://www.bohemiancoding.com/sketch -->
    <title>google play copy</title>
    <desc>Created with Sketch.</desc>
    <defs></defs>
    <g id="Page-1" stroke="none" stroke-width="1" fill="none" fill-rule="evenodd" sketch:type="MSPage">
        <path d="M0.644744964,21.9650748 C0.254202901,21.8598787 0,21.4721398 0,20.8721315 L0,1.06673994 C0,0.511040818 0.215237322,0.13626225 0.556430066,3.90798505e-14 L0.556430066,3.90798505e-14 L10.2892072,11.0372633 L0.644744964,21.9650748 L0.644744964,21.9650748 Z M1.98453168,21.5446698 L13.6997237,14.9048922 L10.8463222,11.6690486 L1.98453168,21.5446698 L1.98453168,21.5446698 Z M13.7803956,7.08151669 L2.22846736,0.532749802 L10.8632139,10.3868759 L13.7803956,7.08151669 L13.7803956,7.08151669 Z M14.5641845,7.52584521 L19.0895939,10.0912915 C19.946426,10.577028 19.9542618,11.36003 19.0895939,11.8500947 L14.4496961,14.479833 L11.4233025,11.026059 L14.5641845,7.52584521 L14.5641845,7.52584521 Z" id="google-play-copy" fill="#000000" sketch:type="MSShapeGroup"></path>
    </g>
</svg>