<?xml version="1.0" encoding="UTF-8" standalone="no"?>
<svg width="100px" height="100px" viewBox="0 0 100 100" version="1.1" xmlns="http://www.w3.org/2000/svg" xmlns:xlink="http://www.w3.org/1999/xlink" xmlns:sketch="http://www.bohemiancoding.com/sketch/ns">
    <!-- Generator: Sketch 3.3.3 (12081) - http://www.bohemiancoding.com/sketch -->
    <title>Artboard 29</title>
    <desc>Created with Sketch.</desc>
    <defs></defs>
    <g id="Page-1" stroke="none" stroke-width="1" fill="none" fill-rule="evenodd" sketch:type="MSPage">
        <g id="Artboard-29" sketch:type="MSArtboardGroup" fill="#000000">
            <g id="verified-user" sketch:type="MSLayerGroup" transform="translate(5.000000, 5.000000)">
                <path d="M89.5054945,44.7032967 C89.5054945,69.3296703 69.6263736,89.2087912 45,89.2087912 C20.3736264,89.2087912 0.494505495,69.3296703 0.494505495,44.7032967 C0.494505495,20.0769231 20.3736264,0.197802198 45,0.197802198 C69.6263736,0.197802198 89.5054945,20.1758242 89.5054945,44.7032967 L89.5054945,44.7032967 Z M68.4395604,27.0989011 C66.7582418,25.3186813 63.8901099,25.3186813 62.2087912,27.0989011 L36.8901099,52.8131868 L26.5054945,42.1318681 C24.7252747,40.4505495 21.956044,40.4505495 20.1758242,42.2307692 C18.4945055,44.010989 18.4945055,46.8791209 20.1758242,48.6593407 L33.5274725,62.1098901 L33.7252747,62.3076923 C35.5054945,64.0879121 38.2747253,64.0879121 40.0549451,62.3076923 L68.4395604,33.4285714 C70.2197802,31.7472527 70.2197802,28.8791209 68.4395604,27.0989011 L68.4395604,27.0989011 L68.4395604,27.0989011 Z" id="Shape" sketch:type="MSShapeGroup"></path>
            </g>
        </g>
    </g>
</svg>