<?xml version="1.0" encoding="UTF-8" standalone="no"?>
<svg width="100px" height="100px" viewBox="0 0 100 100" version="1.1" xmlns="http://www.w3.org/2000/svg" xmlns:xlink="http://www.w3.org/1999/xlink" xmlns:sketch="http://www.bohemiancoding.com/sketch/ns">
    <!-- Generator: Sketch 3.3.3 (12081) - http://www.bohemiancoding.com/sketch -->
    <title>SPEACIAL</title>
    <desc>Created with Sketch.</desc>
    <defs></defs>
    <g id="Page-1" stroke="none" stroke-width="1" fill="none" fill-rule="evenodd" sketch:type="MSPage">
        <g id="SPEACIAL" sketch:type="MSArtboardGroup" fill="#000000">
            <g id="seat" sketch:type="MSLayerGroup" transform="translate(3.000000, 2.000000)">
                <g id="Group" sketch:type="MSShapeGroup">
                    <path d="M32.3534884,95.6395349 C27.4348837,95.6395349 24.3744186,93.4534884 22.6255814,88.644186 C18.2534884,76.8395349 13.8813953,64.8162791 9.72790698,53.2302326 L6.66744186,44.8139535 C6.12093023,43.2837209 3.49767442,35.4139535 3.49767442,34.1023256 L3.49767442,33.9930233 L3.49767442,33.8837209 C3.8255814,30.4953488 7.97906977,27.9813953 11.6953488,27.1069767 C15.9581395,26.1232558 19.455814,26.9976744 21.2046512,29.5116279 C21.6418605,30.1674419 30.8232558,55.4162791 31.8069767,58.2581395 L53.6674419,58.2581395 L63.9418605,58.2581395 L63.9418605,58.2581395 C67.5488372,58.2581395 69.1883721,60.2255814 69.9534884,61.8651163 C71.155814,64.3790698 71.0465116,66.7837209 69.7348837,68.8604651 L85.4744186,68.8604651 C86.4581395,68.8604651 87.3325581,68.9697674 88.2069767,69.0790698 C90.1744186,69.5162791 91.7046512,70.6093023 92.6883721,72.0302326 C93.672093,73.5604651 93.8906977,75.527907 93.344186,77.6046512 C92.3604651,81.3209302 91.2674419,85.4744186 89.955814,90.3930233 C88.972093,93.7813953 86.7860465,95.5302326 83.1790698,95.5302326 L43.1744186,95.5302326 L32.4627907,95.5302326 C32.4627907,95.6395349 32.3534884,95.6395349 32.3534884,95.6395349 L32.3534884,95.6395349 Z M6.66744186,34.2116279 C6.88604651,35.1953488 8.63488372,40.9883721 9.61860465,43.8302326 L12.6790698,52.1372093 C16.9418605,63.7232558 21.2046512,75.7465116 25.5767442,87.5511628 C26.8883721,91.0488372 28.7465116,92.3604651 32.244186,92.3604651 L32.3534884,92.3604651 L43.0651163,92.3604651 L83.0697674,92.3604651 C85.1465116,92.3604651 86.1302326,91.5953488 86.6767442,89.627907 C87.9883721,84.7093023 89.0813953,80.6651163 90.0651163,76.9488372 C90.3930233,75.7465116 90.2837209,74.7627907 89.7372093,73.9976744 C89.3,73.2325581 88.4255814,72.6860465 87.3325581,72.4674419 C86.6767442,72.3581395 86.0209302,72.2488372 85.255814,72.2488372 L63.9418605,72.2488372 L59.6790698,72.2488372 L58.9139535,72.2488372 L56.1813953,72.4674419 C49.4046512,73.0139535 42.627907,73.6697674 35.8511628,74.2162791 L35.0860465,74.3255814 L33.9930233,72.6860465 L34.4302326,71.8116279 C34.6488372,71.3744186 34.7581395,71.155814 35.7418605,70.9372093 L35.7418605,70.9372093 L35.7418605,70.9372093 C36.944186,70.7186047 39.5674419,70.3906977 45.3604651,69.844186 C50.4976744,69.2976744 57.7116279,68.7511628 63.5046512,68.7511628 C65.472093,68.7511628 66.2372093,67.9860465 66.6744186,67.4395349 C67.2209302,66.6744186 67.9860465,65.3627907 66.8930233,63.1767442 C66.5651163,62.4116279 65.8,61.5372093 63.8325581,61.5372093 L63.8325581,61.5372093 L53.5581395,61.5372093 L31.4790698,61.5372093 L31.4790698,61.5372093 C30.0581395,61.5372093 29.1837209,60.8813953 28.7465116,59.5697674 C26.6697674,53.7767442 19.127907,33.1186047 18.3627907,31.2604651 C17.2697674,29.7302326 14.6465116,29.7302326 12.4604651,30.2767442 C9.29069767,31.1511628 6.99534884,32.9 6.66744186,34.2116279 L6.66744186,34.2116279 Z" id="Shape"></path>
                    <path d="M10.9302326,23.827907 L6.77674419,23.827907 C3.27906977,23.827907 0.437209302,21.4232558 0.437209302,18.472093 L0.437209302,6.01162791 C0.437209302,3.06046512 3.27906977,0.655813953 6.77674419,0.655813953 L10.9302326,0.655813953 C14.427907,0.655813953 17.2697674,3.06046512 17.2697674,6.01162791 L17.2697674,18.472093 C17.2697674,21.4232558 14.427907,23.827907 10.9302326,23.827907 L10.9302326,23.827907 Z M6.77674419,3.8255814 C5.1372093,3.8255814 3.71627907,4.80930233 3.71627907,5.90232558 L3.71627907,18.3627907 C3.71627907,19.455814 5.1372093,20.4395349 6.77674419,20.4395349 L10.9302326,20.4395349 C12.5697674,20.4395349 13.9906977,19.455814 13.9906977,18.3627907 L13.9906977,6.01162791 C13.9906977,4.91860465 12.5697674,3.93488372 10.9302326,3.93488372 L6.77674419,3.93488372 L6.77674419,3.8255814 Z" id="Shape"></path>
                </g>
            </g>
        </g>
    </g>
</svg>