<?xml version="1.0" encoding="utf-8"?>
<!-- Generator: Adobe Illustrator 19.1.0, SVG Export Plug-In . SVG Version: 6.00 Build 0)  -->
<svg version="1.1" xmlns="http://www.w3.org/2000/svg" xmlns:xlink="http://www.w3.org/1999/xlink" x="0px" y="0px"
	 viewBox="0 0 28.6 22.8" style="enable-background:new 0 0 28.6 22.8;" xml:space="preserve">
<style type="text/css">
	.st0{fill:#FFFFFF;}
	.st1{fill:#F8F8F8;}
	.st2{fill:#D8D8D8;}
	.st3{fill:#666666;}
	.st4{fill:#333333;}
	.st5{fill:none;stroke:#CCCCCC;stroke-miterlimit:10;}
	.st6{fill:#008AD2;}
	.st7{fill:#FFFFFF;stroke:#E6E6E6;stroke-miterlimit:10;}
	.st8{fill:none;stroke:#333333;stroke-width:0.5;}
	.st9{fill:none;stroke:#333333;}
	.st10{fill:#999999;}
	.st11{fill:none;stroke:#999999;stroke-width:0.5;stroke-miterlimit:10;}
	.st12{fill:#FFFFFF;stroke:#000000;stroke-width:2;stroke-miterlimit:10;}
	.st13{fill:none;stroke:#000000;stroke-width:2;stroke-miterlimit:10;}
	.st14{fill:none;stroke:#999999;stroke-miterlimit:10;}
	.st15{fill:none;stroke:#F2F2F2;stroke-miterlimit:10;}
	.st16{fill:none;stroke:#4D4D4D;stroke-miterlimit:10;}
	.st17{fill:#808080;}
	.st18{fill:none;stroke:#00B21B;stroke-width:2;stroke-miterlimit:10;}
	.st19{fill:none;stroke:#B3B3B3;stroke-width:2;stroke-miterlimit:10;}
	.st20{fill:#33A2D9;stroke:#33A2D9;stroke-miterlimit:10;}
	.st21{opacity:0.93;fill:#0E303A;}
	.st22{fill:#E1584B;}
	.st23{fill:#FFFEFE;}
	.st24{fill:#1EBEF0;}
	.st25{fill:#FEFEFE;}
	.st26{fill:#3A5BA2;}
	.st27{fill:#FFFFFF;stroke:#CCCCCC;stroke-miterlimit:10;}
	.st28{fill:#EAF8FF;stroke:#CCCCCC;stroke-miterlimit:10;}
	.st29{fill:#EAF8FF;}
	.st30{fill:none;stroke:#CCCCCC;stroke-linecap:round;stroke-miterlimit:10;}
	.st31{fill:#001825;}
	.st32{fill:#F2F2F2;stroke:#CCCCCC;stroke-miterlimit:10;}
	.st33{fill:none;stroke:#FFFFFF;stroke-width:0.75;stroke-miterlimit:10;}
	.st34{fill:#005289;}
	.st35{fill:none;stroke:#E6E6E6;stroke-miterlimit:10;}
	.st36{fill:#7C7C7C;}
	.st37{fill:none;stroke:#7C7C7C;}
	.st38{fill:none;stroke:#7C7C7C;stroke-width:0.5;}
	.st39{fill:#373737;}
	.st40{opacity:0.49;}
	.st41{fill:#C00016;}
	.st42{fill:#4A4A4A;}
	.st43{fill:#F2F2F2;}
	.st44{fill:none;stroke:#666666;stroke-miterlimit:10;}
	.st45{fill:none;stroke:#666666;stroke-linecap:round;stroke-linejoin:round;stroke-miterlimit:10;}
	.st46{fill:none;stroke:#666666;stroke-width:0.75;stroke-linecap:round;stroke-linejoin:round;stroke-miterlimit:10;}
	.st47{fill:none;stroke:#666666;stroke-linejoin:round;stroke-miterlimit:10;}
	.st48{fill:#58B957;}
	.st49{fill:none;stroke:#000000;stroke-width:4;stroke-miterlimit:10;}
	.st50{fill:none;stroke:#000000;stroke-width:2;stroke-linecap:round;stroke-miterlimit:10;}
	.st51{fill:none;stroke:#666666;}
	.st52{fill:none;stroke:#333333;stroke-miterlimit:10;}
	.st53{fill:#CCCCCC;}
	.st54{fill:#FFFFFF;stroke:#FF0000;stroke-miterlimit:10;}
	.st55{fill:#FF0000;}
	.st56{fill:none;stroke:#FF0000;stroke-miterlimit:10;}
</style>
<g id="Layer_1">
	<path class="st53" d="M5.4,18.5C5.1,18.3,5.1,18,5,17.9c-0.1-0.4,0-0.8,0.1-0.9c0.6-1,0.9-1.3,1.3-1.9c0.1-0.1,0.8-1.1,2.1-3.1
		c1.5-2.1,2.2-3.2,2.5-3.7c0.5-0.7,1-1.5,1.5-2.2c0.1-0.1,0.2-0.3,0.4-0.5c0.1-0.1,0.4-0.2,0.7-0.2c0.4,0,0.6,0.2,0.7,0.3
		c0.4,0.3,1,1.2,1.1,1.4c0.5,0.8,1.6,2.3,2.4,3.4c1.9,2.8,2.9,4.1,2.9,4.2c0.1,0.2,1.1,1.7,1.5,2.2c0.1,0.1,0.4,0.6,0.2,1.1
		c-0.1,0.2-0.1,0.3-0.2,0.5c-0.2,0.2-0.5,0.2-0.7,0.2c-0.2,0-0.4,0.1-0.7-0.3c-0.5-0.5-1.5-2.1-2-2.8c-0.3-0.5-1.3-2.2-2.6-3.8
		c-0.8-1-1-1.5-1.5-2.2c-0.1-0.2-0.5-0.7-0.9-1.3C14,8.1,13.9,7.8,13.8,8c0,0.1-3.2,4.4-4.2,6c-0.9,1.4-1.8,2.7-2.8,4.1
		c-0.1,0.1-0.5,0.5-0.9,0.6C5.6,18.6,5.4,18.5,5.4,18.5z"/>
</g>
<g id="specctr">
	<g id="Dimensions">
	</g>
</g>
</svg>
