<?xml version="1.0" encoding="UTF-8" standalone="no"?>
<svg width="90px" height="90px" viewBox="0 0 90 90" version="1.1" xmlns="http://www.w3.org/2000/svg" xmlns:xlink="http://www.w3.org/1999/xlink" xmlns:sketch="http://www.bohemiancoding.com/sketch/ns">
    <!-- Generator: Sketch 3.4.2 (15857) - http://www.bohemiancoding.com/sketch -->
    <title>Artboard 15</title>
    <desc>Created with Sketch.</desc>
    <defs></defs>
    <g id="Page-1" stroke="none" stroke-width="1" fill="none" fill-rule="evenodd" sketch:type="MSPage">
        <g id="Artboard-15" sketch:type="MSArtboardGroup" fill="#000000">
            <g id="Group" sketch:type="MSLayerGroup" transform="translate(8.000000, 8.000000)">
                <path d="M12.234,74.18025 L12.234,74.18025 C11.08725,74.18025 9.95325,74.0085 8.862,73.6695 L7.15275,73.13775 L11.47275,68.82075 C12.96075,67.3335 12.96075,64.923 11.48025,63.44175 C10.7625,62.724 9.8085,62.3295 8.79375,62.3295 C7.77975,62.3295 6.8265,62.724 6.10875,63.44175 L1.8345,67.71675 L1.332,65.94225 C0.2175,61.99275 1.323,57.7395 4.221,54.843 C6.36,52.70325 9.20475,51.525 12.231,51.525 C13.2945,51.525 14.343,51.672 15.3585,51.963 L52.785,14.5365 C51.6645,10.611 52.75725,6.30525 55.6635,3.399 C57.8025,1.26075 60.64575,0.0825 63.672,0.0825 C64.81725,0.0825 65.95125,0.25425 67.0425,0.59325 L68.75175,1.12425 L64.43175,5.442 C63.708,6.1665 63.31275,7.1205 63.31275,8.13525 C63.31275,9.15 63.708,10.10325 64.42575,10.821 C65.142,11.53875 66.0975,11.93325 67.11075,11.93325 C68.12625,11.93325 69.0795,11.53875 69.79725,10.821 L74.0715,6.54675 L74.5725,8.3205 C75.6885,12.27 74.5815,16.52325 71.6835,19.4205 C69.5445,21.55875 66.70125,22.73625 63.6765,22.73625 C62.6895,22.73625 61.71375,22.60875 60.76425,22.35825 L23.1795,59.94525 C24.21975,63.85125 23.124,67.9815 20.241,70.86525 C18.102,73.00275 15.25875,74.18025 12.234,74.18025 L12.234,74.18025 Z M11.3715,71.97825 C11.65725,72.0045 11.946,72.018 12.234,72.018 C14.682,72.018 16.9815,71.0655 18.71175,69.336 C21.174,66.87375 22.02525,63.28725 20.9325,59.97525 L20.72325,59.343 L21.195,58.872 L60.16425,19.9035 L60.79575,20.11125 C61.72575,20.41875 62.6955,20.574 63.67875,20.574 C66.12675,20.574 68.42625,19.62075 70.1565,17.89125 C72.03,16.0185 72.978,13.4445 72.82275,10.85475 L71.32875,12.35025 C70.20225,13.476 68.70525,14.09625 67.113,14.09625 C65.52075,14.09625 64.02375,13.476 62.89875,12.35025 C61.77225,11.22375 61.15275,9.7275 61.15275,8.13525 C61.15125,6.543 61.77225,5.046 62.89725,3.92025 C62.919,3.8985 62.9415,3.8775 62.96325,3.85725 L64.53525,2.286 C64.2495,2.259 63.96225,2.2455 63.67425,2.2455 C61.22625,2.2455 58.92525,3.19875 57.195,4.9275 C54.71025,7.41225 53.86425,11.16 55.03575,14.47425 L55.2645,15.117 L54.78075,15.6 L15.93825,54.441 L15.2955,54.21375 C14.31,53.865 13.27875,53.688 12.2295,53.688 C9.7815,53.688 7.4805,54.64125 5.74875,56.37225 C3.87525,58.245 2.92725,60.819 3.0825,63.40875 L4.578,61.914 C5.7045,60.7875 7.2015,60.16725 8.79225,60.16725 C10.3845,60.16725 11.8815,60.7875 13.008,61.91325 C15.3315,64.23825 15.3315,68.01975 13.008,70.34325 C12.98775,70.3635 12.96525,70.3845 12.945,70.40325 L11.3715,71.97825 L11.3715,71.97825 Z" id="Shape" sketch:type="MSShapeGroup"></path>
                <path d="M26.742,36.81825 C26.46675,36.81825 26.19,36.71175 25.9785,36.501 L2.1765,12.7035 C-0.72525,9.80175 -0.72525,5.08125 2.1765,2.18025 C3.58125,0.774 5.45025,0 7.43775,0 L7.43775,0 C9.42525,0 11.2935,0.774 12.69975,2.1795 C12.723,2.20275 12.7455,2.22675 12.76725,2.25 L12.77775,2.262 L36.4995,25.98 C36.9225,26.40225 36.9225,27.087 36.4995,27.5085 C36.07725,27.93075 35.39325,27.93075 34.97025,27.50925 L11.223,3.76575 L11.1675,3.70575 C10.173,2.71125 8.847,2.1615 7.43775,2.1615 C6.027,2.1615 4.70325,2.7105 3.705,3.70875 C1.647,5.76675 1.647,9.1155 3.705,11.1735 L27.5055,34.971 C27.9285,35.39325 27.9285,36.07875 27.5055,36.50025 C27.2955,36.71175 27.01875,36.81825 26.742,36.81825 L26.742,36.81825 Z" id="Shape" sketch:type="MSShapeGroup"></path>
                <path d="M70.63275,74.9805 L61.37925,68.81175 L62.9715,67.21875 L41.8605,46.10625 C41.43825,45.684 41.43825,44.9985 41.8605,44.577 C42.28275,44.15475 42.96825,44.15475 43.38975,44.577 L66.03075,67.21875 L64.77375,68.47575 L70.3575,72.198 L72.19425,70.3605 L68.472,64.7775 L67.215,66.03525 L44.57325,43.392 C44.151,42.96975 44.151,42.285 44.57325,41.8635 C44.9955,41.44125 45.681,41.44125 46.1025,41.8635 L67.215,62.97525 L68.80725,61.38225 L74.9775,70.63575 L70.63275,74.9805 L70.63275,74.9805 Z" id="Shape" sketch:type="MSShapeGroup"></path>
            </g>
        </g>
    </g>
</svg>