<?xml version="1.0" encoding="UTF-8" standalone="no"?>
<svg width="100px" height="100px" viewBox="0 0 100 100" version="1.1" xmlns="http://www.w3.org/2000/svg" xmlns:xlink="http://www.w3.org/1999/xlink" xmlns:sketch="http://www.bohemiancoding.com/sketch/ns">
    <!-- Generator: Sketch 3.3.3 (12081) - http://www.bohemiancoding.com/sketch -->
    <title>UMBERLLA</title>
    <desc>Created with Sketch.</desc>
    <defs></defs>
    <g id="Page-1" stroke="none" stroke-width="1" fill="none" fill-rule="evenodd" sketch:type="MSPage">
        <g id="UMBERLLA" sketch:type="MSArtboardGroup" fill="#010002">
            <g id="vehicle2" sketch:type="MSLayerGroup" transform="translate(3.000000, 3.000000)">
                <g id="Group" sketch:type="MSShapeGroup">
                    <path d="M46.8500585,0.00229268293 C21.0197756,0.00229268293 0,21.0174829 0,46.8505171 C0,72.6835512 21.0197756,93.6987415 46.8500585,93.6987415 C72.6803415,93.6987415 93.7014927,72.6835512 93.7014927,46.8505171 C93.7014927,21.0174829 72.6812585,0.00229268293 46.8500585,0.00229268293 L46.8500585,0.00229268293 Z M46.8500585,92.1365073 C21.8818244,92.1365073 1.56727805,71.8205854 1.56727805,46.8505171 C1.56727805,21.8836585 21.8818244,1.56957073 46.8500585,1.56957073 C71.8182927,1.56957073 92.132839,21.8841171 92.132839,46.8505171 C92.1360488,71.8205854 71.8196683,92.1365073 46.8500585,92.1365073 L46.8500585,92.1365073 Z" id="Shape"></path>
                    <path d="M46.8500585,8.59480976 C25.3772488,8.59480976 7.90654634,26.063678 7.90654634,47.538322 C7.90654634,69.0111317 25.3767902,86.4786244 46.8500585,86.4786244 C68.3196585,86.4786244 85.7917366,69.0083805 85.7917366,47.538322 C85.7917366,26.063678 68.3210341,8.59480976 46.8500585,8.59480976 L46.8500585,8.59480976 Z M46.8500585,10.158878 C62.873161,10.158878 76.5673561,20.297122 81.8712488,34.4906634 C48.2646439,57.2602146 16.1102244,37.3707317 11.8206146,34.503961 C17.120839,20.3021659 30.8219122,10.158878 46.8500585,10.158878 L46.8500585,10.158878 Z M41.5590049,84.5371805 C23.4436,81.9574537 9.47199024,66.351161 9.47199024,47.538322 C9.47199024,47.2480683 9.49996098,46.9656098 9.50638049,46.6785659 L9.50638049,47.9322049 C20.6653268,47.9322049 29.1019415,51.161678 34.5897073,57.5321268 C43.2216585,67.5557366 41.8153268,82.375639 41.5590049,84.5371805 L41.5590049,84.5371805 Z M46.8532683,84.9196 C45.5881659,84.9145561 44.3441561,84.8521951 43.1134439,84.7306829 C43.4234146,82.3036488 44.9232878,67.1389268 35.7814439,56.5146341 C29.991961,49.7833171 21.1550439,46.3681366 9.52013659,46.3663024 C9.63339512,42.7741268 10.2354537,39.3016293 11.2942146,36.032722 C14.8946439,38.3763024 29.2275805,46.8670244 47.8432488,46.8670244 C58.3817951,46.8670244 70.3009951,44.1281854 82.4068195,36.0263024 C83.5096,39.4263512 84.1350439,43.040078 84.212078,46.7899902 C72.9774732,46.9477268 64.3950439,50.334478 58.7417463,56.9085171 C50.0671512,66.9876098 50.9713854,81.1352976 51.3538049,84.6403512 C49.8759415,84.8159707 48.3760683,84.9196 46.8532683,84.9196 L46.8532683,84.9196 Z M52.9068683,84.418878 C52.5670927,81.0335024 51.7976683,67.3700293 59.9188098,57.9278439 C65.2685561,51.7114634 73.4474732,48.5081268 84.2042829,48.3508488 C83.8140683,66.5350341 70.3872,81.5553171 52.9068683,84.418878 L52.9068683,84.418878 Z" id="Shape"></path>
                    <path d="M53.3122146,54.683239 C53.3122146,51.1190341 50.4110537,48.2206244 46.8514341,48.2206244 C43.2872293,48.2206244 40.3888195,51.1204098 40.3888195,54.683239 C40.3888195,58.2442341 43.2853951,61.1440195 46.8514341,61.1440195 C50.4124293,61.1440195 53.3122146,58.2442341 53.3122146,54.683239 L53.3122146,54.683239 Z M46.8514341,59.5767415 C44.1520293,59.5767415 41.9560976,57.3808098 41.9560976,54.6846146 C41.9560976,51.9852098 44.1534049,49.7924878 46.8514341,49.7924878 C49.5494634,49.7924878 51.743561,51.9884195 51.743561,54.6846146 C51.743561,57.3808098 49.550839,59.5767415 46.8514341,59.5767415 L46.8514341,59.5767415 Z" id="Shape"></path>
                </g>
            </g>
        </g>
    </g>
</svg>