<?xml version="1.0" encoding="UTF-8" standalone="no"?>
<svg width="69px" height="56px" viewBox="0 0 69 56" version="1.1" xmlns="http://www.w3.org/2000/svg" xmlns:xlink="http://www.w3.org/1999/xlink" xmlns:sketch="http://www.bohemiancoding.com/sketch/ns">
    <!-- Generator: Sketch 3.3.3 (12081) - http://www.bohemiancoding.com/sketch -->
    <title>Imported Layers</title>
    <desc>Created with Sketch.</desc>
    <defs></defs>
    <g id="Page-1" stroke="none" stroke-width="1" fill="none" fill-rule="evenodd" sketch:type="MSPage">
        <g id="Artboard-1-Copy-2" sketch:type="MSArtboardGroup" transform="translate(-2.000000, -8.000000)" fill="#1A1918">
            <path d="M24.8507481,63.6228877 C12.8202095,63.6228877 7.60322831,61.3331832 2,56.7947799 C5.22159173,56.8787754 14.199191,56.6327413 22.0802189,51.2418166 C17.5345404,50.3396915 12.6158425,47.8773664 11.1039232,41.6398727 L10.6508766,39.7780824 L12.3400462,40.5624814 C13.1158473,40.9229346 14.0292158,41.1656618 14.9855742,41.2721443 C10.7355335,39.1014886 6.73946342,35.1424559 6.33932731,27.9234714 L6.20440538,25.5477872 L7.85190794,27.1357654 C9.39888044,28.6278432 10.7209831,29.1556261 11.8010199,29.3282468 C4.00663299,21.9935204 8.05429084,11.2804547 8.09926481,11.1647129 L8.65284155,9.74670986 L9.62441171,10.9180174 C9.67996779,10.984817 15.2038303,17.584748 21.8262482,20.8685096 C27.0154514,23.4426083 33.2126008,24.2858704 35.7073337,24.5325659 C35.3614309,21.6793639 35.3362984,14.4669932 42.8231426,10.0575594 C45.043402,8.75000719 47.3694825,8.08664104 49.7378914,8.08664104 C55.0342385,8.08664104 58.9608634,11.3532067 60.0521437,12.3671054 C62.3266364,12.1686908 66.4728402,10.1799151 67.5885916,9.34326684 L69.3789527,8 L69.0105629,10.2076931 C68.7612219,11.6997709 67.3868701,14.0357721 65.736722,15.8472974 C67.5171624,15.7031162 70.2718184,15.0701736 71,14.482205 C70.2440404,18.4881958 65.4278566,21.6978826 64.2386918,22.6952467 C64.2347235,24.2468489 64.0634256,29.6139638 62.0614223,36.0697135 C59.9006873,43.0360501 55.1050064,52.5890517 44.5281854,58.5335532 C38.5188686,61.9099083 31.8997575,63.6222263 24.8533937,63.6228877 L24.8507481,63.6228877 Z" id="Imported-Layers" sketch:type="MSShapeGroup"></path>
        </g>
    </g>
</svg>