<?xml version="1.0" encoding="UTF-8" standalone="no"?>
<svg width="38px" height="60px" viewBox="0 0 38 60" version="1.1" xmlns="http://www.w3.org/2000/svg" xmlns:xlink="http://www.w3.org/1999/xlink" xmlns:sketch="http://www.bohemiancoding.com/sketch/ns">
    <!-- Generator: Sketch 3.3.3 (12081) - http://www.bohemiancoding.com/sketch -->
    <title>Imported Layers</title>
    <desc>Created with Sketch.</desc>
    <defs></defs>
    <g id="Page-1" stroke="none" stroke-width="1" fill="none" fill-rule="evenodd" sketch:type="MSPage">
        <g id="Artboard-1-Copy" sketch:type="MSArtboardGroup" transform="translate(-17.000000, -6.000000)" fill="#1A1918">
            <path d="M40.2877405,66 C32.6044689,66 24.135698,62.7938668 23.4074389,53.7940737 C23.0150341,48.9431507 23.1384796,44.0708489 23.269511,38.9116572 C23.32882,36.579297 23.3888186,34.175904 23.4019218,31.7214777 C21.5509299,31.6669962 19.7537298,31.6414795 17.9344613,31.6414795 L17,31.6414795 L17,30.7070182 C17,29.5532516 17.024827,28.2767293 17.0524126,26.9257258 C17.0799982,25.5133445 17.108963,24.0519988 17.108963,22.6740994 L17.108963,22.0368727 L17.7020528,21.8037746 C24.3343142,19.206593 27.9045769,14.4198064 28.6183536,7.16824901 L28.6314567,7.03997609 L28.6783522,6.91928921 C28.8335211,6.52343624 29.137652,6.2193053 29.533505,6.06344682 L29.6976391,6 L29.8748764,6 C31.3141537,6 32.4375761,6.02482702 33.6251351,6.05172295 C34.8513138,6.07930852 36.1174916,6.10827337 37.7988322,6.10827337 L38.7332935,6.10827337 L38.7332935,20.7003517 C39.973265,20.7555229 41.3539229,20.7803499 43.0787108,20.7803499 C44.0924806,20.7803499 45.1152157,20.7727638 46.1365716,20.7637985 C47.8999793,20.7486265 49.6613181,20.7355233 51.3826579,20.7624193 L52.3026367,20.7775913 L52.3026367,31.6414795 L51.3674858,31.6414795 C47.371026,31.6414795 42.8414749,31.6759615 38.7974299,31.7366497 C38.6112273,36.2062022 38.460886,49.2534884 39.1325947,51.6182616 C39.8898186,54.283028 43.3373256,54.5699179 44.7848785,54.5699179 C46.4551849,54.5699179 48.2489368,54.2230294 49.7061447,53.6161468 C50.8468081,53.1402956 52.8860716,52.1306637 52.9067608,52.1210087 L54.2563849,51.4520586 L54.2563849,62.403531 L53.7846716,62.6731799 C50.0799292,64.7869244 45.1600423,66 40.2877405,66 Z" id="Imported-Layers" sketch:type="MSShapeGroup"></path>
        </g>
    </g>
</svg>