<?xml version="1.0" encoding="utf-8"?>
<!-- Generator: Adobe Illustrator 19.1.0, SVG Export Plug-In . SVG Version: 6.00 Build 0)  -->
<svg version="1.1" xmlns="http://www.w3.org/2000/svg" xmlns:xlink="http://www.w3.org/1999/xlink" x="0px" y="0px"
	 viewBox="0 0 100 100" style="enable-background:new 0 0 100 100;" xml:space="preserve">
<style type="text/css">
	.st0{fill:#FFFFFF;}
	.st1{fill:#F8F8F8;}
	.st2{fill:#D8D8D8;}
	.st3{fill:#666666;}
	.st4{fill:#333333;}
	.st5{fill:none;stroke:#CCCCCC;stroke-miterlimit:10;}
	.st6{fill:#008AD2;}
	.st7{fill:#FFFFFF;stroke:#E6E6E6;stroke-miterlimit:10;}
	.st8{fill:none;stroke:#333333;stroke-width:0.5;}
	.st9{fill:none;stroke:#333333;}
	.st10{fill:#999999;}
	.st11{fill:none;stroke:#999999;stroke-width:0.5;stroke-miterlimit:10;}
	.st12{fill:#FFFFFF;stroke:#000000;stroke-width:2;stroke-miterlimit:10;}
	.st13{fill:none;stroke:#000000;stroke-width:2;stroke-miterlimit:10;}
	.st14{fill:none;stroke:#999999;stroke-miterlimit:10;}
	.st15{fill:none;stroke:#F2F2F2;stroke-miterlimit:10;}
	.st16{fill:none;stroke:#4D4D4D;stroke-miterlimit:10;}
	.st17{fill:#808080;}
	.st18{fill:none;stroke:#00B21B;stroke-width:2;stroke-miterlimit:10;}
	.st19{fill:none;stroke:#B3B3B3;stroke-width:2;stroke-miterlimit:10;}
	.st20{fill:#33A2D9;stroke:#33A2D9;stroke-miterlimit:10;}
	.st21{opacity:0.93;fill:#0E303A;}
	.st22{fill:#E1584B;}
	.st23{fill:#FFFEFE;}
	.st24{fill:#1EBEF0;}
	.st25{fill:#FEFEFE;}
	.st26{fill:#3A5BA2;}
	.st27{fill:#FFFFFF;stroke:#CCCCCC;stroke-miterlimit:10;}
	.st28{fill:#EAF8FF;stroke:#CCCCCC;stroke-miterlimit:10;}
	.st29{fill:#EAF8FF;}
	.st30{fill:none;stroke:#CCCCCC;stroke-linecap:round;stroke-miterlimit:10;}
	.st31{fill:#001825;}
	.st32{fill:#F2F2F2;stroke:#CCCCCC;stroke-miterlimit:10;}
	.st33{fill:none;stroke:#FFFFFF;stroke-width:0.75;stroke-miterlimit:10;}
	.st34{fill:#005289;}
	.st35{fill:none;stroke:#E6E6E6;stroke-miterlimit:10;}
	.st36{fill:#7C7C7C;}
	.st37{fill:none;stroke:#7C7C7C;}
	.st38{fill:none;stroke:#7C7C7C;stroke-width:0.5;}
	.st39{fill:#373737;}
	.st40{opacity:0.49;}
	.st41{fill:#C00016;}
	.st42{fill:#4A4A4A;}
	.st43{fill:#F2F2F2;}
	.st44{fill:none;stroke:#666666;stroke-miterlimit:10;}
	.st45{fill:none;stroke:#666666;stroke-linecap:round;stroke-linejoin:round;stroke-miterlimit:10;}
	.st46{fill:none;stroke:#666666;stroke-width:0.75;stroke-linecap:round;stroke-linejoin:round;stroke-miterlimit:10;}
	.st47{fill:none;stroke:#666666;stroke-linejoin:round;stroke-miterlimit:10;}
	.st48{fill:#58B957;}
	.st49{fill:none;stroke:#000000;stroke-width:4;stroke-miterlimit:10;}
	.st50{fill:none;stroke:#000000;stroke-width:2;stroke-linecap:round;stroke-miterlimit:10;}
	.st51{fill:none;stroke:#666666;}
	.st52{fill:none;stroke:#333333;stroke-miterlimit:10;}
	.st53{fill:#FFFFFF;stroke:#FF0000;stroke-miterlimit:10;}
	.st54{fill:#FF0000;}
	.st55{fill:none;stroke:#FF0000;stroke-miterlimit:10;}
</style>
<g id="Layer_1">
	<g>
		<path d="M68.8,5.4C63.2,3,57.2,1.8,51,1.8c-6.2,0-12.2,1.2-17.8,3.6c-5.5,2.3-10.4,5.6-14.6,9.8c-4.2,4.2-7.5,9.1-9.8,14.6
			c-2.4,5.7-3.6,11.7-3.6,17.8c0,10,3.2,19.5,9.1,27.5l0.6,0.8l-0.2,1L9.1,98.9L31.9,90l0.8-0.3l0.8,0.3c5.6,2.3,11.5,3.5,17.5,3.5
			c6.2,0,12.2-1.2,17.8-3.6c5.5-2.3,10.4-5.6,14.6-9.8c4.2-4.2,7.5-9.1,9.8-14.6c2.4-5.7,3.6-11.7,3.6-17.8s-1.2-12.2-3.6-17.8
			c-2.3-5.5-5.6-10.4-9.8-14.6C79.2,11,74.3,7.7,68.8,5.4z M51,87.1c-6.7,0-12.9-1.7-18.4-4.6l-15.1,5.9l4.1-14.6
			c-6.2-6.9-9.9-16.1-9.9-26.1C11.6,26.1,29.2,8.5,51,8.5c21.7,0,39.3,17.6,39.3,39.3C90.3,69.5,72.7,87.1,51,87.1z"/>
		<path d="M64.7,55.8c-2-1-2.9-0.3-2.9-0.3s-3.5,3-4,3.7c-0.5,0.7-1,0.5-1.3,0.3c-3-1.7-6.5-4.9-8-6.4c-1.4-1.5-4.7-5.1-6.4-8
			c-0.2-0.3-0.3-0.8,0.3-1.3c0.7-0.5,3.7-4,3.7-4s0.7-0.8-0.3-2.9c-1-2-3.9-10.1-3.9-10.1l-5.2-0.3c0,0-5.9,3.5-6.1,8.1
			c-0.2,4.5,0.8,14.3,11.6,24.9C53.6,70,62.5,71.1,67,71c4.6-0.2,8.1-6.1,8.1-6.1l-0.3-5.2C74.8,59.7,66.7,56.8,64.7,55.8z"/>
	</g>
</g>
<g id="specctr">
	<g id="Dimensions">
	</g>
</g>
</svg>
