<?xml version="1.0" encoding="UTF-8" standalone="no"?>
<svg width="27px" height="31px" viewBox="0 0 27 31" version="1.1" xmlns="http://www.w3.org/2000/svg" xmlns:xlink="http://www.w3.org/1999/xlink" xmlns:sketch="http://www.bohemiancoding.com/sketch/ns">
    <!-- Generator: Sketch 3.3.2 (12043) - http://www.bohemiancoding.com/sketch -->
    <title>Fill 1 Copy</title>
    <desc>Created with Sketch.</desc>
    <defs></defs>
    <g id="Page-1" stroke="none" stroke-width="1" fill="none" fill-rule="evenodd" sketch:type="MSPage">
        <path d="M12.53,2.81072891 C12.58,3.03572891 12.609,3.30772891 12.614,3.62972891 C11.464,4.12672891 11.021,4.48272891 11.041,6.18772891 L11.041,7.23172891 L10.253,7.39072891 L10.253,6.18072891 C10.253,3.66872891 11.214,3.27272891 12.53,2.81072891 L12.53,2.81072891 Z M14.821,2.27272891 C14.873,2.51572891 14.915,2.78172891 14.943,3.06472891 C17.003,2.76872891 16.963,3.61972891 16.963,5.39272891 L16.963,6.04772891 L17.743,5.88772891 L17.743,5.39272891 C17.743,2.63772891 17.313,1.89972891 14.821,2.27272891 L14.821,2.27272891 Z M6.703,8.10072891 L6.703,4.47772891 C6.678,2.23272891 7.837,1.54472891 9.977,1.04372891 C13.201,0.287728914 13.406,2.36572891 13.406,3.68872891 L13.406,6.75872891 L14.195,6.59972891 L14.195,3.75572891 C14.187,1.25272891 13.407,-0.621271086 9.82,0.192728914 C7.887,0.630728914 5.915,1.12372891 5.915,4.40272891 L5.915,8.25672891 L6.703,8.10072891 L6.703,8.10072891 Z M16.147,17.6237289 L10.08,17.6237289 L10.08,13.2337289 L16.147,12.3447289 L16.147,17.6237289 L16.147,17.6237289 Z M16.147,23.8267289 L10.08,22.9397289 L10.08,18.2287289 L16.147,18.2287289 L16.147,23.8267289 L16.147,23.8267289 Z M9.476,17.6237289 L4.663,17.6237289 L4.663,13.9487289 L9.476,13.2687289 L9.476,17.6237289 L9.476,17.6237289 Z M9.476,22.9017289 L4.663,22.2237289 L4.663,18.2287289 L9.476,18.2287289 L9.476,22.9017289 L9.476,22.9017289 Z M21.688,6.05472891 L0,10.3917289 L0,26.1657289 L21.688,30.5017289 L26.023,28.9247289 L26.023,7.63172891 L21.688,6.05472891 L21.688,6.05472891 Z" id="Fill-1-Copy" fill="#000000" sketch:type="MSShapeGroup"></path>
    </g>
</svg>