<?xml version="1.0" encoding="utf-8"?>
<!-- Generator: Adobe Illustrator 19.1.0, SVG Export Plug-In . SVG Version: 6.00 Build 0)  -->
<svg version="1.1" xmlns="http://www.w3.org/2000/svg" xmlns:xlink="http://www.w3.org/1999/xlink" x="0px" y="0px"
	 viewBox="0 0 84.2 64.3" style="enable-background:new 0 0 84.2 64.3;" xml:space="preserve">
<style type="text/css">
	.st0{fill:#FFFFFF;}
	.st1{fill:#F8F8F8;}
	.st2{fill:#D8D8D8;}
	.st3{fill:#666666;}
	.st4{fill:#333333;}
	.st5{fill:none;stroke:#CCCCCC;stroke-miterlimit:10;}
	.st6{fill:#008AD2;}
	.st7{fill:#FFFFFF;stroke:#E6E6E6;stroke-miterlimit:10;}
	.st8{fill:none;stroke:#333333;stroke-width:0.5;}
	.st9{fill:none;stroke:#333333;}
	.st10{fill:#999999;}
	.st11{fill:none;stroke:#999999;stroke-width:0.5;stroke-miterlimit:10;}
	.st12{fill:#FFFFFF;stroke:#000000;stroke-width:2;stroke-miterlimit:10;}
	.st13{fill:none;stroke:#000000;stroke-width:2;stroke-miterlimit:10;}
	.st14{fill:none;stroke:#999999;stroke-miterlimit:10;}
	.st15{fill:none;stroke:#F2F2F2;stroke-miterlimit:10;}
	.st16{fill:none;stroke:#4D4D4D;stroke-miterlimit:10;}
	.st17{fill:#808080;}
	.st18{fill:none;stroke:#00B21B;stroke-width:2;stroke-miterlimit:10;}
	.st19{fill:none;stroke:#B3B3B3;stroke-width:2;stroke-miterlimit:10;}
	.st20{fill:#33A2D9;stroke:#33A2D9;stroke-miterlimit:10;}
	.st21{opacity:0.93;fill:#0E303A;}
	.st22{fill:#E1584B;}
	.st23{fill:#FFFEFE;}
	.st24{fill:#1EBEF0;}
	.st25{fill:#FEFEFE;}
	.st26{fill:#3A5BA2;}
	.st27{fill:#FFFFFF;stroke:#CCCCCC;stroke-miterlimit:10;}
	.st28{fill:#EAF8FF;stroke:#CCCCCC;stroke-miterlimit:10;}
	.st29{fill:#EAF8FF;}
	.st30{fill:none;stroke:#CCCCCC;stroke-linecap:round;stroke-miterlimit:10;}
	.st31{fill:#001825;}
	.st32{fill:#F2F2F2;stroke:#CCCCCC;stroke-miterlimit:10;}
	.st33{fill:none;stroke:#FFFFFF;stroke-width:0.75;stroke-miterlimit:10;}
	.st34{fill:#005289;}
	.st35{fill:none;stroke:#E6E6E6;stroke-miterlimit:10;}
	.st36{fill:#7C7C7C;}
	.st37{fill:none;stroke:#7C7C7C;}
	.st38{fill:none;stroke:#7C7C7C;stroke-width:0.5;}
	.st39{fill:#373737;}
	.st40{opacity:0.49;}
	.st41{fill:#C00016;}
	.st42{fill:#4A4A4A;}
	.st43{fill:#F2F2F2;}
	.st44{fill:none;stroke:#666666;stroke-miterlimit:10;}
	.st45{fill:none;stroke:#666666;stroke-linecap:round;stroke-linejoin:round;stroke-miterlimit:10;}
	.st46{fill:none;stroke:#666666;stroke-width:0.75;stroke-linecap:round;stroke-linejoin:round;stroke-miterlimit:10;}
	.st47{fill:none;stroke:#666666;stroke-linejoin:round;stroke-miterlimit:10;}
	.st48{fill:#58B957;}
	.st49{fill:none;stroke:#000000;stroke-width:4;stroke-miterlimit:10;}
	.st50{fill:none;stroke:#000000;stroke-width:2;stroke-linecap:round;stroke-miterlimit:10;}
	.st51{fill:none;stroke:#666666;}
	.st52{fill:none;stroke:#333333;stroke-miterlimit:10;}
	.st53{fill:#4D4D4D;}
	.st54{fill:none;stroke:#D95032;stroke-miterlimit:10;}
	.st55{fill:#D95032;}
	.st56{fill:none;stroke:#720E9E;stroke-miterlimit:10;}
	.st57{fill:#720E9E;}
	.st58{opacity:0.5;fill:#010002;}
	.st59{fill:#FF0000;}
	.st60{fill:#FFFFFF;stroke:#FF0000;stroke-miterlimit:10;}
	.st61{fill:none;stroke:#FF0000;stroke-miterlimit:10;}
	.st62{fill:#001825;stroke:#FF0000;stroke-miterlimit:10;}
</style>
<g id="Layer_1">
	<g>
		<path d="M31.7,12.6h-29v4h9.6c3.5,0,18.7,20.3,19.2,22.1c0.2,1.6,0.5,10.9-0.1,11.6c-0.8,1.1-9,0.3-10.4,0.4l-0.1,3.4
			c2.6,0.1,10.6-0.1,13.2-0.1c5.3,0,14.5-0.2,15.8-0.1l0.2-3.4l-10.6-0.2c-0.2-1.5-0.5-11.2-0.2-12.3c1-3.1,17.3-14.4,18.9-14.8
			l1.6,0.3h4.9l0.8-4h0.1h-0.2h-0.1h0.2H40.9l1,5h7.3L37,35.4c-2.5-3.6-8.4-15.8-12.4-18.8h7.2 M61.5,45.7l4.6,0.4l5.4-19.7
			c-0.9,0-9-0.8-10.1-1L61.5,45.7z M60.7,48.8l0,4.8l2.3,0.2l2.5,0.2l0.7-4.7l-2.7-0.1L60.7,48.8z"/>
	</g>
</g>
<g id="specctr">
	<g id="Dimensions">
	</g>
	<g id="Object_Properties">
	</g>
</g>
</svg>
